<svg width="21" height="26" viewBox="0 0 21 26" fill="none" xmlns="http://www.w3.org/2000/svg">
<path d="M12.0254 25.6846C11.8678 25.6846 11.7282 25.6309 11.6064 25.5234C11.4919 25.416 11.4238 25.2764 11.4023 25.1045C11.2305 23.9443 11.0479 22.9668 10.8545 22.1719C10.6611 21.3841 10.4105 20.736 10.1025 20.2275C9.7946 19.7191 9.38639 19.3145 8.87793 19.0137C8.37663 18.7057 7.73568 18.4587 6.95508 18.2725C6.18164 18.0863 5.22201 17.918 4.07617 17.7676C3.88997 17.7461 3.74316 17.6781 3.63574 17.5635C3.52832 17.4417 3.47461 17.2949 3.47461 17.123C3.47461 16.9583 3.52832 16.8187 3.63574 16.7041C3.75033 16.5824 3.89714 16.5107 4.07617 16.4893C5.22201 16.3604 6.18522 16.21 6.96582 16.0381C7.74642 15.859 8.39095 15.6156 8.89941 15.3076C9.40788 14.9925 9.81608 14.5771 10.124 14.0615C10.4391 13.5459 10.6898 12.8906 10.876 12.0957C11.0693 11.3008 11.2448 10.3197 11.4023 9.15234C11.4238 8.98047 11.4919 8.84082 11.6064 8.7334C11.7282 8.62598 11.8678 8.57227 12.0254 8.57227C12.1973 8.57227 12.3369 8.62598 12.4443 8.7334C12.5589 8.84082 12.6341 8.98047 12.6699 9.15234C12.8275 10.3197 12.9993 11.3008 13.1855 12.0957C13.3789 12.8906 13.6296 13.5459 13.9375 14.0615C14.2526 14.57 14.6608 14.9818 15.1621 15.2969C15.6706 15.6048 16.3151 15.8483 17.0957 16.0273C17.8763 16.2064 18.8395 16.3604 19.9854 16.4893C20.1644 16.5107 20.3076 16.5824 20.415 16.7041C20.5296 16.8258 20.5869 16.9655 20.5869 17.123C20.5869 17.2949 20.5296 17.4417 20.415 17.5635C20.3076 17.6852 20.1644 17.7533 19.9854 17.7676C18.8395 17.8965 17.8727 18.0505 17.085 18.2295C16.3044 18.4014 15.6598 18.6413 15.1514 18.9492C14.6429 19.2572 14.2347 19.6689 13.9268 20.1846C13.6188 20.7002 13.3682 21.359 13.1748 22.1611C12.9886 22.9632 12.8203 23.9443 12.6699 25.1045C12.6413 25.2764 12.5697 25.416 12.4551 25.5234C12.3405 25.6309 12.1973 25.6846 12.0254 25.6846ZM4.60254 13.7822C4.35905 13.7822 4.2194 13.6497 4.18359 13.3848C4.09766 12.6758 4.00814 12.1208 3.91504 11.7197C3.82194 11.3115 3.67155 11.0072 3.46387 10.8066C3.25618 10.599 2.94108 10.4414 2.51855 10.334C2.10319 10.2266 1.53385 10.112 0.810547 9.99023C0.538411 9.95443 0.402344 9.81836 0.402344 9.58203C0.402344 9.36003 0.520508 9.22754 0.756836 9.18457C1.49447 9.0485 2.07454 8.92676 2.49707 8.81934C2.9196 8.70475 3.2347 8.5472 3.44238 8.34668C3.65723 8.14616 3.8112 7.84896 3.9043 7.45508C4.00456 7.0612 4.09766 6.50977 4.18359 5.80078C4.2194 5.53581 4.35905 5.40332 4.60254 5.40332C4.83887 5.40332 4.97493 5.52865 5.01074 5.7793C5.09668 6.5026 5.1862 7.07194 5.2793 7.4873C5.37956 7.90267 5.53353 8.21419 5.74121 8.42188C5.94889 8.62956 6.264 8.78353 6.68652 8.88379C7.10905 8.97689 7.68913 9.07715 8.42676 9.18457C8.53418 9.19173 8.62012 9.2347 8.68457 9.31348C8.75618 9.38509 8.79199 9.47461 8.79199 9.58203C8.79199 9.8112 8.67383 9.94727 8.4375 9.99023C7.69271 10.1335 7.10905 10.2624 6.68652 10.377C6.27116 10.4844 5.95964 10.6419 5.75195 10.8496C5.54427 11.0501 5.3903 11.3509 5.29004 11.752C5.18978 12.1458 5.09668 12.6973 5.01074 13.4062C4.98926 13.5137 4.94271 13.6032 4.87109 13.6748C4.79948 13.7464 4.70996 13.7822 4.60254 13.7822ZM9.80176 6.27344C9.65137 6.27344 9.56543 6.19466 9.54395 6.03711C9.46517 5.60026 9.39355 5.25651 9.3291 5.00586C9.27181 4.75521 9.17871 4.56543 9.0498 4.43652C8.92806 4.30762 8.73828 4.20736 8.48047 4.13574C8.22982 4.05697 7.87174 3.97819 7.40625 3.89941C7.2487 3.86361 7.16992 3.77051 7.16992 3.62012C7.16992 3.48405 7.2487 3.39811 7.40625 3.3623C7.87174 3.27637 8.22982 3.19759 8.48047 3.12598C8.73828 3.0472 8.92806 2.94336 9.0498 2.81445C9.17871 2.68555 9.27181 2.49935 9.3291 2.25586C9.39355 2.00521 9.46517 1.66146 9.54395 1.22461C9.56543 1.06706 9.65137 0.988281 9.80176 0.988281C9.95215 0.988281 10.0417 1.06706 10.0703 1.22461C10.1419 1.66146 10.21 2.00521 10.2744 2.25586C10.3389 2.50651 10.432 2.69629 10.5537 2.8252C10.6826 2.9541 10.8724 3.05794 11.123 3.13672C11.3809 3.20833 11.7425 3.28353 12.208 3.3623C12.3656 3.39095 12.4443 3.47689 12.4443 3.62012C12.4443 3.77051 12.3656 3.86361 12.208 3.89941C11.7425 3.97819 11.3809 4.05697 11.123 4.13574C10.8724 4.20736 10.6826 4.3112 10.5537 4.44727C10.432 4.57617 10.3389 4.76595 10.2744 5.0166C10.21 5.26009 10.1419 5.60026 10.0703 6.03711C10.0417 6.19466 9.95215 6.27344 9.80176 6.27344Z" fill="#9D34DA"/>
</svg>
