<svg width="110" height="110" viewBox="0 0 110 110" fill="none" xmlns="http://www.w3.org/2000/svg">
<g clip-path="url(#clip0_17_143)">
<path d="M81.6593 92.5698C81.6054 92.4388 81.5816 92.2974 81.5895 92.1558C81.5973 92.0143 81.6367 91.8764 81.7047 91.7522C82.3965 90.4834 82.1694 89.4753 81.0128 88.666C80.5998 88.3741 80.4552 88.045 80.3313 87.482C80.0959 86.4119 79.8439 85.3272 79.6023 84.2778L79.5651 84.1205C79.2471 82.7502 78.9187 81.3323 78.6234 79.9372C78.528 79.4349 78.459 78.9277 78.4169 78.4179L78.0038 78.4614L78.4169 78.3951C78.3694 77.917 78.3198 77.4244 78.2269 76.9317C78.2269 76.8841 78.2124 76.8344 78.2083 76.7806C78.2407 76.6393 78.2442 76.4929 78.2186 76.3501C78.2186 76.2611 78.2393 76.17 78.2496 76.0789V76.0562C78.3041 75.7043 78.32 75.3476 78.2971 74.9922C78.2632 74.4087 78.3078 73.8232 78.4293 73.2515C78.6143 72.1308 79.1494 71.0981 79.9575 70.3018C89.3191 61.0887 93.2616 49.6836 91.6776 36.401C90.6966 28.1628 87.4357 20.9141 81.9876 14.8555C73.196 5.07933 62.2503 0.709769 49.4522 1.86477C46.4952 2.14758 43.5872 2.81343 40.801 3.84567H40.7845C28.3581 8.88173 20.4214 17.9996 17.1976 30.9469C15.1572 39.1416 15.7375 47.3177 18.9221 55.2475C23.6266 66.959 32.0114 74.8722 43.8431 78.7657C44.3127 78.9308 44.7912 79.0691 45.2763 79.1796C47.7546 79.6909 49.7764 81.1916 51.4906 83.7686C52.8784 85.8571 53.531 88.3017 54.0328 90.4295C54.1216 90.8104 54.2043 91.1933 54.2869 91.5866C54.3197 91.7721 54.341 91.9594 54.3509 92.1476C54.3075 92.2076 54.2621 92.2718 54.2208 92.3421C53.6673 93.3088 53.7747 93.8821 54.6441 94.619C54.6693 94.6418 54.6954 94.6631 54.7226 94.6832C54.7732 94.8581 54.8104 95.0367 54.8341 95.2172C54.8878 95.7113 54.943 96.2052 54.9994 96.6993C55.1357 97.875 55.274 99.09 55.3649 100.291C55.4153 101.293 55.8261 102.244 56.5214 102.967C59.0811 105.692 62.3199 107.682 65.9037 108.732C66.1763 108.81 66.4469 108.868 66.6864 108.92L66.8929 108.965C67.4524 109.091 68.0237 109.156 68.5968 109.158C69.347 109.162 70.0922 109.034 70.7983 108.779C71.4912 108.522 72.1363 108.151 72.7065 107.68C74.1914 106.465 75.4822 105.322 76.6532 104.186C77.6858 103.19 78.7514 102.038 80.0277 100.558C80.365 100.143 80.663 99.6983 80.9178 99.2287C81.0438 99.0113 81.1739 98.7878 81.3061 98.5849C81.3821 98.457 81.4769 98.3411 81.587 98.2413C82.5328 97.5645 82.8013 96.84 82.5143 95.745C82.2664 94.7825 81.9711 93.6607 81.6593 92.5698ZM68.0288 84.4227C65.6563 85.3635 63.214 86.1171 60.7241 86.6768C59.7913 86.8662 58.8489 87.0045 57.901 87.0908C60.435 85.9689 64.6935 84.8532 68.0309 84.4227H68.0288ZM72.5723 84.8864C72.7346 84.8075 72.9015 84.7384 73.0721 84.6794C73.4684 84.5305 73.888 84.4533 74.3112 84.4517C74.7782 84.4587 75.241 84.5399 75.6825 84.6918C76.2056 84.857 76.7044 85.0917 77.1653 85.3893C77.3615 85.5197 77.3719 85.528 77.2252 85.8157C77.0423 86.1324 76.7769 86.3932 76.4576 86.5708C76.1383 86.7482 75.7769 86.8358 75.412 86.8238C72.771 86.6006 70.113 86.6868 67.4919 87.0804C69.231 86.4514 70.9309 85.7187 72.5826 84.8864H72.5723ZM56.1125 81.8705C59.257 80.5031 62.576 79.5808 65.9739 79.13C63.6138 80.0376 61.1998 80.7979 58.7457 81.4069C57.8752 81.6064 56.9948 81.7612 56.1084 81.8705H56.1125ZM63.4007 29.5828C63.5461 29.2491 63.7387 28.938 63.9727 28.6596C64.0717 28.5365 64.1995 28.4398 64.3445 28.3781C64.3854 28.3624 64.4287 28.3541 64.4725 28.3533H64.4973C64.5929 28.3769 64.6821 28.4212 64.759 28.4831C64.8356 28.5449 64.8979 28.6228 64.9413 28.7114C65.1501 29.0388 65.3023 29.3992 65.3915 29.7774C65.9388 32.0853 64.5944 34.9707 62.4094 36.3783C62.2545 34.1945 62.6923 31.129 63.3965 29.5828H63.4007ZM43.335 39.4935C42.3708 39.1232 41.4778 38.5881 40.6957 37.9121C40.1178 37.3944 39.6021 36.8109 39.1591 36.1733C39.0127 35.9633 38.9167 35.7219 38.8791 35.4683C38.8415 35.2146 38.8632 34.9558 38.9423 34.712C38.966 34.5936 39.0154 34.482 39.0867 34.3847C39.1581 34.2875 39.2498 34.2069 39.3553 34.149H39.3719C39.4815 34.1302 39.5937 34.1359 39.7009 34.1655C39.8078 34.1953 39.9072 34.2483 39.9914 34.3208C40.4043 34.6249 40.7719 34.9858 41.0839 35.393C42.0436 36.6335 42.8032 38.017 43.335 39.4935ZM47.0194 42.9523C51.3811 43.4842 55.7759 42.6314 60.4164 40.3545L60.4515 40.576C60.5796 41.3605 60.7014 42.1036 60.8377 42.8529C61.5791 46.8561 62.9029 50.6461 64.1132 53.8234C66.9324 61.3694 70.6004 68.5687 75.0464 75.282C75.1022 75.3669 75.16 75.4538 75.2178 75.549C73.989 76.17 72.6756 76.4287 70.9945 76.4018C66.3188 76.3356 61.4945 77.3209 55.8193 79.4881C55.2113 79.7131 54.6181 79.9766 54.0432 80.2767C53.7871 77.1491 53.2604 74.1105 52.74 71.2561C52.4482 69.6664 52.1597 68.0794 51.8747 66.4953L51.7941 66.0461C50.9164 61.1902 50.0098 56.1665 49.0433 51.2132C48.6571 49.2386 48.1408 47.2804 47.6389 45.3616C47.4241 44.5316 47.2156 43.7326 47.0194 42.9523ZM62.2338 82.7958C65.5072 81.7277 68.8859 80.5085 72.2749 79.1693L72.3844 79.1279C73.417 78.7532 74.3814 78.8505 75.5297 79.4446C75.9241 79.6516 75.9861 79.782 75.9882 79.782C75.9902 79.782 75.9696 79.9248 75.6825 80.2084C74.6788 81.204 74.1212 81.7546 72.0725 81.9347C71.9434 81.9233 71.8135 81.9233 71.6843 81.9347H71.5975C65.2614 82.1582 59.8526 83.4416 55.0758 85.8551L54.704 85.0147L54.6813 84.9629L54.4314 84.3772C56.984 84.3399 59.4189 83.7148 62.2338 82.7958ZM71.7793 88.9951C67.5001 90.7587 62.2503 92.5429 56.889 92.841L56.9758 92.7892C57.0997 92.723 57.2195 92.6505 57.3516 92.5719H57.3702L57.6366 92.4166C59.7969 91.2202 62.1553 90.5537 63.9686 90.1273C66.5264 89.4811 69.1438 89.1015 71.7793 88.9951ZM59.547 96.8338C61.1372 95.9769 62.8637 95.476 64.4911 95.0599C67.294 94.3477 70.1853 94.0479 73.0741 94.1699C70.5302 95.105 67.9297 95.8779 65.2883 96.484C63.5184 96.898 61.416 97.2933 59.2351 97.194L58.9584 97.1753C59.1608 97.0574 59.359 96.9414 59.5552 96.8338H59.547ZM78.6564 91.6342C78.4127 91.7915 78.1505 91.9426 77.8944 92.0875L77.818 92.131L77.5619 92.278C77.325 92.4053 77.048 92.4351 76.7895 92.3608C75.0326 92.0358 73.2499 91.8723 71.4633 91.8723C71.2464 91.8723 71.0316 91.8723 70.8169 91.8723C72.6322 91.1799 74.4021 90.3739 76.1162 89.4588C76.2339 89.3967 76.3227 89.3449 76.4033 89.2952L76.5189 89.3221C77.2236 89.4612 77.9146 89.6622 78.5841 89.9224C78.6585 90.2453 78.768 90.6945 78.8795 91.0257C78.9179 91.1422 78.9489 91.2612 78.9724 91.3817C78.872 91.4717 78.7665 91.556 78.6564 91.6342ZM76.205 72.854C75.9427 72.44 75.6928 72.0426 75.4491 71.6638C72.8139 67.5779 70.408 62.9703 68.0928 57.5885C66.6641 54.3108 65.4128 50.9582 64.3445 47.5454C63.4841 44.8135 62.8932 42.0036 62.5808 39.1561V39.0919L62.7666 38.9553C63.1012 38.709 63.4791 38.4316 63.8426 38.1501C65.0305 37.2714 66.0223 36.1539 66.7546 34.8693C67.9772 32.638 68.1569 30.4273 67.2895 28.2995C67.1505 27.9399 66.9673 27.5992 66.7443 27.2852C66.5035 26.9335 66.1877 26.6396 65.8199 26.425C65.452 26.2101 65.0413 26.0797 64.6171 26.0433C64.2183 26.0222 63.8197 26.0909 63.4508 26.2445C63.082 26.3983 62.7522 26.633 62.4858 26.9312C61.898 27.586 61.4346 28.3427 61.1186 29.1647C60.5197 30.6136 60.212 32.2881 60.1438 34.4201C60.119 35.2729 60.1252 36.1092 60.1314 36.993V37.0137C60.1314 37.287 60.1314 37.5643 60.1314 37.8417C58.7523 38.715 57.2566 39.3881 55.6891 39.8412C52.5314 40.7706 49.9375 41.0418 47.5295 40.6919L47.3085 40.6567C47.1125 40.6205 46.9147 40.5951 46.7158 40.5802C46.3358 40.5595 46.1396 40.4622 45.9702 39.9385C45.3674 38.0288 44.4736 36.2239 43.3206 34.5878C42.7881 33.8168 42.1492 33.1254 41.4226 32.5345C40.5243 31.8307 39.4607 31.6341 38.5086 31.9984C37.5565 32.3627 36.8564 33.2734 36.6499 34.4553C36.4762 35.5313 36.7096 36.6333 37.3046 37.5457C38.079 38.7957 39.1606 39.8255 40.4458 40.5367C41.5779 41.1763 42.7563 41.7298 43.9711 42.1926C44.1411 42.2365 44.2953 42.3269 44.417 42.4538C44.5384 42.5805 44.6223 42.7389 44.6588 42.9109C45.7513 46.5783 46.634 50.3054 47.3023 54.0738C48.1877 58.9698 49.0778 63.8686 49.9726 68.7701L50.4807 71.5562C50.9722 74.2471 51.5133 77.3354 51.7776 80.4568C50.049 78.6539 48.1057 77.5092 45.8504 76.9607C42.7101 76.1677 39.7033 74.9159 36.9266 73.2452C30.0402 69.1439 24.6229 62.9663 21.4489 55.5946C18.2746 48.2231 17.506 40.0347 19.2525 32.1991C21.896 20.4318 28.674 11.9286 39.4008 6.92981C40.264 6.52825 41.15 6.15981 42.0319 5.83691C45.5865 4.54297 49.3405 3.88578 53.1221 3.89534C57.9817 3.90404 62.7894 4.89637 67.257 6.8128C71.7247 8.72922 75.76 11.5303 79.1211 15.048C84.4141 20.5239 87.9142 27.4878 89.1539 35.0101C91.3348 48.1912 87.6339 59.5901 78.1546 68.8922C77.3271 69.6898 76.736 70.7013 76.4466 71.8149C76.364 72.1275 76.2794 72.4752 76.205 72.8437V72.854ZM58.8572 89.3656C58.2727 89.6036 57.6945 89.8583 57.0956 90.1211C56.856 90.2267 56.6123 90.3281 56.3645 90.4399L56.1146 89.3946C57.028 89.4859 57.9487 89.4735 58.8593 89.3573L58.8572 89.3656ZM58.0311 95.0951C57.7482 95.2524 57.4652 95.4159 57.174 95.5857L57.1637 95.5008L57.1493 95.3828C57.1389 95.3 57.1286 95.2193 57.1203 95.1386C57.4192 95.1235 57.7213 95.1054 58.027 95.0847L58.0311 95.0951ZM60.5094 99.4936C61.0277 99.4688 61.542 99.4274 62.0541 99.3715C60.9286 99.5785 59.7824 99.86 58.7395 100.533C58.4295 100.71 58.1674 100.96 57.9753 101.261C57.8851 101.137 57.8192 100.996 57.7812 100.847C57.6862 100.365 57.6346 99.8724 57.5747 99.3115C58.541 99.5056 59.5294 99.5634 60.5114 99.4833L60.5094 99.4936ZM61.6969 103.482C64.6873 103.259 67.8739 102.63 71.7297 101.504C73.3406 101.034 74.9659 100.518 76.5416 100.019L76.6841 99.9759L77.818 99.6158L77.5846 99.8703L77.4958 99.9697C76.6532 100.891 75.7816 101.845 74.8853 102.727C73.923 103.671 72.8718 104.569 71.8474 105.445L71.4344 105.799C70.2716 106.794 68.8694 107.103 67.2626 106.716C66.8083 106.606 66.3684 106.496 65.943 106.362C63.9833 105.729 62.1477 104.761 60.5176 103.501C60.9117 103.512 61.3059 103.502 61.6989 103.472L61.6969 103.482ZM79.4206 96.5213C77.7849 96.7986 76.1162 97.0615 74.5012 97.3161L74.3649 97.3389C73.5155 97.4769 72.6661 97.6115 71.8164 97.7425C71.0579 97.8652 70.3006 97.9853 69.5447 98.1027L69.3506 98.1337C68.194 98.3159 67.0169 98.5001 65.8397 98.6967C66.8 98.4752 67.7418 98.2269 68.6587 97.9785C71.5502 97.177 74.3864 96.1868 77.1488 95.0144C77.2457 94.9726 77.3491 94.9485 77.4545 94.944H77.4751C78.5614 95.3166 79.3565 95.772 79.9534 96.3929C79.7809 96.4548 79.6023 96.4979 79.4206 96.5213Z" fill="black"/>
</g>
<defs>
<clipPath id="clip0_17_143">
<rect width="76" height="109" fill="white" transform="translate(16 1)"/>
</clipPath>
</defs>
</svg>
