<svg width="144" height="123" viewBox="0 0 144 123" fill="none" xmlns="http://www.w3.org/2000/svg">
<g clip-path="url(#clip0_3_38)">
<path d="M4.08928 17.062C3.41813 15.4698 2.45837 14.1493 2.33757 12.7655C2.22379 11.6456 2.43625 10.5177 2.95211 9.50297C3.46799 8.48819 4.26775 7.62491 5.26554 7.00585C6.26335 6.38676 7.42147 6.03525 8.61547 5.98914C9.80948 5.94303 10.9942 6.20401 12.0426 6.74407C12.7502 7.14509 13.5494 7.38134 14.3735 7.43298C15.1977 7.48463 16.023 7.35019 16.7809 7.04101C25.9758 4.10297 34.0634 6.01117 41.0166 12.3043C44.1511 15.1476 46.1779 18.6544 47.6881 22.4705C48.3593 24.1513 48.2117 25.554 46.8356 26.8936C45.8255 27.911 44.9593 29.0473 44.2584 30.2738C62.467 21.7882 80.5817 21.6997 98.8979 29.9895C97.126 28.3089 95.3138 26.6533 93.5822 24.9348C91.4278 22.799 91.3808 22.4073 93.0386 19.88C97.2266 13.5048 102.67 8.32997 109.757 4.82958C115.972 1.75883 122.509 0.179346 129.496 2.10013C130.919 2.49188 131.959 2.16332 133.221 1.46831C137.248 -0.812651 140.846 0.975447 140.51 5.39199C140.262 8.55119 141.235 11.1354 142.362 13.9218C144.671 19.6084 144.315 25.4338 142.678 31.1962C140.626 38.5719 136.496 45.2889 130.725 50.6381C130.053 51.2699 129.268 51.9017 128.651 52.5778C128.121 53.2738 127.636 53.9997 127.201 54.7512C123.959 53.9931 122.315 50.9602 118.905 49.1722C119.576 50.5939 119.905 51.4025 120.281 52.1985C128.718 69.8584 124.516 88.403 111.247 101.672C109.093 103.826 107.838 105.652 108.563 108.85C109.234 111.699 108.797 114.789 108.683 117.771C108.578 118.913 108.276 120.031 107.791 121.082C107.274 122.345 106.173 122.87 104.838 122.289C103.178 121.593 101.584 120.767 100.072 119.818C98.1796 118.565 96.3689 117.206 94.6494 115.749C93.0319 114.384 91.5352 114.151 89.3876 114.865C82.9348 117.025 76.0919 117.964 69.2525 117.626C62.0433 117.339 54.9587 115.758 48.3793 112.969C47.3994 112.546 46.3658 112.186 44.6544 111.51C43.943 112.419 43.3121 113.626 42.3322 114.41C39.5874 116.665 36.6885 118.748 33.6539 120.646C31.07 122.181 29.1236 121.044 28.9559 118.118C28.9458 116.744 29.1377 115.375 29.5263 114.05C30.1894 111.132 31.0138 108.249 31.9963 105.412C32.7143 103.517 32.191 102.253 30.8216 100.831C24.2696 94.091 20.0798 85.6156 18.8213 76.556C17.8416 69.5857 18.6636 62.4959 21.2173 55.8886C21.62 54.8144 22.0697 53.753 22.7475 52.0976C20.6938 53.0264 19.7475 54.2837 18.7206 55.4148C16.9085 57.4177 16.5326 57.5313 14.1768 56.2298C9.15345 53.5283 5.19509 49.3674 2.8946 44.3701C-0.877339 36.2763 -0.991443 28.1318 2.72009 19.9747C3.21003 18.8816 3.72015 17.8328 4.08928 17.062ZM71.5277 114.365C81.2529 114.315 87.7565 112.906 97.1327 108.249C120.013 96.8761 129.859 68.7972 113.113 46.6322C94.8643 22.4832 55.393 20.1643 33.8621 41.8113C19.0965 56.6342 17.2776 78.5274 29.7412 94.6521C40.01 107.908 54.2252 114.138 71.5277 114.347V114.365ZM98.9246 17.1314C109.24 27.5633 119.301 37.7485 129.241 47.8074C129.912 47.5546 130.228 47.5295 130.369 47.3778C138.067 39.0248 142.107 29.4714 140.53 18.313C139.248 9.23987 131.134 3.26273 121.69 4.32423C112.361 5.34148 105.193 9.98551 98.9246 17.1126V17.1314ZM9.74043 48.4644C10.613 47.8326 11.2304 47.4723 11.7539 47.0112C19.4902 40.0273 27.2176 33.0307 34.936 26.0214C36.9495 24.1892 38.8152 22.2305 40.7482 20.335C41.9161 19.1788 42.0905 18.016 41.0101 16.6639C33.2379 7.18633 21.063 6.88304 13.7137 11.9251C4.79398 18.0602 2.1496 26.6345 3.72683 36.5669C4.37476 41.0176 6.47624 45.1686 9.74043 48.4456V48.4644ZM12.2171 50.6254C14.7272 52.7231 14.754 52.7421 16.5393 51.055C20.6536 47.1692 24.6872 43.2139 28.8551 39.3787C32.8822 35.7013 36.9963 32.1692 41.0166 28.5109C42.215 27.3694 43.3357 26.1581 44.3725 24.8841C45.4129 23.6646 45.1375 22.6159 43.7013 21.6113C33.2044 31.2595 22.8148 40.8446 12.2171 50.6066V50.6254ZM126.207 51.2572C128.067 49.8292 126.671 48.97 125.825 48.1359C117.028 39.3871 108.211 30.6508 99.3742 21.9271C98.6146 21.2411 97.8147 20.5957 96.9784 19.9938C95.0051 22.2051 94.9649 22.2432 96.8173 23.9933C106.026 32.6916 115.25 41.3753 124.489 50.0441C125.032 50.4776 125.606 50.8748 126.207 51.232V51.2572ZM35.2715 105.374C34.1305 109.797 32.8487 113.354 32.211 117.897C36.3857 115.414 39.0233 112.748 41.7551 109.684L35.2715 105.374ZM104.321 107.63L96.3272 112.407C99.502 114.346 100.952 117.461 104.71 118.46C104.831 114.782 106.166 111.459 104.321 107.605V107.63ZM10.962 9.42305C8.80085 8.47531 7.21019 8.72815 6.08935 10.1624C5.23696 11.2492 4.85437 12.5949 6.38462 13.9912L10.962 9.42305ZM137.644 6.32711C137.235 2.70034 137.013 2.56762 134.745 4.08404L137.644 6.32711Z" fill="black"/>
<path d="M73.7316 34.5354C85.8409 34.9208 96.2602 38.9067 104.393 47.5986C117.066 61.1416 116.804 83.831 98.2917 96.7487C80.8589 108.902 54.6628 106.287 41.4272 91.0069C28.6342 76.2447 30.438 56.366 45.7855 43.9158C53.7912 37.4223 63.2452 34.5859 73.7316 34.5354ZM36.0097 72.6505C35.9091 76.0806 38.2558 82.1257 42.5738 87.5138C56.889 105.346 87.021 106.154 102.422 88.9793C107.625 83.1806 110.575 76.3837 110.381 68.7657C110.186 61.1479 107.082 54.471 101.564 48.8682C87.8456 34.9713 64.0834 33.3479 48.481 45.3624C40.4953 51.5023 36.1438 59.4234 36.0097 72.6505Z" fill="black"/>
<path d="M73.4092 73.0162C76.5358 70.0999 79.285 67.4699 82.1151 64.9292C84.2355 63.0187 86.4229 61.1742 88.6781 59.3955C89.5257 58.7374 90.504 58.2459 91.5554 57.95C91.8945 57.8757 92.2477 57.8802 92.5848 57.9634C92.9216 58.0466 93.2321 58.206 93.4893 58.4277C93.7062 58.7485 93.8443 59.1112 93.8932 59.4894C93.9422 59.8673 93.9008 60.2509 93.7723 60.6118C93.073 61.8108 92.1616 62.8879 91.0771 63.7956C87.7079 66.5084 84.251 69.0618 80.8886 71.7428C78.8672 73.3601 76.603 74.7739 75.4173 77.2318C74.7434 78.6455 73.3216 78.741 72.0076 77.824C70.3366 76.665 68.7125 75.4297 67.0752 74.2198C65.4379 73.0101 63.605 71.6728 61.8799 70.3991C61.2061 69.9024 60.3301 69.4694 60.0136 68.8072C59.6968 68.145 59.8855 67.1579 59.8518 66.3173C60.6402 66.3873 61.5766 66.2155 62.19 66.5594C65.8422 68.578 69.4471 70.7174 73.4092 73.0162Z" fill="black"/>
</g>
<defs>
<clipPath id="clip0_3_38">
<rect width="144" height="123" fill="white"/>
</clipPath>
</defs>
</svg>
