<svg width="198" height="111" viewBox="0 0 198 111" fill="none" xmlns="http://www.w3.org/2000/svg">
<path d="M197.783 30.0807C197.182 22.6737 195.782 17.2592 193.243 12.4148C191.929 9.91158 190.395 8.3486 186.803 8.3486H186.732C181.061 8.39305 175.334 8.09667 169.78 7.8154C167.811 7.71893 165.825 7.61549 163.879 7.53384L148.257 6.83764C137.736 6.36372 126.851 5.87468 116.149 5.46004C113.712 5.42436 111.349 4.67311 109.393 3.31215C105.13 0.393657 101.032 0.467755 96.8793 3.5414C95.1103 4.75537 93.5933 6.2615 92.402 7.98568C90.3209 11.141 88.5648 14.4744 87.1574 17.9406C83.8853 26.6278 82.5002 35.8396 83.0836 45.0352C83.2973 48.6571 83.3686 56.753 79.7219 58.1823C66.3614 63.3672 52.5657 63.8783 38.4458 65.6561C36.0728 65.9597 33.6443 66.3523 31.2555 66.7448C25.1171 67.7447 18.6545 68.9224 12.9037 71.1891C7.1529 73.4556 -1.5089 78.5957 0.626884 85.5953C2.43043 91.5209 10.76 91.3434 15.9491 91.8173C26.2897 92.6795 36.6732 93.0083 47.0525 92.8023C55.121 92.6765 63.4424 91.0246 71.4792 92.3432C78.1714 93.4468 110.24 98.5576 112.122 88.4397C112.866 84.4917 108.515 85.0993 107.645 82.3883C106.364 78.4109 113.277 74.4999 116.441 73.3518C120.642 71.8705 125.396 71.3666 129.77 70.4929C153.77 65.7226 172.083 62.1155 189.145 58.812C191.146 58.4194 192.262 57.5529 193.25 55.6046C197.095 48.1608 198.582 39.7909 197.783 30.0807ZM91.6109 45.3981C91.4775 45.4885 91.3169 45.5378 91.1521 45.539C91.0257 45.5393 90.901 45.5115 90.7884 45.4573C90.6592 45.3947 90.5512 45.3001 90.476 45.184C90.4006 45.0675 90.3607 44.9341 90.361 44.7983C90.361 43.4353 90.3613 42.1539 90.3137 40.9317C90.2663 38.4133 90.2267 36.0283 90.4087 33.695C90.8437 28.1175 91.6821 21.5847 94.6328 15.4222C96.0396 12.5715 97.8573 9.91461 100.036 7.52658C100.422 7.01698 100.931 6.60022 101.522 6.31049C102.114 6.02076 102.77 5.86652 103.437 5.85986C104.742 5.90432 105.984 6.65254 107.028 8.00775C108.14 9.36871 108.947 10.9253 109.401 12.5854C110.691 18.4738 111.846 24.4811 112.969 30.2878L113.673 33.947C113.725 34.3341 113.668 34.7276 113.507 35.0878C113.507 35.1616 113.459 35.2208 113.443 35.2801C113.413 35.412 113.344 35.5332 113.245 35.6309C113.146 35.7289 113.021 35.7997 112.882 35.8357C111.569 36.1765 110.287 36.4578 109.037 36.7321C103.804 37.487 98.9221 39.663 94.9965 42.9907C93.9603 43.7982 92.8372 44.613 91.6109 45.4277V45.3981ZM107.772 75.1664C106.332 76.4923 104.718 77.7885 102.234 77.8254C102.128 77.8251 102.023 77.8046 101.925 77.7652C101.827 77.7256 101.738 77.6682 101.665 77.5959C101.59 77.5233 101.532 77.4374 101.494 77.3434C101.456 77.249 101.439 77.1486 101.444 77.0479C101.444 76.8256 101.444 76.6626 101.444 76.5368C101.409 76.3414 101.445 76.1412 101.543 75.9661C101.642 75.7909 101.798 75.6506 101.989 75.5662C107.527 73.6258 109.646 69.0409 111.316 64.5005C113.459 58.6861 115.579 52.4642 115.951 45.9461C116.041 42.9196 115.916 39.891 115.579 36.88C115.492 35.9246 115.405 34.9616 115.334 34.0063C114.836 27.34 114.242 21.4144 112.019 15.6297C111.155 13.5142 110.146 11.4534 108.998 9.45975C108.617 8.5104 108.065 7.6285 107.368 6.85245C106.136 5.93789 104.647 5.37718 103.081 5.23775C102.307 5.18815 101.531 5.28403 100.797 5.51932C100.064 5.75461 99.3881 6.1248 98.8095 6.60809C96.5313 8.24486 95.0361 10.6374 93.7865 13.0224C92.226 16.3725 90.8609 19.7997 89.6967 23.2886L87.3237 46.4055C87.3237 46.6018 87.2404 46.7902 87.0919 46.929C86.9437 47.0681 86.7424 47.1461 86.5326 47.1461C86.3229 47.1461 86.1215 47.0681 85.9733 46.929C85.8248 46.7902 85.7415 46.6018 85.7415 46.4055C84.5155 37.9098 85.3775 29.2807 88.3678 20.0368C88.8975 18.4535 89.5971 16.925 90.4561 15.4743C91.2946 13.8003 91.9671 12.067 92.7026 10.3486C94.2848 6.88965 97.8917 3.68233 102.029 3.28977C103.021 3.16003 104.027 3.16003 105.019 3.28977C105.923 3.542 106.774 3.93789 107.535 4.45989C108.458 4.94016 109.294 5.55531 110.01 6.28206C111.381 7.18271 112.472 8.40667 113.174 9.82993L113.53 10.4227C115.904 14.2742 117.486 18.8295 118.577 24.7475C120.95 37.6951 120.238 49.5236 116.346 60.923C114.82 65.3004 112.534 70.8186 107.787 75.1961L107.772 75.1664ZM142.696 62.8709C142.426 63.6993 141.911 64.4391 141.211 65.0055C140.511 65.5717 139.655 65.941 138.741 66.071C133.338 67.1226 127.99 68.2113 122.319 69.3669L115.991 70.6556H115.825C115.712 70.6556 115.601 70.6329 115.499 70.5894C115.397 70.5461 115.305 70.4829 115.231 70.4037C115.136 70.3051 115.071 70.1841 115.044 70.0538C115.016 69.9234 115.026 69.7885 115.073 69.663C123.774 46.2128 123.664 26.6586 114.63 8.13387C114.584 8.0383 114.56 7.93487 114.56 7.83023C114.56 7.72558 114.584 7.62215 114.63 7.52658C114.676 7.4298 114.743 7.3433 114.828 7.27314C114.913 7.20267 115.012 7.15035 115.12 7.1192C115.314 7.06235 115.504 6.99551 115.69 6.91899C116.241 6.67856 116.838 6.5476 117.446 6.53399L119.099 6.60052C124.344 6.80799 129.754 7.02272 135.07 7.45974C135.865 7.58949 136.625 7.86682 137.304 8.27511C137.983 8.68339 138.568 9.21447 139.025 9.83748C140.335 11.673 141.373 13.6663 142.11 15.7628C147.648 31.7026 148.249 45.8351 144.064 58.9674C143.629 60.2267 143.202 61.4861 142.696 62.9006V62.8709ZM159.307 62.0486C156.143 62.671 153.027 63.2708 149.815 63.9004L145.18 64.7896C145.127 64.7971 145.074 64.7971 145.021 64.7896C144.907 64.7908 144.793 64.7684 144.688 64.7246C144.584 64.6807 144.491 64.616 144.415 64.5349C144.34 64.4539 144.285 64.3583 144.253 64.2552C144.221 64.1521 144.213 64.0438 144.23 63.9376C144.57 61.9376 144.926 59.9748 145.282 58.012C146.073 53.5677 146.825 49.4495 147.339 45.213C148.019 39.6724 147.576 33.7767 145.947 26.6513C144.554 20.5407 142.98 14.563 139.081 8.6967C139.006 8.5845 138.964 8.45566 138.961 8.32319C138.957 8.19103 138.991 8.06007 139.06 7.94454C139.128 7.82871 139.229 7.73254 139.351 7.6654C139.473 7.59826 139.612 7.56318 139.753 7.56348H141.28C142.071 7.56348 142.727 7.56348 143.368 7.56348C144.808 7.63757 146.247 7.72649 147.679 7.8154C150.622 8.00775 153.659 8.2004 156.634 8.20797C160.067 8.20797 162.218 9.40047 163.832 12.178C169.828 22.4959 172.367 34.221 171.576 48.0274C171.458 49.2683 171.192 50.4932 170.785 51.679L170.658 52.1161C168.341 59.9304 167.811 60.3898 159.307 62.0786V62.0486ZM194.54 39.3615C194.421 40.2948 194.326 41.2281 194.223 42.1687C193.836 45.8723 193.432 49.7755 191.542 53.3458C190.901 54.5455 189.651 56.064 188.204 56.3901C183.9 57.3751 179.613 58.1826 175.072 59.027L170.247 59.9452H170.089C169.975 59.9452 169.862 59.9222 169.758 59.8774C169.654 59.8327 169.562 59.7674 169.488 59.686C169.397 59.585 169.336 59.4631 169.313 59.3328C169.289 59.2027 169.303 59.0687 169.353 58.9453C175.254 44.0057 173.593 29.066 163.974 10.4892C163.921 10.3846 163.895 10.2694 163.897 10.1532C163.901 10.0371 163.933 9.92338 163.991 9.82115C164.05 9.71863 164.133 9.63062 164.234 9.56409C164.336 9.49725 164.453 9.454 164.575 9.43736C164.971 9.38565 165.367 9.31881 165.707 9.25953C166.485 9.0941 167.281 9.01214 168.08 9.01547C170.833 9.12646 173.617 9.26709 176.338 9.40047C179.55 9.56348 182.872 9.72619 186.139 9.84474C187.149 9.82357 188.141 10.0976 188.978 10.6287C189.814 11.1594 190.453 11.921 190.806 12.8077L190.948 13.1113C191.265 13.774 191.529 14.4572 191.739 15.1558C193.773 22.2291 195.679 30.5694 194.54 39.3911V39.3615Z" fill="black"/>
<path d="M166.759 85.6325C159.642 84.2803 152.369 83.7825 145.117 84.1511C145.093 84.1551 145.069 84.1551 145.046 84.1511C142.942 84.0846 140.845 84.0994 138.717 84.2104C133.875 84.495 129.069 85.1888 124.36 86.2842C121.645 86.9112 119.023 87.849 116.553 89.0766C115.225 89.7404 114.183 90.8135 113.602 92.1137C112.186 96.0468 115.422 101.624 116.6 104.276C117.344 105.957 118.562 106.735 120.785 106.964C124.392 107.328 128.047 107.75 131.574 108.157C135.466 108.609 139.485 109.068 143.44 109.461C145.089 109.596 146.745 109.645 148.399 109.609C149.42 109.609 150.48 109.609 151.524 109.609C155.661 109.75 159.735 109.098 163.674 108.468C165.676 108.142 167.74 107.816 169.805 107.587C174.322 107.09 177.098 105.143 177.636 102.105C177.921 100.484 180.84 95.8542 180.515 93.7356C180.381 92.8543 179.463 91.8396 178.799 91.0987C175.635 87.5436 170.92 86.3731 166.759 85.6325ZM114.813 92.1212C117.621 89.0769 121.338 88.4176 124.621 87.8176L125.483 87.6546C139.122 85.1513 153.153 85.1888 166.775 87.7659L167.25 87.8548C170.256 88.4103 173.657 89.0324 175.951 91.7879C176.04 91.8902 176.097 92.0126 176.118 92.143C176.139 92.273 176.122 92.4064 176.07 92.5286C175.946 92.9692 175.726 93.3809 175.422 93.7368C175.118 94.0928 174.738 94.3852 174.306 94.5951C174.102 94.6638 173.889 94.7061 173.673 94.7209C173.089 94.7255 172.515 94.5821 172.012 94.306C165.177 90.9432 157.528 90.7285 150.124 90.5213H149.333C140.481 90.2618 133.251 90.9139 126.559 92.5731C124.963 92.9813 123.421 93.5578 121.963 94.2912L121.805 94.3728C118.704 95.9059 118.301 95.7135 114.923 93.2396C114.84 93.177 114.771 93.0996 114.721 93.0119C114.671 92.9242 114.64 92.8277 114.631 92.7285C114.609 92.6187 114.614 92.5056 114.645 92.3976C114.677 92.29 114.734 92.1905 114.813 92.1061V92.1212ZM169.615 95.6543C169.603 95.8031 169.542 95.9452 169.442 96.0616C169.342 96.1781 169.206 96.2631 169.053 96.306C163.194 97.8986 157.158 98.8579 151.065 99.1649C142.364 99.6243 133.006 98.8985 122.588 97.0098C122.435 96.982 122.294 96.9121 122.182 96.8093C122.071 96.7064 121.995 96.5752 121.963 96.4318C121.936 96.2924 121.952 96.1481 122.01 96.0169C122.067 95.8856 122.164 95.7725 122.288 95.6912C130.198 90.5954 158.675 90.1436 169.22 94.9505C169.348 95.0194 169.452 95.1205 169.522 95.242C169.592 95.3639 169.624 95.5015 169.615 95.6394V95.6543ZM168.318 106.024C163.613 106.821 158.856 107.316 154.079 107.505C147.27 107.743 140.452 107.513 133.679 106.817C132.437 106.698 131.195 106.594 129.961 106.49C128.007 106.327 126.006 106.157 124.012 105.92C119.353 105.357 117.02 105.616 116.956 101.691C116.956 101.52 115.161 97.543 115.374 97.402C115.479 97.3346 115.601 97.2919 115.727 97.2777C115.854 97.2635 115.983 97.2783 116.102 97.3207C124.693 100.35 134.121 101.572 146.667 101.276C156.555 101.046 167.052 100.232 176.877 95.8469C176.994 95.7958 177.122 95.7725 177.251 95.7789C177.38 95.7852 177.506 95.8209 177.617 95.8829C177.727 95.9449 177.82 96.0317 177.887 96.1351C177.954 96.2386 177.993 96.3556 178 96.4763C178.387 103.031 174.053 105.046 168.318 106.017V106.024Z" fill="black"/>
<path d="M159.829 31.4803C158.919 31.125 157.931 30.9774 156.948 31.0497C155.965 31.1217 155.014 31.4117 154.173 31.8953C154.189 32.015 154.213 32.1339 154.245 32.2509C155.497 33.9591 156.905 35.5626 158.453 37.043C160.976 39.0875 163.705 41.1096 164.781 43.8502C165.022 44.1617 165.244 44.4856 165.446 44.8204L165.58 44.939C166.538 44.0214 167.101 42.8059 167.162 41.5242C167.273 37.6727 163.674 32.7321 159.829 31.4803Z" fill="black"/>
<path d="M162.306 41.6576C161.768 41.1909 161.214 40.7318 160.684 40.2504C159.672 39.3319 158.707 38.3613 157.718 37.4132C156.641 36.4351 155.645 35.383 154.736 34.2655C154.26 33.6748 153.852 33.0394 153.518 32.3695C152.955 32.9072 152.513 33.546 152.219 34.247C151.926 34.9484 151.786 35.6978 151.809 36.4506C151.746 40.8504 155.543 45.4574 160.107 46.5313C161.038 46.7382 162.01 46.7206 162.931 46.4796C163.853 46.2386 164.693 45.7825 165.375 45.1537C164.277 44.0477 163.252 42.8803 162.306 41.6576Z" fill="black"/>
</svg>
