<svg width="232" height="112" viewBox="0 0 232 112" fill="none" xmlns="http://www.w3.org/2000/svg">
<path fill-rule="evenodd" clip-rule="evenodd" d="M160.626 55.8217C162.948 56.0306 163.557 56.501 163.801 58.8312C164.049 61.207 164.269 63.6146 164.165 65.9933C163.893 72.1603 163.389 80.1735 162.906 87.8617V87.866V87.8668C162.568 93.258 162.239 98.4897 162.007 102.812C161.763 107.371 161.836 108.583 161.974 108.621C161.525 109.573 160.685 110.115 159.296 110.157C154.49 110.304 149.684 110.549 144.887 110.876C143.114 110.997 142.374 110.084 142.077 108.643C141.917 107.866 141.876 107.065 141.834 106.264C141.817 105.919 141.799 105.575 141.772 105.233C141.5 101.822 140.933 92.9139 140.754 89.4977C140.671 87.9077 140.69 86.3125 140.711 84.577V84.5753C140.72 83.7581 140.731 82.91 140.731 82.0167C138.388 82.1358 136.08 82.2527 133.771 82.3701C130.275 82.5475 126.779 82.7253 123.169 82.9082C123.137 83.5123 123.107 84.1027 123.077 84.6838C123.008 86.0156 122.942 87.2972 122.872 88.5785C122.743 90.9508 122.325 93.3784 121.908 95.8043C121.504 98.1583 121.099 100.511 120.957 102.812C120.916 103.49 120.736 104.028 120.544 104.6C120.444 104.901 120.34 105.212 120.251 105.558C120.136 106.005 120.086 106.464 120.038 106.901C119.901 108.149 119.783 109.223 118.244 109.368C115.613 109.617 113.457 109.489 111.304 109.362C109.118 109.232 106.936 109.103 104.265 109.368C99.9626 109.797 95.7316 109.922 91.4941 110.049C87.7438 110.161 83.9883 110.273 80.1748 110.594C79.3299 110.666 77.8202 110.637 76.5715 110.614C76.0354 110.603 75.5476 110.594 75.1808 110.594C74.9654 109.858 74.7705 109.424 74.6277 109.106C74.3522 108.492 74.2694 108.308 74.6038 107.205C75.0187 105.834 76.2137 105.384 77.5187 105.194C79.06 104.969 80.6008 104.742 82.1416 104.515C86.0784 103.936 90.0147 103.356 93.9562 102.812C97.1683 102.369 100.386 101.964 103.673 101.551L103.674 101.55L103.681 101.549C105.142 101.366 106.616 101.18 108.109 100.989C108.109 98.2387 108.147 95.3832 108.185 92.5349C108.222 89.701 108.26 86.8753 108.26 84.1678C106.58 84.3503 104.755 84.4757 102.933 84.6008C101.646 84.6893 100.361 84.7773 99.1305 84.8854C91.8882 85.5209 84.6493 86.1964 77.4108 86.8719L77.4065 86.8723C73.7227 87.216 70.0384 87.5597 66.3541 87.8983L66.1102 87.9209C64.1105 88.1046 62.1082 88.2888 60.1029 88.3743C56.321 88.5355 56.0566 88.2603 56.408 84.6336C56.6366 82.2757 56.8839 79.92 57.1313 77.5643V77.5638C57.3509 75.4714 57.5705 73.379 57.777 71.2853C58.4077 64.8903 59.0329 58.4948 59.6585 52.0997V52.0967L59.6594 52.0903C60.2279 46.2734 60.7968 40.456 61.3695 34.6394C61.6037 32.259 61.8421 29.8769 62.1521 27.5059C62.4613 25.137 62.9752 24.5329 65.192 24.2216C67.274 23.9289 69.3556 23.6328 71.4372 23.3364C78.7708 22.2921 86.1044 21.2478 93.458 20.3758C106.222 18.8618 119.006 17.4964 131.797 16.2279C138.752 15.5388 145.721 14.9939 152.691 14.4494C154.893 14.2772 157.095 14.1053 159.296 13.9284C161.522 13.7497 162.187 14.4265 162.007 16.929C161.739 20.6633 161.362 24.3921 160.933 28.112C160.297 33.6389 159.634 39.1628 158.972 44.6863V44.6871L158.968 44.7148C158.616 47.6494 158.265 50.5841 157.916 53.5192C157.869 53.9152 157.848 54.3138 157.824 54.7804L157.824 54.7808C157.812 55.0263 157.798 55.29 157.779 55.5822C158.109 55.6099 158.426 55.6363 158.734 55.6614L158.736 55.6618H158.737C159.393 55.7158 160.01 55.7664 160.626 55.8217ZM162.288 107.6C162.219 107.98 162.116 108.321 161.974 108.621C162.154 108.672 162.444 106.737 162.288 107.6ZM41.6547 108.539C40.983 104.889 39.4635 103.021 36.9532 102.462C29.7949 100.868 22.5671 100.092 15.2611 101.356C14.129 101.553 12.974 102.072 11.9858 102.729C10.5902 103.657 10.5119 105.31 10.8083 106.845C11.0707 108.203 12.076 108.168 13.0273 108.136C13.1654 108.131 13.3024 108.126 13.4358 108.126C15.4373 108.12 17.4388 108.108 19.4404 108.096H19.4469C23.76 108.07 28.0728 108.044 32.3849 108.079C34.4085 108.095 36.43 108.222 38.5653 108.356H38.5662C39.5667 108.419 40.5923 108.483 41.6547 108.539ZM202.633 107.267C202.74 107.475 202.907 107.8 203.052 108.335H187.444C187.659 107.352 187.692 106.801 187.728 106.197C187.738 106.014 187.749 105.826 187.766 105.619C188.037 102.259 186.862 99.4 185.089 96.6627C182.906 93.2937 180.76 89.8933 178.751 86.4163C176.512 82.542 175.578 78.3499 176.463 73.8588C177.014 71.068 178.326 68.7012 180.367 66.7449C181.251 65.8975 182.961 64.279 184.028 64.142C184.028 64.142 185.196 65.2199 185.899 65.4041C189.252 66.28 191.957 66.7921 195.41 65.8703C195.628 65.812 195.85 65.7597 196.072 65.707C196.667 65.5658 197.264 65.4245 197.806 65.1685C198.163 65 198.496 64.8698 198.824 64.7422C199.498 64.4789 200.145 64.2263 200.911 63.6703C200.911 63.6703 202.33 64.322 203.054 64.7673C203.31 64.9256 203.569 65.0813 203.828 65.2365C206.036 66.5637 208.235 67.8853 208.918 70.5971C209.394 72.4921 209.518 74.5935 209.278 76.5357C208.844 80.0561 207.36 83.2834 205.423 86.207C201.112 92.7165 199.768 99.5829 202.541 107.075C202.559 107.125 202.592 107.188 202.633 107.267Z" fill="white"/>
<path fill-rule="evenodd" clip-rule="evenodd" d="M188.901 52.0593C189.327 52.2907 190.062 53.0126 190.062 53.0126C189.974 52.591 189.834 51.223 189.695 49.855C189.555 48.487 189.415 47.1186 189.327 46.6975C189.198 46.7247 188.861 47.0233 188.523 47.3215C188.186 47.6201 187.848 47.9187 187.719 47.9459C187.793 48.3526 188.052 49.1774 188.31 50.0022C188.569 50.827 188.827 51.6522 188.901 52.0593ZM185.189 57.7678C185.483 58.9856 186.147 60.967 186.147 60.967C186.256 60.939 186.375 60.9079 186.504 60.8747C187.337 60.6586 188.555 60.343 189.568 60.1099C189.568 60.1099 189.096 59.1247 188.518 58.4288C188.272 58.1324 186.366 57.9069 185.418 57.795C185.334 57.7848 185.257 57.7759 185.189 57.7678ZM187.508 34.1779C188.254 34.4743 189.114 34.234 189.627 33.6202C189.902 33.2901 189.694 32.2126 189.608 32.005C189.274 31.2019 188.864 31.0509 188.049 30.8187C186.983 30.5145 186.406 31.4606 186.452 32.5291C186.487 33.325 186.785 33.8894 187.508 34.1779ZM178.369 44.6433C178.55 44.2949 178.514 43.87 178.271 43.5612C178.156 43.4165 178.059 43.2979 177.95 43.1907C176.905 42.1638 175.831 42.3148 175.117 43.4531C174.772 44.0014 174.64 45.1844 174.985 45.5613C175.922 46.5839 177.049 46.1355 177.95 45.2716C178.118 45.1104 178.236 44.8977 178.369 44.6433ZM210.464 21.3133C210.791 20.9691 210.93 20.4889 210.833 20.0252C210.564 18.7512 209.676 17.8231 208.913 17.9316C207.557 18.1242 206.95 19.0465 206.968 20.3051C206.983 21.366 208.295 22.5298 209.248 22.2121C209.732 22.05 210.138 21.6557 210.464 21.3133ZM202.937 107.83C202.793 107.306 202.625 106.988 202.518 106.784C202.477 106.707 202.444 106.645 202.426 106.596C199.649 99.2562 200.995 92.5298 205.313 86.1526C207.253 83.2885 208.739 80.1271 209.174 76.6786C209.414 74.7759 209.29 72.7171 208.813 70.8604C208.13 68.2039 205.927 66.9095 203.716 65.6091L203.714 65.6087C203.455 65.4564 203.197 65.3041 202.94 65.1497C202.215 64.7133 200.793 64.0748 200.793 64.0748C200.026 64.6193 199.378 64.8669 198.702 65.1246C198.375 65.2497 198.041 65.3773 197.684 65.5424C197.14 65.7933 196.543 65.9316 195.946 66.0698C195.724 66.1213 195.502 66.1728 195.283 66.2302C191.824 67.1328 189.115 66.6313 185.757 65.7733C185.053 65.5926 183.883 64.5368 183.883 64.5368C182.814 64.6708 181.101 66.2566 180.215 67.0865C178.171 69.0032 176.857 71.3219 176.306 74.0558C175.419 78.4554 176.355 82.5624 178.597 86.358C180.61 89.7644 182.759 93.0955 184.945 96.396C186.721 99.0775 187.898 101.878 187.627 105.17C187.61 105.372 187.599 105.556 187.589 105.735L187.588 105.736C187.553 106.328 187.52 106.868 187.304 107.83H202.937ZM179.804 28.8271C179.797 28.8296 179.79 28.8322 179.783 28.8352C181.04 34.582 183.313 40.1076 186.466 45.0832C186.752 42.8185 187.56 40.6214 188.81 38.7085C188.381 37.9071 188.107 36.5093 188.107 36.5093C185.832 36.2022 185.085 35.368 184.481 34.405C183.04 32.108 184.705 28.5765 187.401 28.2077C190.097 27.8394 192.657 30.794 191.892 33.3926C191.857 33.5113 191.829 33.6351 191.8 33.764C191.649 34.442 191.468 35.2485 190.062 36.0874C190.062 36.0874 190.232 36.9411 190.303 37.7144C191.198 37.067 192.143 36.3987 193.241 36.2549C194.338 36.1107 195.617 36.6935 195.846 37.7706C195.95 38.2589 195.829 38.7651 195.674 39.2398C195.11 40.9715 194.092 42.5543 192.748 43.7879C192.683 43.8475 192.618 43.9061 192.552 43.9653H192.551C192.173 44.3051 191.789 44.6489 191.571 45.1032C191.281 45.7055 191.325 46.4073 191.376 47.0735C191.699 51.3128 192.024 55.5525 192.347 59.7926L195.3 59.9032C195.07 48.2905 197.676 36.6314 202.83 26.2102C202.883 26.1043 202.936 25.9979 202.989 25.8916C203.68 24.501 204.385 23.0841 204.531 21.5451C204.566 21.175 204.569 20.8024 204.571 20.4302C204.574 19.8764 204.578 19.3234 204.689 18.7827C205.215 16.2441 208.406 14.6919 210.786 15.7468C213.165 16.8018 214.17 20.0771 212.876 22.3278C211.584 24.5784 208.353 25.4109 206.069 24.1624C201.14 33.5721 198.486 44.9479 198.523 55.5584C198.977 55.1569 199.541 54.6668 200.106 54.1768C200.67 53.6863 201.234 53.1959 201.689 52.7948C200.768 50.2838 200.062 47.1501 200.358 44.4944C200.486 43.3379 200.964 41.9558 202.119 41.7678C203.732 41.5058 204.478 43.7194 204.39 45.3426C204.281 47.3453 203.934 49.7908 203.281 51.6884C204.415 50.8444 205.457 49.8665 206.498 48.8886C207.539 47.9115 208.58 46.934 209.712 46.0909C206.883 43.4697 205.521 39.7456 205.482 35.8998C205.468 34.5028 205.829 32.8652 207.11 32.2943C208.342 31.7451 209.842 32.5453 210.526 33.7031C211.212 34.8614 211.29 36.2635 211.35 37.6055C211.46 39.9995 211.568 42.3939 211.677 44.7879V44.7888C211.988 44.4532 212.375 44.0606 212.792 43.6369C214.136 42.2714 215.798 40.5823 216.308 39.4231C216.308 39.4231 215.058 35.3846 215.023 33.6746L215.022 33.6402C214.954 30.301 214.937 29.4545 215.713 26.1889C215.934 25.2629 216.703 23.9931 217.645 23.6533C219.643 22.9322 220.453 27.1111 220.536 28.3064C220.598 29.1899 220.461 30.1432 220.301 31.0114C219.918 33.1106 219.127 35.1686 218 36.9845C220.202 34.8027 225.411 30.0109 228.438 29.3086C229.171 29.1389 230.017 29.0415 230.608 29.5034C231.672 30.3354 230.981 32.0463 230.083 33.0536C228.94 34.3361 227.564 35.4114 226.041 36.2137C223.746 37.4213 217.65 40.3526 217.65 40.3526C217.353 40.6172 216.833 41.2544 216.156 42.0834C215.024 43.4701 213.454 45.3937 211.755 47.0088C212.19 46.9927 213.507 46.5694 214.03 46.3746C214.29 46.278 214.549 46.1819 214.809 46.0862L214.81 46.0858C215.248 45.9237 215.686 45.7621 216.123 45.5962C216.233 45.5545 216.343 45.5124 216.453 45.4707L216.599 45.4145C218.02 44.8726 219.44 44.3311 220.894 43.8811C221.594 43.6641 222.373 43.4714 223.039 43.7781C224.602 44.5008 224.747 46.9182 223.833 48.1616C222.737 49.6546 220.727 50.1621 218.87 50.251C216.797 50.3501 214.707 50.0562 212.743 49.3892C211.841 49.0825 210.031 48.6593 210.031 48.6593C209.327 48.9923 208.667 49.5632 208.116 50.043C206.59 51.3689 205.064 52.6948 203.538 54.0207L201.059 56.1756L198.961 57.9988C201.109 56.299 203.684 55.1364 206.385 54.6451C208.005 54.3503 210.229 54.7243 210.428 56.3505C210.602 57.7661 209.032 58.7177 207.679 59.1907C204.906 60.1597 202.005 60.7654 199.073 60.9849C203.714 62.5775 208.795 64.538 211.009 68.8969C213.044 72.9039 211.991 77.794 210.121 81.8797C209.452 83.3404 208.684 84.7599 207.918 86.1785C206.539 88.7269 205.163 91.2719 204.367 94.0454C203.191 98.1443 203.374 102.618 204.881 106.608C205.267 107.631 205.646 108.999 204.755 109.637C204.389 109.9 203.91 109.934 203.459 109.957C202.555 110.003 201.646 110.054 200.735 110.105C196.373 110.35 191.942 110.598 187.614 110.374C185.764 110.278 185.112 109.363 185.132 107.577C185.161 105 184.949 102.573 183.989 100.147C182.985 97.6138 181.401 95.3832 179.815 93.15C179.092 92.1316 178.368 91.1128 177.699 90.0647C174.706 85.3771 172.76 79.7464 173.707 74.2736C174.645 68.8564 178.544 64.0404 183.665 61.976C183.652 59.964 182.702 57.9771 181.14 56.698C180.827 56.4402 180.486 56.2071 180.147 55.974C179.403 55.4636 178.661 54.9544 178.199 54.1951C177.526 53.0891 178.028 51.1971 179.327 51.2251L179.02 50.4025L178.664 49.4454L178.3 48.4691C176.01 49.4666 172.995 48.0961 172.255 45.7204C171.515 43.3442 173.221 40.5181 175.677 40.0514C178.133 39.5856 180.766 41.5879 180.957 44.0682C181.021 44.899 180.867 45.7846 180.714 46.6562C180.438 48.2373 180.17 49.7742 181.227 50.8597C182.956 50.7887 184.695 50.9716 186.37 51.4C184.898 47.3342 183.189 43.3536 181.252 39.4857C180.697 38.3763 178.962 35.0043 178.962 35.0043C178.962 35.0043 175.925 34.9414 174.222 34.3625C171.716 33.5104 169.428 32.0289 167.632 30.093C166.434 28.8037 165.628 26.4097 167.179 25.5717C167.858 25.2046 168.695 25.3692 169.435 25.5891C172.588 26.5271 176.269 28.6918 178.483 31.1126C177.954 29.3269 177.168 26.1234 177.066 23.6201C176.98 21.5081 177.271 19.0954 177.271 19.0954C177.19 18.9137 176.564 18.4314 175.744 17.7997C174.311 16.6941 172.284 15.1317 171.544 13.9258C170.119 11.6058 169.272 8.93787 169.1 6.22442C169.031 5.13716 169.164 3.86104 170.088 3.27445C171.331 2.48496 172.565 3.7211 173.671 4.82877C173.842 4.99977 174.009 5.16821 174.173 5.32518C177.219 8.23558 179.371 10.4263 179.012 17.5576C179.841 13.7799 181.327 7.70174 183.755 4.68116C184.448 3.81808 185.242 2.96988 186.286 2.59003C187.329 2.20932 188.676 2.44625 189.255 3.3893C189.52 3.82063 189.597 4.34001 189.611 4.84536C189.721 8.63118 186.957 13.1793 184.338 15.928C182.903 17.4339 179.575 20.5123 179.575 20.5123C179.575 20.5123 179.298 22.7315 179.649 24.407C181.335 22.1011 183.357 20.0384 185.631 18.3025C186.325 17.7729 187.167 17.2467 188.016 17.456C189.751 17.8818 189.426 20.4753 188.464 21.9722C186.441 25.1161 183.35 27.5658 179.816 28.8232C179.812 28.8245 179.809 28.8258 179.804 28.8271ZM41.6001 107.207C40.8708 103.988 39.3513 102.354 36.8927 101.89C29.8815 100.567 22.8196 99.9674 15.7229 101.173C14.6233 101.361 13.5079 101.834 12.558 102.427C11.2165 103.264 11.174 104.727 11.4942 106.08C11.7778 107.278 12.7572 107.235 13.6838 107.195C13.8184 107.189 13.9519 107.183 14.0819 107.181C16.035 107.152 17.9881 107.117 19.9411 107.083C24.1453 107.008 28.3492 106.933 32.5538 106.912C34.5271 106.901 36.5004 106.989 38.5849 107.082H38.5862C39.5628 107.126 40.5633 107.171 41.6001 107.207ZM8.7888 107.192C8.79673 106.965 8.8039 106.748 8.81085 106.538V106.537C8.82514 106.104 8.83857 105.697 8.85593 105.29C8.99905 101.889 10.2709 99.9853 13.5604 99.183C16.175 98.5458 18.9173 98.0894 21.5946 98.1273C24.6423 98.1702 27.6869 98.4305 30.7319 98.6913C32.158 98.8134 33.5841 98.9355 35.0111 99.0354C39.3944 99.3421 42.4952 101.369 44.0182 105.592C44.1325 105.908 44.3154 106.2 44.5295 106.54C44.6387 106.714 44.756 106.901 44.8762 107.109C45.8473 107.143 46.8222 107.177 47.7993 107.209C50.4438 107.299 53.1071 107.389 55.7691 107.499C55.851 107.502 55.9333 107.505 56.0156 107.508C56.8746 107.542 57.7578 107.577 58.5493 107.844C58.5992 107.86 58.6478 107.883 58.6952 107.91C59.6061 108.436 59.1873 109.861 58.1386 109.942C57.4337 109.996 56.8532 110.033 56.2724 110.023C52.2619 109.961 48.2509 109.886 44.2404 109.812C35.78 109.654 27.3193 109.497 18.8581 109.452C14.7098 109.429 10.5675 109.663 6.42671 109.919C4.99509 110.009 3.552 109.982 2.11684 109.911C2.04374 109.907 1.96898 109.904 1.89337 109.901H1.89226C1.01757 109.868 0.0223151 109.829 0.00645044 108.634C-0.0104378 107.398 0.927074 107.422 1.7836 107.443C1.8865 107.445 1.9886 107.448 2.08737 107.448C2.6417 107.45 3.19598 107.459 3.75014 107.468C4.65775 107.483 5.56516 107.497 6.47239 107.479C6.95391 107.469 7.43403 107.394 7.96789 107.312C8.22676 107.272 8.49838 107.229 8.7888 107.192ZM146.55 87.3164C150.831 88.3866 156.084 87.8655 158.595 86.1959C154.505 85.1176 150.716 85.184 146.55 87.3164ZM108.156 102.166V107.828C107.056 107.879 105.475 107.956 103.59 108.048C95.7955 108.431 82.8104 109.067 77.2428 109.067C76.8573 106.934 77.6808 106.244 79.141 106.011C80.1488 105.85 81.154 105.675 82.1596 105.499C83.9252 105.19 85.6908 104.881 87.467 104.655C92.2981 104.04 97.1342 103.47 102.051 102.89C104.071 102.651 106.104 102.412 108.156 102.166ZM61.0446 86.056C61.0066 86.3002 59.2581 86.056 59.2581 86.056C59.3489 85.0819 59.4304 84.1916 59.5072 83.3574C59.6568 81.7227 59.7869 80.3024 59.9285 78.8829C61.5952 62.1202 63.2631 45.3571 64.9412 28.5961C65.1549 26.4624 65.1856 26.4607 68.0536 26.2714L68.0732 26.2702C66.8877 34.9707 65.9661 43.887 65.0432 52.8169C63.887 64.008 62.7283 75.2205 61.0446 86.056ZM107.437 45.765C111.814 44.6272 115.205 46.8561 116.096 51.5778C115.625 51.6416 115.176 51.6964 114.742 51.7492C113.837 51.8598 113.001 51.9619 112.175 52.1184C109.71 52.5859 109.291 53.1334 109.318 55.6984C109.327 56.5785 109.345 57.4586 109.363 58.3387C109.383 59.3285 109.404 60.3183 109.411 61.3086C109.414 61.6532 109.365 61.9981 109.32 62.3257C109.299 62.4712 109.28 62.6128 109.265 62.7498C102.279 64.2297 98.072 59.7343 100.041 53.0951C101.163 49.3144 103.576 46.7681 107.437 45.765ZM157.534 58.1255H161.711C162.522 66.8134 162.154 75.391 161.469 84.3132C155.38 82.4361 149.767 82.4595 144.055 85.7012L143.917 84.1431C143.836 83.2239 143.76 82.3625 143.678 81.4254C144.621 81.2812 145.539 81.1446 146.438 81.0111C148.441 80.7133 150.351 80.4296 152.255 80.1025C154.965 79.6371 154.972 79.5725 155.236 77.1568C155.247 77.0555 155.258 76.9505 155.271 76.8407C155.759 72.447 156.304 68.0597 156.855 63.6214C157.082 61.7991 157.309 59.9687 157.534 58.1255ZM143.988 88.9524C149.456 91.2868 155.414 90.9755 161.156 88.4156C160.983 90.7479 160.818 94.4784 160.654 98.1902C160.492 101.868 160.33 105.527 160.161 107.788C154.829 108.063 149.955 108.314 144.664 108.587C144.552 106.544 144.442 102.749 144.332 98.9197C144.22 95.0314 144.107 91.109 143.988 88.9524ZM119.65 107.479C119.65 107.484 110.669 107.939 110.669 107.939C110.877 99.1273 111.124 90.1524 111.371 81.185C111.617 72.276 111.862 63.3742 112.068 54.6477C115.255 54.3261 118.406 54.0075 121.983 53.6464C121.915 55.9948 121.849 58.3723 121.782 60.7709C121.355 76.1644 120.903 92.4375 119.65 107.479ZM67.1303 55.7273C68.2797 45.7097 69.4286 35.6969 70.5894 25.792C84.6143 22.9803 152.166 15.7983 159.779 16.3211C159.128 29.0934 157.375 41.7329 155.615 54.4171C154.555 62.0628 153.492 69.7246 152.667 77.4413C143.323 79.2811 134.07 79.6227 124.604 79.9719L123.927 79.997C123.905 79.732 123.877 79.4801 123.851 79.2381C123.797 78.746 123.747 78.2917 123.76 77.8395C123.854 74.3501 123.955 70.8608 124.057 67.3715C124.186 62.945 124.315 58.519 124.429 54.0926C124.514 50.7632 124.474 50.767 121.29 51.0805L121.265 51.0831C120.996 51.1094 120.73 51.1537 120.46 51.1988C120.014 51.2732 119.556 51.3498 119.053 51.3498C118.884 50.9206 118.698 50.3871 118.531 49.9082C118.461 49.7061 118.394 49.5139 118.333 49.3428C116.787 45.0177 113.273 42.7211 108.68 43.0431C101.267 43.5633 95.654 51.2787 97.4511 58.4773C98.6205 63.1645 101.546 65.519 106.401 65.667C106.95 65.6836 107.5 65.6797 108.154 65.6755C108.492 65.6729 108.858 65.6704 109.266 65.6704C109.546 69.8246 109.263 73.9026 108.986 77.9182C108.906 79.0654 108.827 80.2071 108.762 81.3446C98.98 82.0473 89.3439 83.0614 79.6148 84.0848C74.3385 84.6399 69.0349 85.198 63.6661 85.711C64.8295 75.7798 65.9806 65.7512 67.1303 55.7273ZM159.163 55.2904C158.854 55.2649 158.536 55.239 158.205 55.2113C158.224 54.9187 158.238 54.6541 158.25 54.4086C158.275 53.9411 158.296 53.5421 158.343 53.1453C158.692 50.197 159.045 47.2496 159.398 44.3018C160.061 38.7706 160.723 33.2395 161.359 27.7054C161.788 23.9804 162.165 20.2469 162.434 16.5074C162.613 14.002 161.949 13.3243 159.723 13.503C157.521 13.6799 155.319 13.8522 153.117 14.0249C146.148 14.5702 139.178 15.1156 132.223 15.8055C119.433 17.0757 106.648 18.4429 93.8845 19.9589C86.5309 20.8322 79.1969 21.8777 71.8637 22.9233C69.7821 23.2198 67.7005 23.5167 65.6185 23.8094C63.4017 24.1216 62.8878 24.726 62.5786 27.0984C62.2686 29.4724 62.0302 31.8574 61.796 34.2408C61.2233 40.0663 60.6544 45.8922 60.0855 51.7177C59.4598 58.1234 58.8346 64.5291 58.2034 70.9344C57.997 73.0311 57.7774 75.126 57.5578 77.2214C57.3104 79.5801 57.0631 81.9392 56.8345 84.3001C56.4826 87.9315 56.7475 88.2071 60.5294 88.0455C62.5347 87.96 64.5365 87.7758 66.5363 87.5916L66.7806 87.5691C70.4649 87.23 74.1488 86.8859 77.8326 86.5418C85.0728 85.8654 92.313 85.1887 99.557 84.5523C100.787 84.4438 102.072 84.3558 103.359 84.2673C105.181 84.1418 107.007 84.0163 108.686 83.8339C108.686 86.5448 108.649 89.0889 108.611 91.6403C108.573 94.2049 108.536 96.7763 108.536 99.5301C107.04 99.722 105.563 99.9079 104.101 100.092C100.813 100.506 97.5957 100.911 94.3827 101.355C90.4412 101.9 86.5045 102.481 82.5681 103.061C81.0269 103.288 79.486 103.515 77.9452 103.74C76.6402 103.931 75.4452 104.381 75.0303 105.754C74.5232 107.431 74.1402 109.151 74.7718 111.312C75.3458 111.312 75.9195 111.308 76.4926 111.305C77.137 111.301 77.7806 111.297 78.4228 111.298C83.0526 111.306 87.3655 111.12 91.6946 110.934C95.1076 110.788 98.5309 110.64 102.128 110.587C104.588 110.551 106.823 110.603 108.943 110.652C112.344 110.73 115.449 110.802 118.715 110.493C120.794 110.296 121.669 109.201 122.11 107.475C122.367 106.472 122.511 105.425 122.574 104.39C122.731 101.837 122.856 98.6594 122.979 95.5376C123.082 92.9377 123.183 90.377 123.299 88.2501C123.369 86.9697 123.434 85.6885 123.503 84.3575C123.533 83.7734 123.563 83.1801 123.595 82.5726C127.212 82.3889 130.714 82.2106 134.217 82.0328C136.519 81.9154 138.821 81.7984 141.157 81.6798C141.157 82.5748 141.147 83.4242 141.137 84.2426C141.117 85.9807 141.097 87.578 141.181 89.1706C141.226 90.0337 141.287 91.2877 141.358 92.7352C141.567 97.023 141.859 103.008 142.062 105.562C142.09 105.905 142.108 106.25 142.125 106.595C142.167 107.397 142.208 108.199 142.368 108.977C142.665 110.42 143.405 111.334 145.177 111.213C149.975 110.885 154.78 110.64 159.587 110.493C161.414 110.437 162.292 109.517 162.579 107.933C162.855 106.404 163.003 104.843 163.086 103.289C163.422 97.0107 163.729 88.5376 164.02 80.493C164.216 75.0801 164.405 69.8612 164.591 65.6355C164.695 63.2538 164.476 60.8428 164.227 58.4641C163.984 56.131 163.374 55.6601 161.052 55.4508C160.436 55.3955 159.819 55.3444 159.163 55.2904Z" fill="black"/>
</svg>
