<svg width="151" height="147" viewBox="0 0 151 147" fill="none" xmlns="http://www.w3.org/2000/svg">
<path fill-rule="evenodd" clip-rule="evenodd" d="M145.711 11.4749C145.634 11.4656 145.563 11.4562 145.495 11.4472C145.508 9.66991 145.523 7.93641 145.469 6.20677C145.399 3.95286 144.273 2.8148 141.999 2.59292C140.953 2.49115 139.893 2.50371 138.839 2.51112C123.492 2.619 108.145 2.75393 92.798 2.84314C80.4965 2.91431 68.1942 2.91592 55.8923 2.97871C43.1812 3.04376 30.4701 3.14649 17.7591 3.23022C14.1271 3.25405 10.4951 3.25051 6.86335 3.29656C4.48153 3.32683 3.5471 4.05269 3.23423 6.4425C2.97806 8.39981 3.02156 10.3967 2.92426 12.5511C2.96292 12.5553 2.9974 12.5595 3.03445 12.5637C3.03542 12.8036 3.03767 13.0419 3.04251 13.2796C3.10695 16.5334 3.19878 19.7866 3.25098 23.0404C3.44818 35.3342 3.63152 47.6288 3.82485 59.9227C3.98274 69.9872 4.15029 80.0514 4.30946 90.1159C4.55242 105.483 4.79085 120.85 5.03413 136.217C5.06506 138.185 5.1121 140.152 5.15496 142.267C52.7349 141.972 100.143 141.679 147.748 141.384C147.067 97.9928 146.391 54.8101 145.711 11.4749Z" fill="white"/>
<path fill-rule="evenodd" clip-rule="evenodd" d="M3.63046 12.6348C3.42456 12.6092 3.19369 12.5806 2.92422 12.5512C2.95467 11.8775 2.97133 11.2191 2.9877 10.5725C3.02363 9.15171 3.05817 7.78767 3.2342 6.44228C3.54707 4.05247 4.4815 3.32693 6.86332 3.29666C9.20345 3.267 11.5437 3.25792 13.884 3.24884C15.1757 3.24382 16.4674 3.23883 17.7591 3.23032C21.9471 3.20263 26.1353 3.17297 30.3232 3.14328C38.8464 3.08286 47.3694 3.02245 55.8923 2.97882C61.6494 2.94945 67.4064 2.93344 73.1631 2.91747H73.1635C79.7083 2.89931 86.2532 2.88111 92.7977 2.84324C102.441 2.78721 112.083 2.71311 121.726 2.63901C127.43 2.59518 133.135 2.55132 138.839 2.51122L138.982 2.51023C139.988 2.50292 141 2.49554 141.999 2.59302C144.273 2.8149 145.399 3.95297 145.469 6.20655C145.52 7.86203 145.509 9.51937 145.497 11.2168V11.2182V11.2193C145.491 11.9708 145.486 12.7301 145.486 13.5006C145.446 13.5097 145.397 13.5249 145.341 13.5423C145.192 13.5886 144.996 13.6499 144.799 13.6487C141.741 13.6309 138.682 13.5891 135.623 13.5473C129.193 13.4595 122.763 13.3717 116.338 13.5061C94.2554 13.9679 72.1739 13.9337 50.0915 13.7798C40.8384 13.7154 31.5853 13.5434 22.3341 13.3422C18.0924 13.2497 13.8525 13.0849 9.61237 12.92L9.61131 12.9199C7.94246 12.8551 6.27357 12.7901 4.60458 12.7297C4.30785 12.7188 4.01196 12.6821 3.63046 12.6348ZM145.247 15.2055C145.381 15.2239 145.533 15.2446 145.711 15.2657C146.102 39.4688 146.492 63.6229 146.882 87.7947C147.17 105.648 147.459 123.51 147.747 141.41C100.143 141.696 52.7346 141.981 5.15461 142.267C5.14072 141.596 5.12635 140.941 5.1122 140.296C5.08304 138.966 5.05482 137.679 5.03378 136.393C4.91649 129.189 4.80027 121.985 4.68401 114.781C4.55947 107.064 4.43494 99.3454 4.30911 91.6275C4.23252 86.9143 4.15387 82.201 4.07525 77.4877C3.99083 72.4283 3.9064 67.3688 3.8245 62.3097C3.74314 57.2843 3.66358 52.2593 3.58403 47.2343V47.2337C3.47457 40.3212 3.36514 33.4085 3.25095 26.496C3.22008 24.6275 3.17536 22.759 3.13064 20.8907C3.09974 19.5999 3.0688 18.309 3.04248 17.0182C3.03046 16.4275 3.03342 15.8365 3.03658 15.2109C3.03806 14.9152 3.03958 14.6118 3.03958 14.297C3.19898 14.2774 3.34794 14.2533 3.48984 14.2304C3.77307 14.1845 4.0282 14.1432 4.28172 14.1518C6.11829 14.2147 7.95467 14.2865 9.79104 14.3583C13.0441 14.4855 16.2973 14.6126 19.5516 14.6908C20.7571 14.7198 21.9626 14.7494 23.1683 14.7789L23.1719 14.779C30.9222 14.969 38.6731 15.1589 46.4246 15.2035C62.9411 15.2985 79.4589 15.3243 95.9757 15.2595C102.892 15.2325 109.808 15.1356 116.725 15.0386C122.165 14.9623 127.604 14.8861 133.044 14.8438C135.737 14.8229 138.431 14.9223 141.126 15.0218C142.294 15.0649 143.462 15.1081 144.631 15.1414C144.817 15.1468 145.004 15.1722 145.247 15.2055ZM62.027 143.348C66.8364 143.321 71.6458 143.294 76.4549 143.267V143.253C88.0801 143.176 99.7057 143.1 111.331 143.023C122.956 142.947 134.581 142.87 146.207 142.794C146.519 142.792 146.799 142.793 147.051 142.795H147.052C148.085 142.801 148.635 142.805 148.922 142.532C149.249 142.222 149.237 141.555 149.21 140.13C149.208 140.004 149.206 139.871 149.203 139.733C149.101 133.665 148.986 127.599 148.87 121.532V121.531L148.87 121.515C148.766 116.06 148.662 110.606 148.568 105.151C148.43 97.106 148.303 89.0609 148.177 81.0159V81.0143V81.013C148.106 76.4775 148.035 71.942 147.962 67.4068C147.908 64.0783 147.852 60.7497 147.795 57.4212C147.696 51.6217 147.597 45.8222 147.514 40.0224C147.407 32.6449 147.314 25.2672 147.222 17.8895L147.221 17.8175C147.178 14.3923 147.135 10.9672 147.09 7.54202C147.089 7.45797 147.089 7.37386 147.088 7.28971C147.085 6.96391 147.083 6.63788 147.056 6.31411C146.795 3.18299 145.258 1.50165 142.13 1.14387C141.226 1.04031 140.307 1.07473 139.388 1.10916C138.965 1.12503 138.541 1.14091 138.118 1.14323C132.951 1.17125 127.783 1.19862 122.616 1.22596H122.615C111.736 1.28357 100.857 1.34121 89.978 1.40472C83.4737 1.44259 76.9695 1.48503 70.4652 1.52748H70.4649C58.0528 1.60847 45.6407 1.68946 33.2283 1.73867C28.7398 1.75644 24.2513 1.72524 19.7628 1.69403C15.706 1.66586 11.6494 1.63768 7.59282 1.6456C4.29397 1.65204 2.29461 2.7125 1.73041 6.36918C1.60636 7.17426 1.52258 7.99673 1.53418 8.80987C1.5751 11.7076 1.62991 14.6052 1.68472 17.5028C1.724 19.5791 1.76328 21.6555 1.79743 23.7319C2.03491 38.1272 2.26884 52.5228 2.49729 66.9183C2.67248 77.9663 2.84441 89.0139 3.01631 100.062C3.1094 106.043 3.20249 112.024 3.29606 118.005C3.32113 119.605 3.34604 121.205 3.37095 122.805C3.46813 129.046 3.56534 135.287 3.67048 141.528C3.70721 143.701 3.7259 143.717 5.82449 143.708C7.03725 143.702 8.24985 143.684 9.46242 143.666C10.5919 143.65 11.7216 143.633 12.8511 143.627C29.2366 143.531 45.6223 143.439 62.008 143.348H62.0173H62.027ZM11.3268 6.76886C12.4085 6.75275 13.0539 7.21584 13.0803 8.02704C13.1087 8.90393 11.8192 9.99337 10.7314 10.0117C9.94258 10.0249 9.32038 9.41854 9.26851 8.58673C9.20084 7.50438 10.0119 6.7885 11.3268 6.76886ZM14.5506 8.14651C14.6041 6.43587 13.2849 5.30328 11.1367 5.21537C9.44508 5.14581 7.86461 6.63586 7.79759 8.36292C7.73572 9.96374 8.98302 11.437 10.4626 11.5111C12.3734 11.6071 14.4971 9.85876 14.5506 8.14651ZM32.677 8.68717C32.6895 8.07724 31.8121 7.1543 31.218 7.15204C30.5123 7.14947 29.6562 8.13038 29.6146 8.99021C29.5756 9.79626 30.0963 10.3492 30.8729 10.326C31.6935 10.3018 32.6618 9.42205 32.677 8.68717ZM31.3552 5.66811C32.5352 5.63494 34.1256 7.24318 34.1875 8.53228C34.2616 10.0735 32.5616 11.7339 30.8767 11.7658C29.3046 11.7951 28.2078 10.7537 28.1662 9.19148C28.1173 7.34172 29.5869 5.71803 31.3552 5.66811ZM22.9686 8.81148C22.9025 9.44234 22.0506 10.0474 20.9395 10.0156C20.8986 9.96159 20.8359 9.89782 20.7651 9.82572C20.5739 9.63115 20.3232 9.37597 20.279 9.08907C20.1688 8.37351 21.1383 7.48277 21.8386 7.49275C22.4205 7.50113 23.0311 8.21379 22.9686 8.81148ZM21.9549 6.04747C20.3215 5.99562 18.8136 7.46506 18.7926 9.12868C18.7755 10.5276 19.7628 11.4895 21.2379 11.5108C22.8471 11.5336 24.3625 10.279 24.4263 8.87073C24.4949 7.3633 23.3826 6.09288 21.9549 6.04747Z" fill="black"/>
<path fill-rule="evenodd" clip-rule="evenodd" d="M83.7438 44.3034C88.5819 51.0276 89.6255 57.7977 86.8754 65.2582C84.9202 70.5621 79.7209 73.2005 71.2775 72.5294L71.0207 72.5081L71.5598 77.8159C72.3057 78.7118 72.7639 79.9252 72.7639 81.261C72.7639 84.0176 70.8129 86.2525 68.4063 86.2525C65.9996 86.2525 64.0486 84.0176 64.0486 81.261C64.0486 81.1917 64.0499 81.1228 64.0522 81.0542L63.5179 81.0166L63.4422 80.1033C62.6273 70.3943 61.8524 65.1088 61.1171 64.2461C55.2612 64.2776 52.8422 61.1233 53.3041 58.9943C53.7661 56.8651 55.7998 57.3919 58.0681 55.6687L58.5453 55.0755C63.5492 48.8326 64.1411 47.3364 70.6247 45.8351C75.0807 44.8033 79.4538 44.2927 83.7438 44.3034Z" fill="white"/>
<path fill-rule="evenodd" clip-rule="evenodd" d="M68.876 49.1292L68.8757 49.1298C68.722 49.5513 68.5761 49.952 68.4043 50.3423C67.234 53.0058 63.564 55.1029 60.7128 55.0011C60.6228 54.9979 60.4366 55.0945 60.2487 55.1918C60.1999 55.2172 60.151 55.2426 60.1037 55.2661C59.9737 55.4394 59.7663 55.6059 59.5838 55.6603C59.2532 55.7579 58.9409 55.8268 58.6349 55.8941C58.1742 55.9952 57.7277 56.0934 57.2543 56.2831C56.582 56.5523 55.9538 57.0244 55.4501 57.53C53.8578 59.1302 54.2292 60.9896 56.4215 61.7364C57.6308 62.1483 58.9566 62.2945 60.2619 62.4385C60.46 62.4604 60.6577 62.4823 60.8543 62.5048C62.5841 62.7041 62.8831 62.8413 63.0497 64.341C63.4261 67.7262 63.7837 71.1131 64.134 74.5009C64.2973 74.6503 64.5074 74.7817 64.7781 74.8902C64.635 75.2142 64.4536 75.4422 64.2477 75.6012C64.3602 76.6923 64.4717 77.7833 64.5832 78.8747C64.6486 79.5136 64.6499 80.1677 64.5751 80.804C64.5503 81.014 64.2026 81.3286 63.9813 81.3447C63.7438 81.3618 63.3471 81.1325 63.2601 80.9241C63.1486 80.6562 63.1312 80.3535 63.1135 80.0521C63.1071 79.9393 63.1003 79.827 63.089 79.7165C62.9653 78.5208 62.8419 77.3251 62.7185 76.129C62.7117 76.0656 62.7053 76.0022 62.6985 75.9387C62.6395 75.9355 62.5803 75.932 62.5216 75.9278C60.0023 75.7594 57.8793 74.9102 56.6231 72.7194C56.506 72.5149 56.3722 72.3184 56.2368 72.1242C56.217 72.0953 56.182 72.0756 56.1295 72.046C56.0991 72.0289 56.063 72.0086 56.0206 71.9816C55.8692 72.035 55.7127 72.0879 55.5533 72.1416C55.2051 72.2592 54.8433 72.3812 54.4928 72.5258C49.0827 74.7594 42.9659 70.2858 43.6324 64.6524C43.8999 62.3927 44.7338 60.3517 46.2647 58.566C46.5536 58.2292 46.8473 57.8955 47.1675 57.532C47.3208 57.3577 47.4803 57.1768 47.6481 56.9855C47.484 56.8976 47.3278 56.8158 47.1775 56.7369C46.8763 56.5791 46.5989 56.4338 46.3291 56.2776C44.1621 55.0208 43.3878 53.104 44.2491 50.8475C45.2327 48.2709 47.0924 46.3414 49.636 44.9756C51.7974 43.8149 54.1637 43.2799 56.9241 43.1168C56.79 42.8536 56.6686 42.6043 56.5524 42.3658C56.3156 41.8798 56.1008 41.439 55.8464 41.0189C54.4436 38.7031 54.8666 36.5567 56.4287 34.461C60.6474 28.8015 69.0352 28.3197 74.016 33.4939C74.55 34.0485 75.012 34.6624 75.5018 35.3131L75.5021 35.3131C75.7367 35.6249 75.9777 35.9451 76.2361 36.2713C76.3824 36.2011 76.5332 36.1277 76.6872 36.0527C77.0413 35.8803 77.4132 35.6994 77.7898 35.5283C81.1032 34.0238 85.5185 34.7903 88.1156 37.1514C90.6688 39.4731 91.0068 44.7888 89.0288 47.4449C88.48 48.1821 87.9845 48.5311 87.4654 48.4893C88.7684 50.7551 89.5237 53.2145 89.6252 55.8899C89.7164 58.2981 89.6606 60.6843 89.0133 63.0468C87.5395 68.4312 83.2556 70.9601 77.9548 72.3043C76.7533 72.6089 75.4699 72.6347 74.1388 72.6614C73.5153 72.6736 72.8809 72.6865 72.24 72.7281C72.25 72.8395 72.2593 72.9622 72.2693 73.0929C72.2928 73.405 72.3199 73.7624 72.3689 74.1167C72.5703 75.5748 72.7791 77.0324 72.9875 78.4899L72.9879 78.4925C73.0771 79.1156 73.1664 79.7387 73.255 80.3622C73.2679 80.4546 73.2762 80.5477 73.2804 80.6411C73.3036 81.1624 73.3078 81.755 72.5712 81.744C72.2899 81.7398 71.8453 81.157 71.7747 80.7892C71.4876 79.2905 71.2089 77.2053 71.0523 75.6895C70.9663 75.3143 70.9199 75.0428 70.8841 74.8335C70.8016 74.3476 70.7762 74.1985 70.4423 73.8729C70.2767 73.7109 69.8259 73.2175 69.6996 73.0275C69.4016 72.5796 69.1728 72.2627 68.975 71.989C68.5716 71.4306 68.297 71.0509 67.8301 70.1012C67.8134 70.0314 67.8082 69.9586 67.8111 69.8845C67.8321 69.3522 68.3553 68.9725 68.9183 69.074C69.0913 69.1049 69.244 69.1557 69.3533 69.2504C72.2954 71.8054 75.6813 71.6673 79.0945 70.5176C84.0086 68.8627 87.332 65.8665 87.9258 60.7488C88.3879 56.7697 88.24 52.877 86.104 49.2918C85.3845 48.0838 84.5928 47.0653 83.4045 45.9459C83.3381 45.8661 83.2685 45.7444 83.1928 45.6115C83.0829 45.4195 82.9598 45.2042 82.8145 45.058C82.8042 45.0479 82.779 45.0258 82.7459 44.9972C79.2166 49.4795 74.452 49.7413 69.1013 48.5196C69.022 48.7282 68.9482 48.9311 68.876 49.1292Z" fill="black"/>
<path fill-rule="evenodd" clip-rule="evenodd" d="M20.5642 106.245L15.9407 103.277C15.9407 103.277 37.5382 81.3752 57.0575 80.5512C76.5767 79.7272 89.6603 86.0332 89.6603 86.0332L103.463 93.3505L115.971 102.174L115.464 106.245L122.331 114.874L128.455 124.216C128.455 124.216 128.97 126.514 128.97 127.596C128.97 128.678 125.909 134.304 104.615 129.653C83.3216 125.002 101.356 131.506 101.356 131.506L102.739 133.602C102.739 133.602 102.048 138.116 102.048 139.043C102.048 139.97 88.9102 142.393 88.9102 142.393C88.9102 142.393 52.2809 145.4 40.5329 142.393C37.5953 141.641 40.5329 131.506 40.5329 131.506L38.2107 130.812C38.2107 130.812 21.9098 136.796 13.7345 135.642C5.55946 134.488 10.0567 123.056 10.0567 123.056L22.8142 106.872L20.5642 106.245Z" fill="white"/>
<path fill-rule="evenodd" clip-rule="evenodd" d="M40.3209 140.861C41.4789 141.062 41.8801 141.528 42.9653 141.624C45.2382 141.825 47.5208 141.914 49.7957 142.095C53.1789 142.364 56.5561 142.87 59.9413 142.923C66.5506 143.025 73.1638 142.934 79.7537 142.261C86.1027 141.612 92.4375 140.901 98.5599 138.969C98.8051 138.891 101.325 137.906 101.325 137.906C101.325 137.906 100.869 134.284 101.325 134.129C100.769 133.888 99.6703 133.157 99.4308 133.051C93.2865 130.32 89.7283 128.793 83.6068 126.011C81.9558 125.261 77.8733 123.294 76.345 122.787C75.0355 122.478 73.3507 122.223 72.0367 121.935C70.3344 121.563 69.0694 120.604 68.1539 119.152C67.1738 117.595 66.5847 115.892 66.2606 114.088C66.0692 113.025 65.8324 111.971 65.6361 110.909C65.1067 112.695 64.4584 114.45 63.988 116.251C63.3175 118.817 62.1491 121.138 60.0615 122.745C57.4715 124.738 54.7852 126.667 51.9297 128.242C48.0515 130.382 43.9742 132.161 39.9117 134.129L40.3209 140.861ZM74.7713 108.818C74.8416 109.448 75.3494 110.413 74.3225 110.555C73.3461 110.69 73.4502 109.625 73.3535 108.994C73.0532 107.031 72.8883 105.045 72.5532 103.089C72.3779 102.065 72.0831 101.019 71.6155 100.098C70.9189 98.7265 69.9558 98.8244 69.1821 100.171C69.7289 101.037 70.4836 101.806 70.7368 102.714C71.456 105.296 71.9712 107.935 72.5641 110.552C72.5896 110.665 72.5989 110.801 72.5835 110.894C72.5084 111.334 72.2793 111.454 72.0714 111.5C71.8056 111.559 71.4889 111.404 71.369 111.161C71.168 110.753 71.0951 110.279 70.9933 109.826C70.5435 107.832 70.1449 105.826 69.6368 103.848C69.4306 103.044 69.1338 102.193 68.2732 101.809C67.8185 103.591 67.3819 105.283 66.9592 106.979C66.8896 107.258 66.8142 107.565 66.858 107.84C67.2672 110.435 67.5785 113.053 68.161 115.609C68.81 118.457 70.5525 120.152 73.5913 120.834C77.804 121.78 81.9165 123.173 86.0698 124.38C88.9894 125.228 91.8755 126.215 94.8306 126.91C98.8628 127.859 102.936 128.648 107.011 129.398C110.745 130.087 114.461 131.06 118.302 130.85C120.57 130.726 122.867 130.592 125.077 130.118C127.75 129.543 128.754 127.571 127.653 125.067C126.649 122.779 125.485 120.502 124.026 118.486C120.9 114.169 117.35 110.194 113.37 106.625C112.817 106.129 112.26 105.637 111.64 105.084C106.466 107.613 101.288 109.88 96.886 113.968C101.572 115.13 106.075 115.982 110.468 117.157C111.182 117.348 111.076 118.422 110.337 118.439C110.331 118.439 110.327 118.439 110.321 118.439C109.863 118.445 109.398 118.33 108.945 118.229C104.776 117.308 100.635 116.231 96.4346 115.491C91.184 114.564 85.8746 113.972 80.596 113.205C80.2226 113.15 79.8469 113.115 79.4715 113.076C78.5261 112.979 78.0225 112.615 77.7756 111.583C77.1789 109.086 76.3972 106.632 75.6374 104.178C75.3861 103.365 75.0014 102.581 73.9477 102.034C74.2435 104.44 74.5274 106.627 74.7713 108.818ZM20.7417 110.569C17.2895 113.937 13.5695 118.832 10.9547 122.864C10.018 124.308 9.36232 125.995 8.87932 127.657C8.20782 129.971 9.15772 132.769 10.9692 133.716C12.281 134.402 13.8189 135.014 15.2605 135.024C19.1732 135.053 23.0968 134.848 26.8909 133.656C31.2998 132.272 35.8234 131.193 40.1182 129.522C46.0567 127.211 51.7924 124.386 57.6864 121.955C60.3576 120.854 61.6774 118.88 62.4771 116.309C63.5508 112.857 64.7117 109.43 65.746 105.966C66.2664 104.223 66.9679 102.455 66.327 100.521C65.4779 100.124 64.617 101.736 63.8337 103.437C62.7346 105.824 61.7927 108.283 60.7662 110.704C60.5403 111.236 60.2844 111.77 59.9481 112.235C59.8321 112.396 59.3742 112.462 59.1728 112.364C58.9862 112.274 58.8648 111.913 58.8432 111.661C58.8258 111.455 59.0017 111.234 59.0874 111.018C60.7017 106.971 61.8788 102.71 64.9221 99.358C63.8733 98.8427 63.5211 98.7699 62.8709 99.5029C62.0286 100.452 61.2295 101.5 60.6805 102.636C59.5872 104.896 58.6643 107.24 57.7009 109.562C57.5569 109.909 57.4322 110.252 57.1776 110.48C56.7878 110.829 56.1159 110.537 56.1459 110.015C56.1478 109.984 56.1523 109.955 56.161 109.927C57.3014 106.056 58.993 102.424 60.9682 98.8936C59.6478 98.4485 56.4936 101.826 56.0334 104.789C55.5936 107.621 55.1441 110.452 54.741 113.288C54.4736 115.171 54.4939 115.204 52.6318 115.321C50.1797 115.475 47.7067 115.454 45.2772 115.773C40.2348 116.434 35.2147 117.267 30.1869 118.038C29.7741 118.101 29.3594 118.231 28.9431 118.222C28.3628 118.21 27.9468 117.643 28.0712 117.077C28.087 117.006 28.1047 116.935 28.1253 116.867C28.299 116.292 28.8886 116.006 29.4403 116.243C29.7883 116.394 30.1095 116.518 30.4092 116.479C32.009 116.268 33.5882 115.9 35.2817 115.571C34.3818 113.041 32.722 111.368 30.5539 110.207C28.5983 109.161 26.5703 108.234 23.5775 107.408C22.0519 108.993 22.3109 108.681 20.7417 110.569ZM67.4828 99.4433C67.738 99.2401 68.3376 99.3448 68.4136 99.2597C69.388 97.6225 71.5952 97.589 72.905 99.3184C73.1605 99.6755 73.5923 100.411 73.5923 100.411C75.5752 100.677 76.4674 102.042 76.9756 103.613C77.8159 106.213 78.5741 108.839 79.3954 111.546C79.5108 111.579 79.7289 111.67 79.9554 111.701C84.6498 112.359 89.3484 112.989 94.0373 113.682C94.4494 113.743 95.1476 113.803 95.1476 113.803C95.2759 113.582 95.611 113.213 95.8726 112.954C97.6232 111.22 99.5214 109.686 101.748 108.577C104.94 106.987 108.097 105.326 111.297 103.754C112.216 103.304 113.803 102.989 114.995 102.572C114.005 101.599 112.677 100.768 111.771 100.057C104.783 94.5822 97.2092 90.0825 89.0113 86.6634C86.315 85.5392 83.5643 84.5435 80.8206 83.5378C80.4836 83.4143 79.5536 83.1273 79.5536 83.1273C79.5536 83.1273 79.1032 83.3316 78.7004 83.6202C76.296 85.3424 73.5427 86.3111 70.6286 86.7678C67.139 87.3152 63.7634 86.7362 60.433 85.6632C58.5757 85.0649 56.6776 84.4802 55.438 82.9173C55.1203 82.5169 54.558 81.7964 54.558 81.7964C54.558 81.7964 53.4438 81.9277 52.8461 81.977C48.9276 82.3011 45.3178 83.6796 41.8334 85.3492C32.7395 89.707 24.6847 95.624 17.0504 102.147C16.7665 102.389 16.1621 102.975 15.8192 103.388C18.1221 104.012 20.6476 104.37 22.7904 104.913C28.9769 106.481 34.2436 109.041 36.86 115.014C42.1765 114.552 47.8927 114.16 53.245 113.695C53.3207 113.08 53.3884 112.508 53.4618 111.937C53.6932 110.139 53.9397 108.341 54.1562 106.541C54.5848 102.969 56.2136 100.206 59.2434 98.1365C60.3473 97.3823 61.6987 97.504 62.6515 98.1491C62.6515 98.1491 63.2575 97.6248 64.7906 97.9101C65.6925 98.1342 65.9149 98.7551 66.0505 98.8649C66.0505 98.8649 67.1828 98.8723 67.4828 99.4433ZM75.8594 83.3572C74.8622 82.8657 74.0834 82.4923 73.3149 82.0986C72.8995 81.8857 72.2223 81.6881 71.796 81.3457C71.5756 81.1684 71.1879 80.9745 71.2598 80.605C71.3181 80.1301 71.9722 80.0896 72.1945 80.1208C73.9761 80.3722 75.9132 80.6122 77.8366 81.0364C85.5414 83.3381 92.8973 86.5121 99.9409 90.3774C105.963 93.6821 111.398 97.8509 116.756 102.12C117.894 103.027 118.139 104.265 117.557 105.427C117.175 106.19 116.271 107.142 116.271 107.142C116.271 107.142 117.842 108.936 118.568 109.713C120.845 112.145 123.035 114.687 125.004 117.371C126.48 119.384 127.663 121.637 128.782 123.881C130.863 128.058 128.308 131.108 124.754 131.749C120.374 132.539 116.019 132.485 111.66 131.719C109.355 131.315 107.065 130.817 104.765 130.377C104.266 130.281 103.754 130.247 103.07 130.163C103.238 130.961 103.369 137.265 103.5 137.884C103.825 139.418 103.641 138.962 102.146 139.515C94.8322 142.226 87.1989 143.259 79.4905 143.939C70.7304 144.711 61.9606 144.893 53.1876 144.271C48.9218 143.969 44.6692 143.473 40.4111 143.062C40.1118 143.033 39.814 142.989 39.5205 142.924C38.4037 142.676 38.1395 137.417 38.1897 136.238C38.2506 134.796 38.5155 133.363 38.7191 131.705C37.8775 131.928 37.3243 132.06 36.7804 132.222C34.2017 132.991 31.6046 133.707 29.0527 134.557C24.7269 135.998 20.2719 136.455 15.7493 136.534C13.8173 136.568 12.0358 136.061 10.3892 135.109C7.94876 133.699 6.72904 130.363 7.44256 127.257C7.90719 125.234 8.69598 123.333 9.95262 121.695C12.4092 118.496 14.9563 115.366 17.4786 112.217C18.0612 111.49 18.6944 110.804 19.3949 109.994C18.7014 109.539 18.0783 109.131 17.4567 108.72C16.0599 107.797 14.9276 106.659 14.3183 105.049C13.875 103.879 13.9858 102.881 14.9992 102.061C18.4579 99.2639 21.8311 96.3531 25.3913 93.6921C30.7459 89.6896 36.4443 86.2293 42.4971 83.3451C46.6431 81.3692 50.9814 80.4445 55.5343 80.219C57.8669 80.1033 60.1868 79.74 62.5171 79.5497C62.6444 79.539 62.7745 79.5641 62.9063 79.6075C63.3487 79.7527 63.5253 80.3006 63.2591 80.6826C63.1738 80.8057 63.0771 80.9114 62.9601 80.982C61.6217 81.7853 60.016 82.2712 57.7183 82.8247C65.5098 85.9472 70.0363 86.6641 75.8594 83.3572Z" fill="black"/>
<path fill-rule="evenodd" clip-rule="evenodd" d="M81.7607 56.2675C82.2302 55.5419 82.6581 55.4202 83.3534 55.9767C84.6977 57.0529 84.8057 56.9837 86.0549 55.7432C86.293 55.5068 86.7912 55.2627 87.0383 55.3587C87.637 55.5912 87.3953 56.1094 87.1823 56.536C86.5498 57.8045 85.1366 58.4264 83.7975 57.9913C83.5067 57.897 83.1714 57.7209 82.8225 57.5377C82.6486 57.4463 82.4713 57.3533 82.2946 57.2677C82.4755 57.8243 82.3786 58.2109 82.2793 58.6071L82.2737 58.6296C81.8729 60.2339 79.9921 60.925 78.6668 59.9357C78.4487 59.7725 78.245 59.3622 78.3233 59.0833C78.4232 58.7278 78.6343 58.6911 78.8911 58.7136C79.127 58.7341 79.3185 58.7814 79.4927 58.8244C79.5592 58.8409 79.6233 58.8567 79.6863 58.8701C80.1841 58.9767 80.7567 58.9394 80.7944 58.379C80.8231 57.9572 80.8624 57.3695 80.5218 57.1402C80.2958 56.9879 79.8707 56.9658 79.4612 56.9444C79.1864 56.9301 78.9186 56.9162 78.7225 56.8636C78.7109 56.8603 78.6993 56.8568 78.6874 56.8529C78.1777 56.6858 78.0185 55.9844 78.4345 55.6456C78.4625 55.6228 78.4918 55.6031 78.5234 55.587C79.27 55.206 80.9474 55.4537 81.7607 56.2675ZM73.2197 58.53C72.14 58.5236 71.3171 58.0129 70.6733 57.193C70.3775 56.8165 70.0904 56.3203 70.6278 55.9911C70.8321 55.866 71.2562 56.0415 71.5798 56.1754C71.6068 56.1865 71.6332 56.1975 71.6586 56.2079C71.774 56.2552 71.8633 56.3604 71.9541 56.4674C72.0202 56.5453 72.0871 56.6241 72.1655 56.6822C72.9478 57.2619 73.6351 57.2619 74.401 56.6713C74.5166 56.5819 74.6194 56.4731 74.7216 56.3647C74.8631 56.2148 75.0036 56.0661 75.1756 55.9715C75.3857 55.8562 75.8252 55.8552 75.9306 55.9354C76.2109 56.1483 76.2109 56.6294 76.0859 56.839C75.4514 57.9034 74.5312 58.57 73.2197 58.53ZM76.5061 63.5045C77.0359 63.7267 77.6316 63.7776 78.1839 63.6204C78.3328 63.5779 78.4762 63.5171 78.6102 63.4221C78.9353 63.1918 79.3578 62.7178 79.3088 62.4215C79.2145 61.8472 78.7032 61.9723 78.2597 62.0809C78.2316 62.0878 78.2039 62.0946 78.1765 62.1011C76.713 62.4518 76.4066 62.3127 75.719 61.0068C75.6626 60.8999 75.6163 60.7846 75.5701 60.6698C75.4847 60.457 75.3998 60.2456 75.2527 60.0919C75.0984 59.9306 74.7372 59.8746 74.4978 59.9216C74.3483 59.9509 74.172 60.2494 74.1475 60.4446C73.9999 61.6129 75.1996 62.9567 76.5061 63.5045Z" fill="black"/>
</svg>
