<svg width="144" height="126" viewBox="0 0 144 126" fill="none" xmlns="http://www.w3.org/2000/svg">
<g clip-path="url(#clip0_3_12)">
<path d="M143.962 18.189C144.077 15.8293 143.932 13.4648 143.53 11.1328C143.51 10.5748 143.274 10.0425 142.866 9.63513C142.459 9.2277 141.907 8.97284 141.314 8.91792C130.305 6.84856 118.938 6.12712 107.943 5.42469L107.491 5.39315C102.81 5.09572 98.035 4.66536 93.4828 4.25403C91.4567 4.06419 89.3831 3.88059 87.3367 3.70338C85.2903 3.5262 83.2302 3.34908 81.1771 3.15924C76.5979 2.75422 71.8702 2.33018 67.21 2.01377C64.0829 1.80494 60.8882 1.69742 57.7949 1.59617C55.708 1.52655 53.5534 1.45052 51.4328 1.34927C47.3803 1.15309 46.9481 1.50748 46.4684 5.14628C46.3469 6.07654 46.2861 7.04474 46.2254 7.96869C46.1781 8.72808 46.1241 9.5129 46.0429 10.2849C45.8741 11.8607 45.6714 13.4048 45.4554 15.0375C45.3609 15.7526 45.2664 16.474 45.1717 17.2145C45.1537 17.3595 45.0824 17.4941 44.9703 17.5956C44.8585 17.6971 44.7125 17.7591 44.5572 17.7713C44.0505 17.8092 43.571 17.8347 43.1118 17.86C42.1526 17.917 41.2477 17.9675 40.4102 18.0878C39.5728 18.208 38.5191 18.4295 37.5937 18.6319L36.8847 18.784V19.0432C39.6403 19.923 42.4431 19.5686 45.4082 19.1952C47.4347 18.8686 49.493 18.7479 51.5475 18.8345H51.777C53.0469 18.9295 53.7424 18.9105 54.1476 18.2775L54.1071 18.1575C52.493 17.9233 50.8788 17.7143 49.0282 17.4802L47.6775 17.303C47.5054 17.2808 47.3492 17.1976 47.241 17.0703C47.1328 16.943 47.081 16.7817 47.0966 16.6196L48.3125 3.38064C48.3275 3.22286 48.4054 3.07613 48.5305 2.96951C48.6556 2.86289 48.8187 2.80416 48.9877 2.80482L51.1963 2.906L54.9108 3.08323L61.8269 3.42497C67.1423 3.67812 72.6334 3.94385 78.0365 4.31088C89.4303 5.08295 100.865 6.00692 109.557 6.72202C119.479 7.5447 128.691 8.37371 137.728 9.25335C141.172 9.58875 141.922 9.99372 141.996 13.4806C142.102 18.0902 141.944 22.7017 141.524 27.2954C141.071 32.1999 140.524 37.174 140.004 41.9898C139.268 48.7423 138.505 55.7287 137.978 62.6077C136.712 79.5416 136.682 96.537 137.89 113.475C137.964 114.557 137.944 115.658 137.89 116.721C137.89 117.227 137.89 117.734 137.89 118.246C137.89 118.414 137.819 118.575 137.692 118.694C137.565 118.813 137.394 118.879 137.215 118.879H93.753C93.587 118.88 93.4265 118.824 93.3019 118.721C93.1772 118.619 93.0974 118.477 93.0776 118.322C92.5778 114.658 92.4561 113.81 91.8214 113.26C90.6055 117.417 90.6597 122.012 91.8956 124.562L93.341 121.094C93.3863 120.989 93.461 120.897 93.557 120.828C93.6533 120.759 93.7676 120.715 93.888 120.702L94.4015 120.632C94.6897 120.589 94.9806 120.564 95.2727 120.556H108.416C117.277 120.556 126.138 120.539 134.999 120.506C138.417 120.506 139.052 119.911 139.18 116.582C139.221 115.671 139.18 114.747 139.18 113.854C139.18 111.007 139.099 108.159 139.052 105.299C138.937 99.0587 138.815 92.6102 138.971 86.2629C139.227 75.7134 139.774 64.8226 140.598 53.8934C141.112 47.002 141.807 40.0091 142.476 33.2503C143.023 28.3079 143.503 23.2075 143.962 18.189Z" fill="black"/>
<path d="M51.0813 92.6989C54.1003 92.7938 54.1071 92.7938 54.5866 89.908C55.5253 84.2125 56.3022 79.5171 57.0856 74.5999L57.6326 71.1635C59.4967 59.4563 61.4284 47.3564 63.2788 35.4465C63.5152 33.9213 63.5962 32.8201 63.1978 32.3962C62.7993 31.9721 61.6646 31.9152 60.0572 31.9405C55.647 32.0165 51.1623 32.162 46.8263 32.3012L45.7456 32.3328C43.2533 32.4152 43.2061 32.4594 43.1386 34.7185C42.9901 40.1356 42.8683 45.6412 42.7536 50.9633L42.6928 53.9947C42.4496 65.1199 42.2246 76.2495 42.0174 87.383C42.0174 88.4271 42.0174 89.4777 42.0174 90.6865C42.0174 91.142 42.0174 91.6103 42.0174 92.1166L44.719 92.3129C46.9208 92.49 49.0282 92.6294 51.0813 92.6989ZM43.5438 91.2243C43.4817 91.1639 43.4329 91.0926 43.4005 91.0145C43.3681 90.9363 43.3523 90.8528 43.3548 90.7689L44.476 34.4465C44.4753 34.2872 44.539 34.1333 44.6542 34.016C44.7694 33.8987 44.9278 33.8265 45.0972 33.8137C50.6423 33.4213 55.863 33.4466 61.1649 33.5163C61.2612 33.5172 61.3564 33.5375 61.4439 33.5756C61.5312 33.6138 61.6088 33.669 61.6714 33.7376C61.7337 33.806 61.7798 33.8858 61.8066 33.972C61.8334 34.0582 61.8401 34.1487 61.8268 34.2376L53.0467 90.832C53.0221 90.9829 52.9405 91.1203 52.8163 91.2194C52.6923 91.3182 52.5341 91.3717 52.3712 91.3699H43.9963C43.8316 91.3748 43.6707 91.3229 43.5438 91.2243Z" fill="black"/>
<path d="M39.6 104.242C39.6743 107.685 43.2538 110.57 47.4345 110.513C49.6996 110.442 51.842 109.532 53.3916 107.982C55.0235 106.44 55.9388 104.357 55.9377 102.185C55.85 98.7425 52.5609 95.9516 48.5489 95.9516C45.7799 95.9516 43.4768 96.768 41.8896 98.2931C41.1005 99.0894 40.4908 100.027 40.0975 101.049C39.704 102.071 39.5348 103.157 39.6 104.242ZM48.272 97.4832C49.1067 97.4459 49.9412 97.5651 50.7263 97.8333C51.5113 98.1018 52.2315 98.5142 52.8444 99.0463C53.3696 99.5451 53.78 100.139 54.0504 100.792C54.3211 101.445 54.4462 102.143 54.4181 102.843C54.3796 104.688 53.5608 106.443 52.142 107.722C50.8781 108.883 49.1839 109.541 47.4143 109.558H47.1983C46.2247 109.542 45.2644 109.343 44.3754 108.971C43.4862 108.599 42.6868 108.062 42.0246 107.393C41.5359 106.88 41.164 106.278 40.9318 105.625C40.6996 104.972 40.6118 104.282 40.6739 103.596C40.9912 99.7171 43.6997 97.5527 48.272 97.4832Z" fill="black"/>
<path d="M82.3115 18.056C82.1707 18.1976 82.0397 18.3479 81.9198 18.5054C85.2088 19.7712 92.4696 20.0178 95.9141 19.0495C95.6182 18.7878 95.2625 18.5929 94.8739 18.4801C90.9432 18.2459 86.8367 18.1067 82.3115 18.056Z" fill="black"/>
<path d="M4.02628 124.043C4.28329 124.277 4.61596 124.424 4.97186 124.461C5.82286 124.461 6.67387 124.505 7.53164 124.543C10.8141 124.67 13.9411 124.79 16.9872 123.834C12.4755 122.265 8.13268 122.923 4.02628 124.043Z" fill="black"/>
<path d="M94.2664 81.099C94.2664 81.7888 94.2664 82.504 94.1922 83.1937L94.0977 84.0733C93.8545 86.339 93.598 88.6739 94.1584 91.1928C94.7797 90.2243 95.0632 89.0983 94.9689 87.9716C94.9689 87.5491 94.9914 87.1265 95.0364 86.706C95.2729 84.7632 95.4891 82.8647 95.5363 80.9661C95.5363 80.5548 95.6038 80.1372 95.6578 79.7005C95.8201 78.5043 95.9551 77.4411 95.0771 76.4475C94.2667 77.9347 94.2664 79.4789 94.2664 81.099Z" fill="black"/>
<path d="M73.0048 18.7966C73.0521 18.765 73.2886 18.5308 73.4643 18.3601L73.6195 18.2143L73.4643 18.1006C73.2935 17.9549 73.1027 17.8316 72.8968 17.7336C69.2023 17.0565 65.2918 17.1956 60.5979 18.1638C60.473 18.3689 60.3603 18.5803 60.2602 18.7966L60.1792 18.9739C64.4544 19.1467 68.7368 19.0874 73.0048 18.7966Z" fill="black"/>
<path d="M94.5702 59.0576V59.3171C94.5229 60.2727 94.435 61.2473 94.354 62.1903C94.131 64.8165 93.8947 67.5185 94.4215 70.3221C95.9884 66.7844 96.5288 60.4372 95.0159 57.6147C94.6512 57.8489 94.5972 58.2728 94.5702 59.0576Z" fill="black"/>
<path d="M99.9389 22.6255C99.6532 22.4094 99.2927 22.299 98.9258 22.3153L98.8043 22.6065C98.5673 23.0823 98.4037 23.5872 98.318 24.1061C98.014 27.2007 97.7911 30.3965 97.6426 33.5987C97.7207 33.8085 97.8613 33.993 98.0478 34.1304C98.2379 34.053 98.4083 33.9387 98.5475 33.7949C99.223 29.96 99.7362 26.5618 100.128 23.4038C100.158 23.2689 100.156 23.1297 100.124 22.9952C100.091 22.861 100.028 22.7349 99.9389 22.6255Z" fill="black"/>
<path d="M1.50097 24.4097L1.1768 24.4858C1.12952 25.2072 1.08894 25.9221 1.04167 26.6436C0.859312 29.4977 0.67024 32.4467 0.575684 35.3513C0.740078 35.5307 0.923322 35.694 1.12271 35.8386L1.2308 35.9147L1.40641 35.7944C1.66123 35.6304 1.88881 35.4321 2.0818 35.2058C2.27093 32.1239 2.34524 28.808 2.29122 25.3906C2.29122 25.2451 1.93319 24.8781 1.71706 24.6565L1.50097 24.4097Z" fill="black"/>
<path d="M19.6212 18.613C22.4646 19.1826 25.3485 18.8724 28.4013 18.5433C29.428 18.4293 30.4817 18.3154 31.5621 18.2333C31.3218 17.9951 31.0316 17.8058 30.7098 17.6773C30.3878 17.5488 30.0411 17.4838 29.6912 17.4865C26.2919 17.3552 22.892 17.7355 19.6212 18.613Z" fill="black"/>
<path d="M76.0511 123.961C73.9235 122.644 69.5876 122.328 65.9203 123.676C69.2161 124.579 72.7034 124.677 76.0511 123.961Z" fill="black"/>
<path d="M1.66937 101.249C2.42581 98.945 2.2232 94.4583 0.912929 90.9841C0.149731 94.1102 0.59549 98.8185 1.66937 101.249Z" fill="black"/>
<path d="M97.5211 40.0219L97.4333 40.199C97.0191 40.9812 96.7171 41.8109 96.5351 42.6671C96.1094 45.3819 95.7787 48.0526 96.2379 50.799C97.5008 48.312 98.1628 43.7366 97.6968 40.0409H97.5211V40.0219Z" fill="black"/>
<path d="M1.84449 118.259L1.88497 118.493C2.03356 119.303 2.12814 119.626 2.4996 119.721C2.9994 117.462 2.74274 112.222 1.82421 108.893C0.993471 110.722 0.993491 113.652 1.84449 118.259Z" fill="black"/>
<path d="M38.1746 123.657C35.0089 123.406 31.8267 123.391 28.6582 123.613L26.5309 123.708C26.251 123.805 25.9956 123.956 25.7812 124.151L25.5717 124.303V124.461C29.8741 124.733 33.7846 124.879 37.7289 124.182C37.8736 124.028 38.0045 123.863 38.1206 123.689L38.1746 123.657Z" fill="black"/>
<path d="M1.47283 74.3659C0.832328 77.9119 0.991115 81.5441 1.93889 85.0291C2.37115 81.7636 2.29681 76.4541 1.6552 74.5683C1.61291 74.488 1.5503 74.4185 1.47283 74.3659Z" fill="black"/>
<path d="M0.899125 56.5198C0.684216 56.7833 0.52808 57.0847 0.4399 57.4058C0.325085 60.8168 0.304763 63.9556 0.379056 66.9996C0.379056 67.1199 0.622202 67.3983 0.80456 67.6324C1.02069 67.4299 1.39892 67.063 1.40567 66.9301C1.50698 64.0569 1.50023 61.0066 1.40567 57.3363C1.30272 57.0457 1.13981 56.7768 0.926166 56.5451L0.899125 56.5198Z" fill="black"/>
<path d="M45.7994 123.999C48.4335 124.632 53.7894 124.834 55.9303 124.125C56.0727 124.009 56.1917 123.87 56.2815 123.714C52.1818 123.012 48.0078 123.258 45.7994 123.999Z" fill="black"/>
<path d="M0.858658 51.5458C1.05801 51.361 1.22445 51.1474 1.35168 50.913C1.35168 50.1094 1.41249 49.3119 1.45301 48.502C1.62688 46.4472 1.60194 44.3821 1.37864 42.3318C-0.195029 44.4897 -0.404332 47.9513 0.858658 51.5458Z" fill="black"/>
<path d="M85.6004 124.277C86.3224 124.182 87.0244 123.981 87.6805 123.683L88.0452 123.543C85.9379 122.525 84.1482 122.695 82.2638 122.872L81.4399 122.948C81.2369 123.122 81.0819 123.339 80.9872 123.581C81.0374 123.699 81.108 123.808 81.1967 123.904C82.6463 124.173 84.1226 124.298 85.6004 124.277Z" fill="black"/>
<path d="M92.9356 104.349C93.6837 102.341 93.6164 100.144 92.7463 98.1794C92.2957 100.222 92.3605 102.334 92.9356 104.349Z" fill="black"/>
<path d="M6.9711 18.6448C6.21001 18.784 5.49076 19.0777 4.86386 19.5052C7.04785 19.8878 9.30237 19.6929 11.3747 18.9421C9.96776 18.4487 8.43898 18.3456 6.9711 18.6448Z" fill="black"/>
</g>
<defs>
<clipPath id="clip0_3_12">
<rect width="144" height="126" fill="white"/>
</clipPath>
</defs>
</svg>
