<svg width="128" height="129" viewBox="0 0 128 129" fill="none" xmlns="http://www.w3.org/2000/svg">
<g clip-path="url(#clip0_3_48)">
<path d="M48.8899 6.81716C52.4852 6.4412 55.9116 6.13351 59.3306 5.70969C75.8242 3.78889 92.3472 1.82709 108.804 -0.0663884C112.539 -0.497035 113.206 -0.0322502 114.138 3.31038C114.608 4.97827 114.74 6.61208 117.007 7.32298C117.741 7.56224 118.269 9.14804 118.401 10.1734C120.088 22.9697 121.688 35.7728 123.295 48.5829C124.493 58.1847 125.677 67.7889 126.846 77.3953C127.147 79.863 127.411 82.3304 127.579 84.7981C127.763 87.1017 127.374 87.6215 124.828 87.9974C121.945 88.4212 119.024 88.6808 116.112 88.9544C100.264 90.6542 84.4134 92.3561 68.5606 94.0604C57.9879 95.1747 47.4006 96.1659 36.8352 97.3279C32.3598 97.82 27.9282 98.695 23.4452 99.2077C20.9425 99.4935 18.414 99.5304 15.9028 99.3172C12.8652 99.0505 12.425 98.531 11.9187 95.5985C9.98177 84.4564 8.10354 73.3143 6.18858 62.1791C4.27362 51.0438 2.27792 39.9153 0.487691 28.7596C0.206502 27.074 0.488231 25.3486 1.29474 23.8174C2.4004 22.14 2.78322 20.1349 2.366 18.2053C1.57362 14.268 2.2779 13.4204 6.41597 12.436C7.44828 12.2002 8.49792 12.0357 9.55623 11.9439C11.8601 11.732 13.6283 11.0347 14.1712 8.6217C14.6335 6.57099 16.475 6.18143 18.4413 5.95586C24.3771 5.27229 30.3053 4.58865 36.2335 3.82306C37.547 3.65901 38.853 3.37201 40.1442 3.09177C44.0255 2.24414 47.3786 2.48336 48.8899 6.81716ZM115.576 10.112C113.933 10.2555 112.641 10.3238 111.387 10.4878C98.8599 12.0874 86.3405 13.6961 73.8285 15.3138C63.2852 16.681 52.7492 18.0959 42.2061 19.4152C31.3985 20.7823 20.5985 22.2109 9.76903 23.4481C3.16572 24.2 2.57139 24.8152 3.67193 30.9675C5.22004 39.6555 6.70216 48.3505 8.19891 57.0523C10.312 69.3018 12.3883 81.5514 14.5308 93.794C15.0737 96.8564 15.3525 97.0683 18.6761 96.9248C20.9286 96.8221 23.1665 96.4531 25.4115 96.2069C39.8214 94.6438 54.2313 93.0761 68.6413 91.5039L121.769 85.6595C125.18 85.2903 125.679 84.7914 125.29 81.6471C124.858 78.2292 124.263 74.7703 123.823 71.3183C121.578 54.3249 119.345 37.3314 117.124 20.3381C116.677 17.0365 116.126 13.7622 115.576 10.112ZM9.01331 21.8692C12.0288 21.4113 15.037 20.9328 18.0525 20.5021C25.9178 19.3606 33.7758 18.1712 41.6558 17.0843C45.4636 16.5716 49.3228 16.4006 53.1382 15.9495C63.8061 14.637 74.4595 13.2152 85.1276 11.8481C93.022 10.8364 100.924 9.85211 108.811 8.78575C111.291 8.45079 111.937 7.65115 111.812 5.65513C111.666 3.34468 110.858 2.52425 108.415 2.43539C107.084 2.3942 105.752 2.45594 104.431 2.61997C95.3408 3.70001 86.2575 4.82793 77.1669 5.91481C68.0763 7.00167 58.9857 8.12963 49.8806 9.07296C48.6112 9.20282 46.5202 8.76525 46.0285 7.95181C44.3044 5.09451 41.9053 5.45689 39.1464 5.82602C34.9496 6.38655 30.709 6.6804 26.4902 7.11788C24.1129 7.35713 21.7284 7.57585 19.3805 7.95181C17.7224 8.22524 16.343 9.00445 16.1889 10.8022C16.0348 12.6 14.8829 12.9487 13.2174 13.1059C11.2313 13.2868 9.26672 13.6345 7.34778 14.1449C4.94858 14.8285 4.36168 16.305 5.02936 19.258C5.55029 21.5342 6.23258 21.958 9.01331 21.8692Z" fill="black"/>
<path fill-rule="evenodd" clip-rule="evenodd" d="M74.342 53.8403C74.3916 48.0234 73.3174 43.4343 70.3377 39.3436C65.7583 33.0558 57.8512 30.7181 50.2169 33.3681C47.0413 34.4703 44.2108 36.1089 41.813 38.3241C34.6724 44.9216 31.3596 52.97 31.7715 62.2871C31.9632 66.6259 33.3297 70.6981 36.1096 74.2742C40.4735 79.8893 47.557 82.1215 54.6681 80.1247C58.4428 79.0647 61.7137 77.2034 64.4895 74.6151C70.9189 68.6202 74.1003 61.3334 74.342 53.8403ZM36.7929 83.8427C35.08 82.4447 33.5684 81.3899 32.2835 80.1337C26.4331 74.41 23.8411 67.4576 24.0696 59.6674C24.4285 47.4196 29.8173 37.491 40.7168 30.4613C47.176 26.2956 54.4255 24.6816 62.1639 26.4743C72.277 28.8167 78.1613 35.3195 80.8372 44.3606C84.8352 57.8732 78.7293 73.4085 66.5008 81.6227C60.3133 85.7787 53.4577 87.5993 45.8348 86.707C45.2238 86.6354 44.6121 86.5669 43.7224 86.4649C43.2009 87.6221 42.6616 88.7539 42.1751 89.9052C37.0977 101.933 32.0383 113.966 26.95 125.99C25.7777 128.76 22.84 129.191 20.6275 127.034C19.2675 125.708 19.7866 124.417 20.3795 123.011C24.845 112.431 29.2843 101.84 33.7258 91.2504C34.747 88.8168 35.7446 86.3761 36.7929 83.8427Z" fill="black"/>
<path fill-rule="evenodd" clip-rule="evenodd" d="M69.4223 50.0002C69.4223 56.9143 68.5963 66.3929 53.9172 76.0447C66.1472 64.5357 63.2497 52.2006 63.2497 45.6672C63.2497 39.1338 69.4223 43.0862 69.4223 50.0002Z" fill="white"/>
</g>
<defs>
<clipPath id="clip0_3_48">
<rect width="128" height="129" fill="white"/>
</clipPath>
</defs>
</svg>
