<svg width="161" height="162" viewBox="0 0 161 162" fill="none" xmlns="http://www.w3.org/2000/svg">
<path fill-rule="evenodd" clip-rule="evenodd" d="M157.919 71.456L119.048 139.222H41.3042L2.43246 71.456L41.3042 3.68958H119.048L157.919 71.456Z" fill="white"/>
<path fill-rule="evenodd" clip-rule="evenodd" d="M157.02 71.4559L118.598 4.47359H41.7538L3.33196 71.4559L41.7538 138.438H118.598L157.02 71.4559ZM119.497 140.006H40.8545L1.53296 71.4559L40.8545 2.90546H119.497L158.819 71.4559L119.497 140.006Z" fill="black"/>
<path fill-rule="evenodd" clip-rule="evenodd" d="M79.5573 43.5372L81.1783 43.441C86.2031 43.1557 88.9311 43.1777 89.3624 43.5068C94.6632 50.722 96.5584 57.8397 95.0484 64.8603C94.7246 66.366 89.764 67.2975 80.1668 67.6547L79.8746 67.6654L80.9302 77.6732C81.0474 78.1361 81.1107 78.6288 81.1107 79.1397C81.1107 81.8244 79.3667 84.0009 77.2157 84.0009C75.0644 84.0009 73.3207 81.8244 73.3207 79.1397C73.3207 78.8697 73.3382 78.605 73.3722 78.3469L72.8639 78.3472L72.8403 77.4687C72.5795 68.1323 72.1205 63.0441 71.4636 62.2039C63.9275 62.2039 63.9275 58.3961 64.3404 56.3224C64.7533 54.249 69.0883 53.4029 69.8215 53.4029C68.8235 43.5266 71.3586 44.0117 79.5573 43.5372Z" fill="white"/>
<path fill-rule="evenodd" clip-rule="evenodd" d="M95.6507 30.3046C93.4761 29.4524 91.5476 29.9577 89.8902 31.5857C89.788 31.6862 89.6802 31.781 89.5281 31.9147C89.4412 31.991 89.3402 32.0799 89.2175 32.1898C89.0383 31.6967 88.9243 31.3828 88.8102 31.0689C88.2652 29.5697 87.332 28.3761 85.965 27.5688C83.3573 26.0286 80.7277 27.3433 80.3317 30.361C80.3011 30.5927 80.269 30.8242 80.2369 31.0557C80.1516 31.6705 80.0659 32.2853 80.0132 32.903C79.9094 34.1179 79.2978 34.9161 78.1689 35.3141C77.6077 35.5121 77.0428 35.7012 76.4781 35.8902L76.4778 35.8903C75.4334 36.24 74.3892 36.5897 73.3665 36.9958C73.1275 37.0908 72.8876 37.1852 72.6477 37.2796C71.0464 37.9099 69.4356 38.544 67.9516 39.3925C65.6904 40.6856 64.2274 42.7251 63.794 45.3524C63.2655 48.5571 64.3866 51.3863 65.8847 54.0948C65.4548 54.3912 65.0511 54.7418 64.6739 55.1451C63.9834 55.8831 63.6746 56.7669 63.6618 57.788C63.626 60.5944 65.2709 62.4931 68.1307 62.8509C68.6921 62.9215 69.2589 62.9488 69.8711 62.9786C70.086 62.9889 70.3063 62.9996 70.5341 63.0128C70.6282 63.1282 70.7264 63.2461 70.8267 63.3656C70.8361 63.455 70.8448 63.5403 70.8535 63.6228C70.89 63.9721 70.9208 64.2679 70.942 64.564C71.0654 66.2854 71.3091 68.9212 71.5474 71.4992C71.7575 73.7708 71.9634 75.9975 72.0793 77.5139C72.0859 77.5995 72.0893 77.6911 72.093 77.7855C72.117 78.3946 72.1454 79.114 72.9895 78.9873C73.6523 78.8879 73.5535 78.3036 73.465 77.7818C73.4416 77.6428 73.4186 77.5083 73.4114 77.3885C73.2861 75.3703 73.0082 72.2917 72.7443 69.3678C72.6075 67.853 72.4744 66.3795 72.3682 65.1166C72.4769 65.2364 72.581 65.3502 72.6785 65.4568C72.7873 65.5757 72.8655 65.5428 72.9683 65.4995C73.0581 65.4619 73.1668 65.4161 73.3313 65.4568C73.3728 65.3518 73.4176 65.2615 73.4569 65.1827C73.5273 65.0413 73.5784 64.9384 73.5547 64.8575C73.4887 64.632 73.432 64.3974 73.3756 64.1619C73.2173 63.5036 73.0574 62.8396 72.6785 62.3513C72.5075 62.1308 72.2492 61.9762 71.9544 61.8517C71.9369 61.7614 71.9201 61.6704 71.9039 61.5782C71.6528 61.5782 71.4181 61.5829 71.195 61.5873C71.1913 61.5873 71.1879 61.5873 71.1844 61.5876C71.0018 61.5312 70.8211 61.4754 70.6519 61.4133C70.5048 61.3593 69.4993 61.2674 69.4326 61.4133C69.4185 61.444 69.4186 61.4829 69.4295 61.5274C68.688 61.4644 67.9418 61.3944 67.2343 61.1978C65.89 60.8243 65.2553 59.7821 65.0378 58.4344C64.8318 57.1573 65.3472 56.2127 66.3294 55.4816C67.3053 54.7559 68.3763 54.2858 69.6248 54.2977C69.8875 54.3002 70.1508 54.2645 70.4269 54.2243C70.6731 54.1886 70.8186 53.9245 70.7158 53.6968C70.5248 53.2737 70.369 53.0645 70.1104 52.9732C70.8033 52.8999 71.4848 52.9692 71.9843 53.206C72.1853 53.301 72.1959 53.2972 72.342 53.243C72.4233 53.2125 72.5464 53.1668 72.7673 53.1141C73.0877 52.7888 73.0877 52.6007 73.0213 52.2576C72.8427 51.333 72.6386 50.4141 72.4342 49.4948C72.2806 48.803 72.127 48.1114 71.9843 47.4173C71.5353 45.2338 71.7235 44.8819 73.7486 44.0511C73.8046 44.0281 73.861 44.0047 73.9181 43.981C74.3356 43.8072 74.7675 43.6274 75.2012 43.5995C76.6654 43.5048 78.1368 43.4402 79.6031 43.4706C81.0985 43.5017 82.5935 43.5534 84.0886 43.6052C85.6933 43.6607 87.2983 43.7162 88.9034 43.7462C88.9859 43.8967 89.1087 44.0657 89.2751 44.2787C91.4501 47.0608 93.5677 50.559 94.3781 54.1051C95.1886 57.651 95.2989 60.7198 94.5657 64.0596C94.3825 64.8939 93.9727 65.3549 93.1436 65.4917C92.3453 65.6231 91.5485 65.7636 90.7521 65.9041H90.7518C89.3225 66.1562 87.8932 66.4081 86.457 66.6085C83.4754 67.024 80.4859 67.0705 77.5045 66.5213C77.4949 66.5194 77.4849 66.5175 77.4743 66.5157L77.4438 66.5097C77.1163 66.4485 76.413 66.3168 76.3479 66.473C76.2208 66.7757 76.5087 67.497 76.672 67.7858C77.0325 68.4241 77.4556 69.0535 77.9679 69.5723C78.2807 69.889 78.6637 70.171 79.0018 70.4203C79.4324 70.7377 79.7904 71.0015 79.8397 71.2157C80.0275 72.0342 80.6819 76.9883 80.7127 77.8169C80.7402 78.5639 81.3814 78.5178 81.956 78.3968C82.3206 78.3203 81.3696 72.2415 81.2799 71.8275C81.1088 71.036 80.9243 70.2478 80.7268 69.4026L80.7265 69.402C80.6408 69.0353 80.5526 68.6584 80.4619 68.2657C80.7243 68.2657 80.962 68.2663 81.1829 68.2666C81.617 68.2679 81.9875 68.2688 82.358 68.2648C86.2212 68.218 90.0002 67.5481 93.7671 66.7493C94.9147 66.5056 95.5666 65.8915 95.7869 64.7568C95.8193 64.5897 95.8654 64.425 95.9118 64.2607C95.9579 64.0963 96.0043 63.9317 96.0368 63.7645C97.438 56.537 95.3488 50.1613 91.3014 44.2787C91.2107 44.147 91.0297 43.958 90.8188 43.7543C92.4537 43.6746 94.026 43.1712 95.5077 42.4231C98.2472 41.04 99.7472 38.2998 99.33 35.2435C99.0166 32.9478 97.868 31.173 95.6507 30.3046Z" fill="black"/>
<path fill-rule="evenodd" clip-rule="evenodd" d="M22.1048 111.093L21.4234 104.372V102.669L24.0757 97.413L39.2576 87.424L57.8297 81.1522C57.8297 81.1522 68.3645 78.5698 72.7206 78.1344C77.077 77.6992 81.8354 78.5698 81.8354 78.5698L95.0459 79.1925L102.923 84.2673L108.479 94.4687L113.073 108.706L130.899 96.4693L133.268 98.5035L138.953 91.8536L142.806 89.699L143.555 91.2703L140.605 95.4666L145.584 92.209L152.344 90.1604L153.54 91.2703L147.542 96.4693L148.238 99.4754L149.415 99.625V102.669L146.759 105.719L139.56 108.706L135.588 112.251L124.598 123.561L115.103 129.623L110.722 128.927L104.145 121.763L108.479 134.159L100.143 138.656L95.9349 139.091L95.0459 137.644L78.1863 139.8L67.6319 141.208L58.4791 139.091L63.6628 149.375V150.694H62.3345L59.0727 147.726L57.0379 157.282L55.7501 158.95L54.1335 157.761L52.2459 159.846L51.6003 158.95L52.2459 152.528L47.8374 155.61L47.2248 155.039L47.8374 153.51L51.6003 150.062L35.5331 136.374L28.3508 124.518L22.1048 111.093ZM58.5641 133.948V98.6888L49.6341 102.112L38.2496 108.026L38.3315 108.168L38.3873 108.265C38.4241 108.328 38.4783 108.422 38.5481 108.542C38.688 108.783 38.8915 109.132 39.1445 109.564C39.6512 110.428 40.3579 111.623 41.1587 112.95C42.7596 115.603 44.7392 118.787 46.2473 120.897C47.7552 123.008 50.2286 126.057 52.3222 128.575C53.3695 129.835 54.3227 130.964 55.0141 131.776C55.36 132.183 55.6401 132.511 55.8339 132.737C55.9308 132.851 56.0062 132.938 56.0573 132.998L56.1352 133.088L56.1356 133.088L56.163 133.12L58.5641 133.948ZM38.4662 108.089L38.3315 108.168C38.3315 108.168 38.3315 108.168 38.4662 108.089ZM38.8173 108.384C38.7628 108.29 38.7179 108.213 38.6833 108.153L49.7612 102.399L58.2525 99.1439V133.509L56.3434 132.851L56.2929 132.793C56.2421 132.733 56.1667 132.646 56.0701 132.533C55.8763 132.306 55.5962 131.979 55.2509 131.573C54.5601 130.76 53.6076 129.633 52.5612 128.374C50.4673 125.855 48.0007 122.815 46.5004 120.715C45 118.614 43.0261 115.44 41.4251 112.787C40.6252 111.462 39.9191 110.267 39.4131 109.405C39.1601 108.973 38.9569 108.625 38.8173 108.384Z" fill="white"/>
<path fill-rule="evenodd" clip-rule="evenodd" d="M143.601 99.6294C144.662 99.2088 145.751 98.7769 147.282 98.6756C147.316 98.2798 146.953 97.2091 146.3 97.3788C146.158 97.4158 145.997 97.4563 145.82 97.5005C144.493 97.8332 142.339 98.373 141.581 99.1429C141.295 99.4343 140.969 100.052 141.964 100.214C142.539 100.051 143.066 99.8417 143.601 99.6294ZM151.177 92.383C151.459 92.1861 151.71 91.9452 152.031 91.6366C152.255 91.4211 152.088 91.0438 151.779 91.0633C150.247 91.1596 149.079 91.6225 147.98 92.2005C145.513 93.4973 143.088 94.8792 140.688 96.299C140.562 96.3733 140.439 96.4404 140.319 96.4972C139.416 96.9262 138.587 95.7655 139.247 95.0112C139.829 94.347 140.408 93.6865 140.984 93.0278C141.444 92.5035 141.902 91.98 142.36 91.4569C142.545 91.2461 142.66 90.9755 142.651 90.6948C142.649 90.648 142.644 90.6073 142.628 90.5772C141.163 90.697 139.805 91.6485 138.821 92.6687C137.422 94.1215 136.065 95.6322 134.84 97.2342C133.139 99.4575 133.174 99.5303 134.378 102.068L134.425 102.165C134.517 102.36 134.609 102.555 134.7 102.749C134.989 103.364 135.278 103.979 135.592 104.581C136.077 105.511 136.577 106.432 137.059 107.32C137.255 107.68 137.448 108.035 137.635 108.382C138.215 108.163 138.783 107.958 139.338 107.756C140.586 107.304 141.776 106.873 142.931 106.361C144.332 105.741 145.736 105.051 146.976 104.161C148.316 103.2 148.61 102.079 148.082 100.609C147.989 100.348 147.721 100.19 147.45 100.232C147.161 100.277 146.866 100.316 146.571 100.354C145.819 100.454 145.069 100.553 144.436 100.738C143.494 101.012 142.515 101.457 141.662 102.093C141.421 102.232 141.232 103.196 141.883 103.094C142.634 103.064 143.38 102.966 144.121 102.869C144.855 102.773 145.586 102.678 146.315 102.647C146.686 102.632 146.98 102.967 146.904 103.332C146.808 103.796 146.41 103.976 145.98 104.016C144.514 104.154 143.033 104.279 141.567 104.215C140.542 104.169 140.178 103.568 140.228 102.495C140.245 102.108 140.911 101.165 140.911 101.165C139.466 100.958 139.504 99.3669 140.48 98.5872C141.397 97.8546 142.435 97.4537 143.527 97.0727C145.897 96.2466 147.665 94.946 149.552 93.5582C150.079 93.1705 150.616 92.776 151.177 92.383ZM132.308 114.105C133.296 113.101 134.283 112.096 135.274 111.095C135.586 110.78 135.854 110.422 136.109 110.082C136.223 109.93 136.335 109.781 136.446 109.641C134.43 105.531 132.475 101.545 130.531 97.5801C130.449 97.6033 130.381 97.6184 130.322 97.6316C130.22 97.6542 130.147 97.6705 130.09 97.7093C127.922 99.1922 125.755 100.677 123.588 102.162C120.612 104.201 117.636 106.24 114.657 108.275C113.582 109.01 112.874 109.97 112.563 111.254C112.41 111.887 112.195 112.527 111.879 113.09C111.857 113.129 111.829 113.166 111.797 113.201C111.409 113.616 110.67 113.419 110.564 112.858C110.551 112.793 110.55 112.731 110.565 112.672C110.802 111.711 111.118 110.759 111.512 109.851C111.553 109.756 111.593 109.663 111.632 109.571C111.809 109.156 111.975 108.766 112.18 108.419C112.18 108.419 111.75 107.548 111.644 107.226C111.349 106.331 111.086 105.425 110.824 104.518C110.455 103.247 110.087 101.975 109.629 100.737C109.412 100.152 109.197 99.5654 108.982 98.9783C107.846 95.8734 106.706 92.7606 105.274 89.7965C101.205 81.3779 92.6142 77.7078 82.4948 79.0001C82.5421 79.2933 82.5851 79.5729 82.6266 79.843C82.711 80.3917 82.7892 80.9014 82.888 81.4073C83.9016 86.6145 84.918 91.821 85.9345 97.0275C86.7116 101.007 87.4887 104.987 88.2643 108.967C88.3649 109.483 88.4653 110 88.5656 110.517C90.0684 118.254 91.5713 125.993 94.0718 133.487C94.4794 134.708 95.0007 135.891 95.5232 137.075C95.7644 137.622 96.0056 138.169 96.2362 138.72C100.608 137.999 104.14 136.109 107.379 133.517C107.276 133.265 107.179 133.03 107.087 132.808C106.898 132.355 106.73 131.95 106.578 131.539C106.078 130.181 105.555 128.83 105.032 127.478C103.837 124.388 102.641 121.297 101.711 118.127C100.053 112.473 98.5781 106.765 97.1037 101.057C96.5649 98.9714 96.0265 96.8861 95.4787 94.8039C95.3456 94.2962 95.3163 93.7407 95.3575 93.2166C95.374 93.0049 95.6781 92.7377 95.9096 92.649C96.0598 92.5913 96.3811 92.7575 96.507 92.9181C96.6727 93.1285 96.7581 93.4133 96.8385 93.6818C96.8425 93.6959 96.8469 93.71 96.851 93.7238C97.4564 95.7379 98.0587 97.7526 98.6613 99.7671C99.5615 102.777 100.461 105.786 101.37 108.793C102.837 113.647 104.346 118.486 106.729 122.988C107.203 123.882 107.688 124.774 108.232 125.624C109.732 127.967 112.579 129.011 115.209 128.16C118.383 127.134 121.054 125.205 123.422 122.95C126.447 120.07 129.378 117.087 132.308 114.105ZM76.9206 138.388C76.925 138.594 76.9293 138.807 76.9296 139.032C82.6384 138.895 88.1518 138.613 93.5711 137.199C93.5543 137.075 93.5437 136.972 93.5349 136.884C93.5194 136.73 93.5085 136.621 93.4732 136.52C90.7754 128.787 89 120.818 87.4931 112.781C87.04 110.365 86.5876 107.947 86.1355 105.531C85.2166 100.621 84.2977 95.7106 83.3722 90.8017L83.3626 90.75C83.2843 90.3354 83.2052 89.916 83.0796 89.4556C80.4289 90.6333 77.8052 90.6437 75.0283 90.3727C75.0859 90.7478 75.1268 91.111 75.1666 91.4669C75.2112 91.8615 75.2545 92.2472 75.3187 92.6305C75.5 93.7134 75.702 94.7939 75.9039 95.8746C76.3379 98.1977 76.772 100.52 77.0023 102.864C78.1252 114.302 77.8336 125.751 76.934 137.192C76.9035 137.578 76.9116 137.967 76.9206 138.388ZM39.2962 108.17C43.878 117.066 50.2766 124.621 57.0931 131.984C57.7481 125.022 57.6692 118.076 57.5907 111.131C57.548 107.372 57.5053 103.614 57.5792 99.8527C53.6088 100.539 41.1742 106.202 39.2962 108.17ZM60.3315 138.576C60.2159 138.804 60.0963 139.041 59.9648 139.287C64.898 140.335 69.5797 140.336 74.3749 139.632C74.487 119.327 74.0271 99.1906 71.6126 78.789C69.7305 79.2304 67.8684 79.6618 66.0203 80.0899C61.9493 81.0329 57.9475 81.9599 53.959 82.9422C44.6298 85.2405 36.2513 89.6447 28.2963 94.9381C26.3634 96.2246 24.5636 97.6887 23.1624 99.5873C21.9462 101.235 21.4283 103.06 21.5524 105.125C21.705 107.67 22.389 110.075 23.3864 112.374C24.4577 114.844 25.5981 117.283 26.7389 119.722C27.2138 120.738 27.6886 121.754 28.1585 122.772C33.1163 133.51 40.9365 141.773 50.2831 148.713C50.3682 148.776 50.4723 148.813 50.6125 148.863C50.691 148.891 50.7811 148.923 50.8855 148.967C50.9867 148.786 51.0917 148.608 51.1961 148.431C51.4192 148.054 51.6401 147.68 51.8174 147.287C52.5696 145.617 53.3134 143.943 54.0575 142.269C54.8141 140.567 55.5706 138.865 56.3359 137.167C56.8532 136.018 57.3405 134.825 57.3405 134.825C57.3405 134.825 56.5687 133.971 55.7489 133.065C48.6554 125.238 42.1511 116.971 37.1144 107.616C36.8056 107.042 36.5031 106.455 36.2987 105.84C36.2342 105.647 36.4373 105.224 36.6308 105.122C36.824 105.02 37.2515 105.094 37.4111 105.256C37.6666 105.516 37.8701 105.827 38.0704 106.133C38.1517 106.258 38.2324 106.381 38.3156 106.5C39.1115 106.091 39.8933 105.674 40.6688 105.26C42.3901 104.341 44.0817 103.438 45.8329 102.673C48.4014 101.551 51.0154 100.535 53.6294 99.5184C54.7178 99.095 55.8059 98.6719 56.8909 98.2409C56.946 98.2193 57.0009 98.1964 57.056 98.1738C57.2763 98.0835 57.4975 97.9926 57.7269 97.9427C58.6115 97.7495 58.9446 97.9781 59.0412 98.8619C59.073 99.153 59.0667 99.4484 59.0608 99.7438C59.0583 99.8674 59.0558 99.9907 59.0558 100.114C59.0574 100.997 59.0599 101.88 59.0621 102.763C59.0677 104.805 59.0733 106.846 59.0671 108.888C59.0624 110.513 59.0614 112.137 59.0605 113.761C59.058 118.761 59.0555 123.761 58.9346 128.758C58.915 129.583 58.719 131.492 58.7031 131.647L58.7022 131.657C58.7206 131.505 59.9358 132.624 60.2891 132.995C61.452 134.211 62.0677 135.729 61.0706 137.24C60.7992 137.651 60.5752 138.094 60.3315 138.576ZM51.9249 151.956C52.1303 151.743 52.4438 151.676 52.7123 151.807C52.9196 151.908 53.0299 152.141 52.9993 152.371C52.9323 152.879 52.7931 153.571 52.6438 154.313C52.3696 155.675 52.062 157.206 52.1044 158.069L52.1219 158.266C52.1509 158.597 52.602 158.666 52.7276 158.359C52.9473 157.819 53.1614 157.217 53.2312 156.852C53.4346 155.793 53.5518 155 53.6524 154.317C53.8092 153.254 53.9266 152.46 54.2688 151.35C54.3037 151.236 54.3333 151.118 54.3629 151.001C54.4373 150.706 54.5118 150.411 54.6707 150.174C54.8306 149.936 55.2843 149.67 55.4831 149.747C55.7211 149.838 55.9791 150.289 55.9607 150.565C55.9265 151.077 55.7757 151.585 55.6267 152.087C55.6052 152.159 55.5837 152.231 55.5628 152.304C55.3173 153.143 55.2718 153.695 55.2042 154.517C55.1655 154.983 55.1201 155.535 55.0269 156.276C54.9914 156.558 54.9611 156.715 54.9297 156.877C54.8885 157.09 54.8459 157.311 54.7882 157.836C54.7059 158.587 55.7495 158.415 55.8414 158.1C55.871 157.998 55.9003 157.899 55.929 157.801C56.1225 157.142 56.2963 156.548 56.4154 155.944C56.6967 154.516 56.96 153.084 57.2233 151.652C57.4346 150.502 57.6462 149.352 57.8671 148.204C57.8886 148.092 57.9163 147.98 57.9475 147.87C58.1721 147.08 59.1512 146.829 59.7432 147.393C59.8918 147.535 60.0255 147.69 60.1573 147.842C60.3028 148.011 60.4465 148.176 60.6051 148.32C60.9812 148.659 61.2055 148.976 61.4324 149.297C61.5636 149.482 61.6954 149.669 61.858 149.861C62.0733 150.116 62.3965 150.254 62.728 150.231L62.7389 150.231C62.8944 150.22 62.9991 150.064 62.9474 149.916C61.7814 146.566 59.9626 142.782 57.334 140.352C57.3461 140.364 57.0317 141.204 57.0177 141.236C56.6659 142.006 56.3502 142.719 56.0433 143.413C55.0621 145.632 54.1669 147.656 52.4512 150.697C52.1826 151.173 51.8823 151.334 51.3597 151.487C51.3167 151.499 51.222 151.478 51.1226 151.455C50.9945 151.426 50.859 151.396 50.8169 151.434C50.6063 151.625 50.3657 151.829 50.1127 152.044C49.2664 152.762 48.2821 153.598 47.8169 154.45C47.7963 154.848 48.1895 154.87 48.3272 154.799C49.2418 154.324 51.0681 152.846 51.9249 151.956ZM152.043 89.4625C152.602 89.381 153.162 89.2991 153.65 89.9261C154.209 90.644 154.131 91.6799 153.502 92.3357C152.972 92.8873 152.357 93.3716 151.748 93.8348C151.078 94.3441 150.306 94.8409 149.531 95.339C148.942 95.7178 148.351 96.0973 147.804 96.4837C148.298 97.0106 148.761 98.1318 148.539 98.8506C148.863 98.9501 149.406 99.4519 149.598 99.8982C150.313 101.567 149.846 103.779 148.211 105.07C146.925 106.087 145.477 107.109 143.938 107.548C140.056 108.654 137.214 110.958 134.613 113.992C130.934 118.284 126.928 122.312 122.4 125.722C120.564 127.104 118.544 128.3 116.468 129.281C113.255 130.799 110.347 129.951 107.824 127.553C107.788 127.519 107.752 127.487 107.713 127.452C107.353 127.127 106.795 126.623 104.972 123.649C105.18 124.219 105.795 125.592 106.396 126.936C106.958 128.191 107.508 129.421 107.707 129.951C107.89 130.438 108.08 130.923 108.27 131.408C108.471 131.923 108.673 132.437 108.866 132.955C109.091 133.556 109.079 134.096 108.509 134.555C105.028 137.358 101.203 139.418 96.7559 140.169C95.5669 140.37 94.8324 139.814 94.3862 138.696C93.754 138.808 93.128 138.931 92.5054 139.053C91.1378 139.322 89.7874 139.587 88.4244 139.724C86.3227 139.935 85.268 140.003 84.0543 140.082C83.1588 140.14 82.1766 140.204 80.6233 140.335C80.4953 140.346 80.2534 140.342 79.9487 140.338C78.9606 140.323 77.3117 140.299 76.7346 140.721C75.7677 141.497 75.1003 141.513 74.5821 141.526C74.4232 141.529 74.2783 141.533 74.143 141.558C70.4815 142.233 66.8218 141.975 63.1636 141.507C62.541 141.428 61.9172 141.361 61.2177 141.287C60.8678 141.25 60.4988 141.211 60.1019 141.167C60.2153 141.364 60.3159 141.539 60.4085 141.698C60.5855 142.005 60.7307 142.256 60.8712 142.51C61.1333 142.982 61.3978 143.453 61.6627 143.925C62.389 145.218 63.1156 146.511 63.7852 147.834C64.0738 148.402 64.2442 149.088 64.2748 149.735C64.343 151.174 62.8246 152.118 61.6137 151.352C61.2981 151.152 61.0205 150.888 60.7447 150.624C60.6752 150.558 60.6057 150.492 60.5359 150.427C60.3091 150.216 60.0916 149.995 59.804 149.704C59.6578 149.556 59.4939 149.39 59.3014 149.197C59.1967 149.674 59.096 150.123 58.9994 150.555C58.7925 151.481 58.604 152.325 58.4311 153.172C58.2363 154.127 58.055 155.084 57.8736 156.041C57.7683 156.599 57.6627 157.156 57.5546 157.713C57.5169 157.906 57.4729 158.099 57.4143 158.287C56.7634 160.386 55.0026 160.668 54.0637 159.015C53.9213 159.181 53.7531 159.446 53.5752 159.726C53.3122 160.139 53.0283 160.585 52.7768 160.793C51.962 161.467 51.126 161.172 50.9032 160.134C50.7125 159.242 50.7365 158.286 50.7752 157.365C50.8029 156.703 51.1709 154.817 51.399 153.991C51.4407 153.892 51.4731 153.792 51.4931 153.692C51.4663 153.76 51.4342 153.863 51.399 153.991C51.102 154.693 50.3271 155.321 50.047 155.478C49.9024 155.559 49.7603 155.646 49.6179 155.733C49.3019 155.926 48.986 156.119 48.6454 156.245C47.9194 156.513 47.1195 156.756 46.4966 156.047C45.8363 155.294 46.2498 154.512 46.7359 153.935C47.3984 153.149 48.1213 152.415 48.9028 151.621C49.243 151.275 49.5945 150.918 49.9569 150.54C49.793 150.395 49.6219 150.24 49.4446 150.079C49.0358 149.709 48.5943 149.309 48.1372 148.928C47.1556 148.111 46.1666 147.304 45.1776 146.496C44.6928 146.1 44.2079 145.704 43.724 145.307C37.5301 140.226 32.4754 134.167 28.7446 127.061C26.3921 122.579 24.2661 117.972 22.1612 113.364C20.9952 110.811 20.2334 108.109 20.0604 105.263C19.9134 102.836 20.4932 100.662 21.9431 98.7054C23.4207 96.7117 25.2906 95.1542 27.3153 93.7865C35.9986 87.9217 45.2611 83.3283 55.5077 80.9521C57.9621 80.3829 60.4237 79.8444 62.885 79.306C64.8796 78.8697 66.8738 78.4334 68.8649 77.9807C69.6177 77.8095 70.3568 77.5768 71.1984 77.3117C71.348 77.2646 71.5007 77.2166 71.6574 77.1676C72.428 76.9269 73.2643 77.3682 73.4613 78.1561C73.5136 78.3668 73.5538 78.592 73.5859 78.8234C73.9636 81.542 74.3425 84.2601 74.7235 86.978C74.7725 87.328 74.8276 87.6774 74.8871 88.0522C74.9161 88.2375 74.9463 88.4291 74.9775 88.6302C77.6712 89.3183 80.1681 89.1113 82.7272 87.8072C82.6269 87.3377 82.5269 86.8735 82.4278 86.4138C82.1972 85.3427 81.971 84.2927 81.7547 83.2405C81.6915 82.9319 81.627 82.6233 81.5625 82.3144C81.3098 81.1043 81.0571 79.8937 80.8636 78.6739C80.6523 77.344 80.9215 77.1463 82.2308 77.246C82.6693 77.2796 83.112 77.2482 83.5554 77.2168C83.8212 77.198 84.087 77.1791 84.3522 77.1743C88.2366 77.1024 92.044 77.553 95.7033 78.9424C100.034 80.5863 103.314 83.514 105.706 87.449C108.167 91.4986 109.769 95.9317 111.167 100.442C111.646 101.988 112.1 103.542 112.566 105.137C112.781 105.875 112.999 106.621 113.223 107.379C113.948 106.862 114.651 106.355 115.341 105.856C116.854 104.764 118.307 103.716 119.786 102.709C122.623 100.778 125.492 98.8949 128.36 97.0115C128.571 96.8726 128.782 96.734 128.994 96.5953C131.099 95.2123 131.114 95.2239 133.149 96.7954L133.164 96.807C133.436 96.4705 133.702 96.1268 133.968 95.7831C134.57 95.004 135.174 94.224 135.858 93.5243C136.973 92.3837 138.201 91.343 139.458 90.3604C140.002 89.9355 140.722 89.7015 141.397 89.4961C141.432 89.4854 141.468 89.4741 141.505 89.4632C142.319 89.2135 143.219 88.9372 143.866 89.7743C144.471 90.5555 144.054 91.3603 143.651 92.1133C143.597 92.214 143.264 92.8312 142.958 92.9827C143.505 92.7133 144.316 92.3012 144.885 92.0123C145.014 91.9471 145.129 91.8881 145.227 91.8386L145.281 91.8113C147.331 90.7729 149.38 89.7344 151.715 89.5052C151.824 89.4945 151.933 89.4785 152.043 89.4625ZM87.1927 85.4177C87.5969 85.8116 87.5757 86.5273 87.1391 86.8792C87.0316 86.9657 86.9275 87.0297 86.8157 87.0614C86.2934 87.2119 85.8139 86.6013 85.946 85.8969C85.9719 85.7567 86.0417 85.6275 86.1314 85.5021C86.3894 85.1436 86.869 85.1019 87.1793 85.4048L87.1927 85.4177ZM89.8319 97.9678C90.1208 98.4122 89.9637 98.9798 89.425 99.2333C89.3359 99.275 89.2427 99.3041 89.1467 99.3117C88.4188 99.3687 88.2172 98.829 88.1231 98.3579C88.0259 97.8718 88.3216 97.5171 88.9358 97.439C89.2521 97.3989 89.6014 97.6134 89.8319 97.9678ZM96.2091 135.031C96.2785 134.076 97.7038 133.786 98.2126 134.617C98.3282 134.805 98.3906 135.017 98.3875 135.234C98.379 135.813 98.0973 136.251 97.4327 136.32C96.8416 136.381 96.1667 135.74 96.2081 135.043L96.2088 135.038C96.2088 135.036 96.2091 135.033 96.2091 135.031ZM92.2593 115.203C92.9195 114.805 92.9442 113.931 92.3705 113.434C92.196 113.282 92.0265 113.172 91.8396 113.134C91.1989 113.004 90.8664 113.571 90.9138 114.139C90.9621 114.724 91.2073 115.366 91.9661 115.307C92.0651 115.299 92.1611 115.262 92.2593 115.203ZM94.1591 129.184C93.8335 128.655 94.0961 127.264 95.0138 127.592C95.9975 127.943 96.3381 129.523 95.083 129.729C94.7471 129.785 94.3953 129.568 94.1591 129.184ZM93.8303 122.053C94.5224 121.592 94.4972 120.64 93.8042 120.18C93.7175 120.122 93.629 120.077 93.5337 120.047C92.9691 119.869 92.4559 120.466 92.4674 121.139C92.4789 121.821 92.9915 122.364 93.5907 122.171C93.6749 122.144 93.7537 122.104 93.8303 122.053ZM90.8297 106.933C91.35 106.523 91.35 105.724 90.8371 105.305C90.6521 105.154 90.4785 105.041 90.289 104.991C89.7154 104.841 89.3614 105.277 89.3514 105.891C89.3409 106.596 89.9083 107.297 90.4695 107.132C90.595 107.095 90.711 107.026 90.8297 106.933ZM88.1269 91.5127C88.5148 91.9806 88.579 92.7465 87.9063 92.9984C87.8265 93.0282 87.7502 93.0445 87.6741 93.0435C87.0512 93.0335 86.7761 92.4712 86.8802 91.9142C86.935 91.6215 87.1743 91.2003 87.4968 91.164C87.604 91.1517 87.7112 91.1912 87.8062 91.2433C87.9271 91.3101 88.0359 91.4033 88.1269 91.5127Z" fill="black"/>
<path fill-rule="evenodd" clip-rule="evenodd" d="M87.2393 56.8559L87.2395 56.8567C87.3376 57.2647 87.437 57.6781 87.5359 58.0998C87.3095 58.1221 87.0965 58.1391 86.8935 58.1552C86.4082 58.1938 85.9804 58.2278 85.5654 58.3194C85.3654 58.3636 85.1055 58.697 85.0999 58.904C85.0949 59.099 85.3588 59.4293 85.5573 59.4773C86.1559 59.6209 86.7785 59.6965 87.3951 59.726C88.8331 59.795 89.2541 59.3151 88.9537 57.9047C88.6707 56.5757 88.339 55.2566 88.0075 53.9382L87.9248 53.6093C87.9039 53.5259 87.8853 53.4363 87.8663 53.3446C87.7534 52.7996 87.6252 52.1813 86.9003 52.3545C86.1849 52.5249 86.3489 53.1113 86.4921 53.6229C86.5225 53.7316 86.552 53.837 86.5719 53.9342C86.7695 54.902 87.0005 55.8627 87.2393 56.8559ZM81.4957 61.7889C81.8974 63.1186 84.0097 64.5848 85.8385 64.6137C87.0637 64.5786 88.2131 63.691 89.2 62.5444C89.3439 62.3775 89.3963 61.8779 89.2919 61.7986C89.0647 61.627 88.6503 61.4887 88.4191 61.5884C88.1541 61.7024 87.9275 61.9037 87.6998 62.1059C87.5835 62.2093 87.4669 62.3128 87.3447 62.4051C85.8413 63.5423 84.7856 63.4705 83.46 62.1191C83.3253 61.9816 83.2094 61.8229 83.0939 61.6648C82.9387 61.4523 82.7842 61.2408 82.5857 61.0832C82.3663 60.9094 81.9014 60.8 81.7039 60.9214C81.5197 61.0346 81.4172 61.5289 81.4957 61.7889ZM80.0523 57.6105C79.7239 56.5307 80.2647 55.1589 81.1329 54.8692C81.7984 54.6471 82.4394 55.1029 82.7157 55.9942C83.0639 57.1185 82.4984 58.3821 81.5374 58.6272C80.8635 58.7989 80.2953 58.4098 80.0523 57.6105ZM92.0652 58.4715C92.8504 58.5502 93.5397 57.7824 93.5899 56.7726C93.6372 55.8257 92.9664 54.9523 92.1871 54.946C91.466 54.94 90.95 55.6347 90.9089 56.6662C90.8681 57.6924 91.3189 58.3962 92.0652 58.4715Z" fill="black"/>
</svg>
