<svg width="131" height="170" viewBox="0 0 131 170" fill="none" xmlns="http://www.w3.org/2000/svg">
<path d="M63.1701 128.279C97.4899 128.279 125.312 100.498 125.312 66.2282C125.312 31.9586 97.4899 4.17749 63.1701 4.17749C28.8503 4.17749 1.02866 31.9586 1.02866 66.2282C1.02866 100.498 28.8503 128.279 63.1701 128.279Z" fill="white"/>
<path fill-rule="evenodd" clip-rule="evenodd" d="M63.1701 128.959C28.4739 128.959 0.347282 100.874 0.347282 66.2283C0.347282 31.5827 28.4739 3.49713 63.1701 3.49713C97.8663 3.49713 125.993 31.5827 125.993 66.2283C125.993 100.874 97.8663 128.959 63.1701 128.959ZM63.1701 127.599C97.1135 127.599 124.63 100.122 124.63 66.2283C124.63 32.3344 97.1135 4.85789 63.1701 4.85789C29.2267 4.85789 1.71003 32.3344 1.71003 66.2283C1.71003 100.122 29.2267 127.599 63.1701 127.599Z" fill="black"/>
<path fill-rule="evenodd" clip-rule="evenodd" d="M67.3143 34.1178C71.5336 35.3056 74.6309 37.6693 76.6066 41.2089L73.17 42.1595C75.1258 44.5323 76.2468 47.1441 76.533 49.9952L77.0707 51.9043L76.6066 52.8966L79.3247 56.6028L75.4515 56.9514C75.1722 57.4666 74.8375 57.9537 74.4477 58.4123L78.3842 69.7251L75.3867 71.48L69.0357 71.6811L64.9992 71.48L63.9098 66.9035L64.3012 71.1245H64.0963C63.8815 73.1983 62.4506 74.8011 60.7172 74.8011C58.9982 74.8011 57.5769 73.225 57.3438 71.1763L57.3787 71.1245C54.642 75.2207 51.3326 77.2689 47.4508 77.2689C43.5689 77.2689 40.6156 76.8716 38.5906 76.0766C38.2238 65.2814 39.2553 56.6662 41.6853 50.2311L41.8433 49.8147C44.2059 43.6211 46.241 39.7145 47.9486 38.095L51.5611 35.2154C57.8442 33.2958 63.0952 32.93 67.3143 34.1178ZM56.068 57.6555L57.0969 68.2286L57.0519 67.0039C56.871 62.3765 56.6169 59.3262 56.2896 57.8528L56.068 57.6555Z" fill="white"/>
<path fill-rule="evenodd" clip-rule="evenodd" d="M44.7958 64.5472C44.8171 64.4386 44.8386 64.3289 44.8543 64.219C44.9647 63.4428 43.7785 63.2651 43.6504 64.0388C43.6387 64.1101 43.6284 64.1822 43.6183 64.2541C43.6157 64.272 43.6132 64.29 43.6106 64.3077C43.4365 65.5152 43.2287 66.7184 43.021 67.9216C42.5305 70.7618 42.04 73.6022 41.992 76.5012C41.9913 76.5472 41.9839 76.6008 41.9756 76.6612C41.9615 76.7638 41.9449 76.8855 41.9544 77.0177C41.8383 76.9881 41.7142 76.9565 41.5858 76.9239C41.1213 76.8057 40.5999 76.6729 40.1983 76.5556C39.2727 76.2851 38.7906 75.6864 38.8585 74.6927C38.8694 74.5341 38.8652 74.3743 38.861 74.2143C38.8586 74.1264 38.8564 74.0385 38.8565 73.9506C38.8729 66.7056 39.6543 61.9838 41.0506 54.8828C41.9538 50.2894 43.5109 45.9216 46.0355 41.9429C46.9129 40.56 47.8523 39.2213 49.4459 38.5336C49.7081 38.4204 49.9496 38.2062 50.1385 37.9855C51.5694 36.3139 53.4933 35.4618 55.5663 35.1769C57.8584 34.862 60.2034 34.7722 62.5196 34.8263C66.2546 34.9134 69.7307 36.0039 72.8819 38.05C73.9133 38.7197 74.932 39.9533 75.7693 41.0492C76.0498 41.5357 75.1256 41.8468 74.9454 41.8756C74.4693 41.9521 73.9928 42.0286 73.5164 42.1051C73.545 42.083 73.3856 41.8638 73.2858 41.7441C73.1757 41.6122 73.1376 41.6008 73.5017 42.1054C73.4856 42.1006 73.4581 42.0834 73.4158 42.0502C73.1763 41.8625 71.9558 41.7759 71.8244 42.0502C71.8018 42.0973 71.7825 42.1353 71.7666 42.1665C71.726 42.247 71.7083 42.282 71.7168 42.3084C71.7236 42.3288 71.7462 42.344 71.786 42.371C71.7906 42.3739 71.795 42.377 71.7999 42.3803C69.1829 42.7996 66.5658 43.2176 63.9483 43.6332C63.0036 43.7833 62.0581 43.9295 61.1129 44.0756C59.2209 44.3679 57.3291 44.6605 55.4425 44.9835C54.0496 45.2219 54.0471 45.2772 54.0455 46.7239C54.0446 47.5118 54.0472 47.9478 54.0573 48.4317C54.0223 48.4211 53.9852 48.4145 53.9464 48.4132C53.8951 48.4113 53.848 48.4178 53.8082 48.4328C53.712 48.469 53.6157 48.5049 53.5194 48.5408C51.9107 49.1417 50.2945 49.7453 49.2705 51.2928C47.9879 53.2313 48.5706 55.7009 50.5509 56.9209C50.8411 57.0997 51.1402 57.2475 51.4472 57.3672C51.4017 57.4111 51.3591 57.4582 51.3204 57.506C50.5469 58.4665 49.7729 59.4321 49.083 60.4524C48.7571 60.9341 48.9252 61.4757 49.5698 61.5725C50.6201 61.7304 51.674 61.8687 52.7298 61.9887C52.7216 62.0907 52.7209 62.1939 52.725 62.2935C52.7461 62.7964 52.7596 63.3002 52.773 63.8039C52.8071 65.082 52.8412 66.3603 53.0005 67.6225C53.2023 69.2225 53.4999 70.8105 53.802 72.4216C53.9325 73.1178 54.0638 73.8186 54.1886 74.5262C52.6907 75.6526 51.0761 76.5295 49.1418 76.8256C48.9984 76.2688 49.0011 75.7076 49.0039 75.1538C49.0047 74.9804 49.0056 74.8076 49.002 74.6359C48.9859 73.8684 47.8289 73.8564 47.8106 74.6239C47.8029 74.9464 47.8243 75.2708 47.8455 75.5917C47.8789 76.0976 47.9117 76.5951 47.8292 77.0626C47.5849 77.0836 47.3353 77.1092 47.0813 77.135C45.8384 77.2619 44.4922 77.399 43.1737 77.073C43.2051 76.6226 43.2284 76.1773 43.2514 75.7362C43.3018 74.7736 43.3511 73.8314 43.4806 72.9003C43.6936 71.3714 43.9421 69.8473 44.1907 68.3233C44.38 67.1628 44.5693 66.0024 44.7428 64.8397C44.7571 64.7442 44.7763 64.6462 44.7958 64.5472ZM53.8256 62.1068C53.8471 62.3438 53.8531 62.5844 53.8591 62.822L53.8602 62.865C53.9373 65.9387 54.2695 68.9822 54.9454 71.984C55.0015 72.2341 55.0748 72.4799 55.1664 72.7888C55.2155 72.9537 55.27 73.1368 55.33 73.3478C55.4681 73.2011 55.5954 73.0666 55.7151 72.9404C55.9623 72.6794 56.177 72.4527 56.3877 72.2224C56.4474 72.1576 56.5057 72.0833 56.5646 72.0085C56.684 71.8566 56.8064 71.7012 56.9486 71.6098C56.8491 71.5524 56.7663 71.4607 56.7219 71.3344C56.6011 70.9915 56.4984 70.6744 56.4706 70.3508C56.2326 67.5694 56.0195 64.7859 55.8066 62.0026V62.002L55.8064 61.9971C55.7333 61.0424 55.6603 60.088 55.5864 59.1338C55.5671 58.8864 55.5453 58.6396 55.5196 58.3473L55.5194 58.3467C55.5049 58.1813 55.4888 58.0011 55.4717 57.7986C55.2877 57.7986 55.1084 57.7989 54.9323 57.7994C54.8068 57.7997 54.6829 57.8 54.5601 57.8C54.7634 58.9373 54.9549 60.0771 55.1332 61.2185C55.2256 61.8101 54.8715 62.2091 54.2724 62.1511C54.1235 62.1367 53.9745 62.122 53.8256 62.1068ZM57.4845 71.6109C57.5098 71.6256 57.5354 71.6419 57.5619 71.6607C58.068 72.0205 57.7717 72.4067 57.5052 72.7545C57.461 72.8119 57.418 72.8682 57.3793 72.9229C55.8584 75.0844 53.8356 76.637 51.3533 77.4845C47.6509 78.7489 43.8701 78.8417 40.0945 77.786C38.2043 77.2575 37.6933 76.5597 37.6873 74.5847C37.66 65.8943 38.5317 59.7497 40.6783 51.3159C41.6352 47.5564 43.1683 44.0157 45.3481 40.7848C46.2304 39.4771 47.1606 38.1918 48.7191 37.5762C48.9014 37.504 49.0644 37.3922 49.1911 37.2428C51.1971 34.8802 53.9428 34.027 56.847 33.7176C60.2541 33.3548 63.6801 33.4008 67.0384 34.2415C70.4579 35.0974 73.5655 36.5485 76.0498 39.1329C76.0877 39.1723 76.1258 39.2114 76.1642 39.2505C76.2992 39.3886 76.4343 39.5268 76.554 39.6772C77.4482 40.7995 77.1781 42.728 75.7693 42.9716C75.2866 43.0551 74.8037 43.1375 74.3204 43.2191C75.219 44.4675 75.4826 45.0221 75.9868 46.0849L75.9871 46.0852C76.1168 46.3584 76.2624 46.6651 76.4387 47.0255C77.388 48.9662 77.675 51.1663 77.1929 53.3217C77.3575 53.3261 77.6047 53.4082 77.6845 53.5128C78.4324 54.4895 79.1759 55.4744 79.8385 56.5092C80.2133 57.0943 79.9941 57.6136 79.3187 57.7279C78.1086 57.9333 76.88 58.0531 75.654 58.1271C75.5943 58.1309 75.533 58.1113 75.4711 58.0768C75.3174 57.9918 75.2237 57.8468 75.1918 57.6895C75.0667 57.896 74.9408 58.0977 74.8118 58.2942C75.0234 58.3636 75.14 58.5672 75.1891 58.8516C75.6797 61.6934 76.7004 64.3618 77.7213 67.0306C78.0402 67.8639 78.3591 68.6972 78.6616 69.536C79.0653 70.6543 78.8971 71.0021 77.8006 71.5208C76.0427 72.3522 74.1921 72.9624 72.2488 72.9934C70.6598 73.0193 69.0681 72.917 67.4775 72.8146H67.4772H67.4764C66.9967 72.7839 66.5171 72.7528 66.0376 72.7256C65.6683 72.7047 65.2993 72.5811 64.9423 72.4614L64.8886 72.4434C64.462 72.3011 63.9466 72.0997 64.184 71.5491C64.2135 71.4811 64.3009 71.4272 64.4171 71.3864C64.1614 71.1771 64.0671 70.6496 63.9782 70.1532L63.9649 70.0781C63.8561 69.4748 63.812 69.1425 63.7768 68.8768C63.727 68.5032 63.6951 68.2621 63.525 67.5825L63.4909 67.4461L63.4451 67.2624L63.4443 67.2586L63.444 67.2584C63.0769 65.7825 63.069 65.7504 62.3443 65.2961C62.2277 65.245 61.9603 65.0572 61.6836 64.8631C61.5348 64.7589 61.3836 64.6528 61.2517 64.5649C61.0759 64.4481 60.9156 64.3109 60.7823 64.1474C60.6708 64.0105 60.6376 63.9223 60.6515 63.6782C60.6842 63.1001 61.1977 63.0599 61.6667 63.0228C61.7632 63.0155 61.8578 63.0079 61.9458 62.9959C62.2672 62.9526 62.5912 62.9279 62.9153 62.9034C63.2331 62.8792 63.5512 62.8549 63.8668 62.813C68.4851 62.1985 71.5541 60.2341 74.3428 56.4378C76.4793 53.5296 76.6066 50.1626 75.2289 47.3539C75.1343 47.161 75.0468 46.9797 74.9634 46.8075L74.9628 46.8061C74.3777 45.5945 74.0016 44.8156 72.8413 43.4658C70.6432 43.8285 68.4421 44.1755 66.241 44.5198C64.4653 44.7976 62.688 45.0654 60.9104 45.3332C59.4575 45.552 58.0045 45.7711 56.5521 45.9954C56.2585 46.0408 55.9704 46.1214 55.6976 46.1976C55.5747 46.2319 55.4551 46.2653 55.3395 46.2942C55.3395 46.8015 55.3417 47.1874 55.3433 47.5249C55.3471 48.2548 55.3496 48.7574 55.3283 49.7688C55.3264 49.8637 55.3327 49.9688 55.3392 50.0771C55.3667 50.5422 55.3984 51.0696 54.8029 51.114C54.0564 51.1695 54.0749 50.5863 54.091 50.0747C54.0941 49.9756 54.0972 49.8792 54.0946 49.7905L54.0926 49.7247C54.0898 49.6319 54.0872 49.544 54.0847 49.4601C53.891 49.5851 53.6737 49.677 53.4557 49.7693C53.2992 49.8357 53.1423 49.9021 52.9935 49.981C52.8037 50.0815 52.6089 50.1767 52.414 50.272C51.8949 50.5259 51.3741 50.7806 50.9396 51.138C48.9742 52.7537 49.3719 55.2613 51.7305 56.1951C52.1661 56.3674 52.64 56.455 53.1164 56.5214C53.0908 56.1668 53.097 55.8122 53.1549 55.4576C53.7417 55.2074 54.1064 55.359 54.1947 55.8233C54.2456 56.0903 54.2959 56.3573 54.3456 56.6243C54.5012 56.6191 54.6574 56.6079 54.8131 56.5971H54.8135C54.9038 56.5905 54.9939 56.5843 55.0838 56.5791C56.5469 56.4939 56.654 56.5976 56.7208 58.1053C56.73 58.3162 56.739 58.5274 56.748 58.7386C56.7963 59.8593 56.8442 60.9803 56.9345 62.0978C57.1607 64.9018 57.4158 67.7036 57.6758 70.5046C57.6818 70.5691 57.69 70.6339 57.6984 70.6986C57.7249 70.9 57.751 71.1028 57.7052 71.3042C57.6725 71.4468 57.5897 71.5491 57.4845 71.6109ZM73.5031 42.1072C73.5028 42.1066 73.5022 42.106 73.5017 42.1054C73.5036 42.106 73.5052 42.1063 73.5069 42.1066C73.5055 42.1068 73.5044 42.107 73.5031 42.1072ZM60.2176 36.5364C62.5495 36.768 64.8376 37.6593 67.082 38.6706C67.1254 38.6902 67.163 38.7228 67.1968 38.7645C67.4849 39.1232 67.2071 39.671 66.7474 39.6969C66.7035 39.6996 66.6601 39.6974 66.6182 39.6898C66.2748 39.6271 65.9452 39.4873 65.616 39.3476C65.4893 39.2938 65.3625 39.24 65.235 39.1907C63.4909 38.5152 61.7466 37.843 59.8491 37.7306C59.8232 37.729 59.796 37.7281 59.7682 37.7271C59.6403 37.7227 59.5024 37.7178 59.4212 37.6516C59.4029 37.6364 59.3847 37.6211 59.367 37.6054C59.0361 37.3109 59.0811 36.7543 59.4765 36.5546C59.479 36.5535 59.4812 36.5524 59.4833 36.5513C59.5866 36.5002 59.7202 36.5096 59.8979 36.5222C59.9914 36.5288 60.0974 36.5364 60.2176 36.5364ZM76.8841 54.4032C76.6865 54.9693 76.4333 55.5289 76.1228 56.0756C76.0754 56.1592 76.0285 56.2419 75.9822 56.3238L75.9819 56.3241C75.8478 56.5609 75.717 56.7919 75.5873 57.0173C75.5919 57.0162 75.5965 57.0151 75.6012 57.0143C76.2136 56.8934 76.8364 56.824 77.5428 56.7454V56.7451C77.8301 56.7133 78.1312 56.6795 78.4515 56.6403C78.282 56.4066 78.1299 56.1992 77.9909 56.0095L77.9903 56.0089C77.7001 55.613 77.4657 55.2932 77.2435 54.9652C77.2182 54.9279 77.1923 54.8907 77.1664 54.8528C77.0658 54.7072 76.9628 54.5578 76.8841 54.4032ZM74.0514 59.3412C73.4774 60.0441 72.8053 60.6728 71.9204 61.2348C70.3317 62.2437 68.635 62.9951 66.8498 63.5236C66.9327 63.6251 67.0027 63.7432 67.042 63.8458C67.1017 64.0015 67.0998 64.1784 67.0979 64.3572V64.3575C67.0965 64.4813 67.0951 64.6062 67.1142 64.7254C67.4037 66.5219 67.6994 68.3176 68 70.144L68.0005 70.147L68.0008 70.1483L68.0011 70.1505C68.0897 70.6891 68.1791 71.2304 68.2685 71.7753H71.6642C71.6137 71.6011 71.5639 71.4324 71.5151 71.2672V71.2666L71.5148 71.2663C71.4093 70.9085 71.3085 70.5669 71.2166 70.2229C71.1687 70.0433 71.1193 69.8639 71.0703 69.6846C70.8978 69.0551 70.7252 68.4256 70.5996 67.7869C70.5797 67.6856 70.5483 67.5751 70.5159 67.4614C70.3766 66.9726 70.2191 66.4193 70.8765 66.2601C71.5377 66.1003 71.6088 66.6063 71.6751 67.0787C71.6958 67.2262 71.7162 67.3708 71.7538 67.4905C71.9604 68.1467 72.1485 68.8088 72.3368 69.471V69.4712V69.4715C72.472 69.9467 72.6069 70.4221 72.7489 70.8951C72.7944 71.0475 72.8735 71.1899 72.9615 71.3491C73.0054 71.428 73.0514 71.5113 73.097 71.6019C74.6854 71.5603 76.0729 70.9776 77.5804 70.245C77.5256 70.083 77.4722 69.9244 77.4199 69.7684L77.4174 69.7619L77.4169 69.7603L77.4147 69.7537C77.2956 69.3999 77.1809 69.0592 77.0645 68.7187C76.808 67.9689 76.5488 67.22 76.2896 66.471C75.6298 64.563 74.9697 62.6549 74.3504 60.7338C74.2065 60.2864 74.0585 59.8139 74.0514 59.3412ZM65.9581 63.7677C65.664 63.8415 65.3677 63.9098 65.0693 63.9724C64.8845 64.0113 64.701 64.0565 64.4833 64.1104C64.3688 64.1384 64.2448 64.1689 64.1063 64.2021C64.1813 64.6236 64.2554 65.04 64.329 65.4532C64.5097 66.4678 64.6866 67.4614 64.8627 68.455C64.966 69.0385 65.0693 69.6223 65.1658 70.2071C65.1742 70.2591 65.1843 70.313 65.1944 70.3677C65.256 70.7019 65.3252 71.0756 65.1317 71.2952C65.1461 71.2957 65.16 71.2966 65.1737 71.2976C65.5642 71.3265 65.9507 71.4141 66.3996 71.5159L66.4001 71.5162H66.4009C66.6065 71.563 66.825 71.6125 67.0632 71.6607C66.9793 71.2438 66.8964 70.8464 66.8166 70.4624C66.6408 69.6187 66.4783 68.8387 66.3448 68.0536C66.163 66.9835 66.0344 65.9041 65.9087 64.8256C65.8692 64.4859 65.8441 64.1134 65.9463 63.7993C65.9499 63.789 65.9537 63.7783 65.9581 63.7677ZM50.5259 60.4347C51.2366 60.5286 51.828 60.6067 52.3988 60.6818L53.66 60.8484C53.7634 59.9481 53.5769 59.066 53.3923 58.193L53.3923 58.1927C53.3628 58.0533 53.3334 57.9143 53.3052 57.7752C52.9899 57.7515 52.6796 57.7085 52.3755 57.6438C52.3774 57.8547 52.3089 58.1094 52.2084 58.2591C51.885 58.7411 51.5197 59.1948 51.0951 59.7219C50.9163 59.944 50.727 60.1791 50.5259 60.4347ZM57.3272 39.068C57.6916 39.2571 57.6921 39.7889 57.3226 39.9675C57.195 40.0292 57.0814 40.0676 56.9685 40.066C56.2912 40.0551 55.603 39.9792 54.9467 39.8183C54.8541 39.7957 54.7721 39.7293 54.695 39.6433C54.4426 39.3614 54.4914 38.8952 54.8345 38.7349C54.8756 38.7158 54.9165 38.7055 54.9563 38.7082C55.1313 38.7196 55.3087 38.7227 55.4886 38.7259C56.0874 38.7364 56.7091 38.7473 57.3272 39.068Z" fill="black"/>
<path fill-rule="evenodd" clip-rule="evenodd" d="M94.0594 82.5985C94.5134 82.5495 94.9029 82.5033 95.2926 82.4663C99.6017 82.0553 102.825 83.876 104.613 87.8263C105.848 90.553 106.01 93.3586 104.932 96.1925C104.826 96.4693 104.716 96.7447 104.627 97.027C104.6 97.1121 104.639 97.218 104.657 97.411C108.65 98.717 110.945 101.312 110.493 105.767C114.976 108.531 117.043 112.29 115.576 117.7C116.027 117.739 116.445 117.768 116.861 117.814C119.31 118.085 121.124 119.278 122.214 121.516C123.053 123.24 122.942 124.858 121.669 126.346C121.479 126.569 121.305 126.805 121.072 127.101C121.337 127.245 121.533 127.388 121.752 127.464C125.213 128.664 127.104 132.23 126.129 135.757C125.244 138.959 123.034 140.696 119.882 141.401C118.8 141.644 118.287 142.463 118.618 143.421C118.743 143.787 118.977 144.129 119.219 144.438C120.256 145.761 121.348 147.042 122.352 148.389C123.113 149.41 123.846 150.468 124.448 151.586C124.623 151.91 124.733 152.199 124.968 152.338C124.968 152.338 125.411 152.421 125.659 152.468C128.348 152.982 129.226 153.935 129.261 156.683C129.29 158.851 129.026 160.78 128.878 162.946C128.835 163.574 128.722 164.454 128.485 165.045C128.033 166.173 127.108 166.632 125.876 166.441C124.802 166.276 123.729 166.116 122.579 165.942C121.765 167.02 120.595 167.062 119.37 166.105C119.252 166.001 118.802 166.084 118.516 166.105C117.451 166.185 116.658 165.302 116.102 164.938C115.694 164.895 114.439 165.292 113.734 164.591C113.226 164.086 112.911 163.653 112.568 162.839C112.468 162.806 111.7 162.521 111.276 162.399C109.508 161.888 108.569 160.696 108.323 158.895C108.02 156.681 107.82 154.67 108.123 152.166C108.169 151.619 108.298 150.933 108.594 150.769C108.968 150.563 109.637 150.608 109.637 150.608C109.804 150.031 109.83 149.221 109.953 148.663C110.066 148.143 110.083 147.602 110.186 146.7C109.541 147.124 109.167 147.381 108.781 147.62C107.16 148.627 105.433 149.023 103.534 148.6C100.912 148.015 99.1558 145.924 99.0751 143.219C99.0574 142.632 99.0726 142.043 99.0726 141.414C98.6521 141.312 98.3269 141.196 97.9931 141.159C96.0201 140.935 94.5445 139.914 93.6167 138.216C93.0305 137.143 92.5331 135.977 92.2523 134.792C91.4584 131.438 91.5936 128.12 93.1575 124.856C91.7754 124.139 90.4415 123.446 88.9926 122.694C87.4192 123.84 85.6299 124.144 83.785 123.068C83.6485 123.131 83.5329 123.149 83.4762 123.216C80.8159 126.371 75.6922 125.891 72.7203 123.371C71.8579 122.639 71.0618 121.829 70.1292 120.955C69.7874 121.221 69.3606 121.538 68.949 121.874C65.9774 124.3 62.5416 125.589 58.7499 125.855C56.9546 125.98 55.1561 125.606 53.6486 124.584C52.6734 123.923 51.9332 124 50.9601 124.508C49.1957 125.429 47.293 125.826 45.3884 124.981C44.4187 124.55 43.5669 123.853 42.5217 123.187C40.5711 126.028 37.657 127.423 34.0991 126.794C30.3398 126.13 28.6835 123.317 27.9662 119.739C27.4977 119.957 27.1112 120.159 26.7089 120.321C26.0692 120.578 25.4344 120.871 24.77 121.043C21.7845 121.813 19.4626 120.614 18.3457 117.758C17.655 115.993 17.6278 114.19 18.0726 112.365C18.2342 111.702 18.3912 111.038 18.5566 110.348C18.2497 110.185 18.0451 110.056 17.8251 109.964C17.4602 109.812 17.0775 109.703 16.7156 109.544C13.0637 107.944 12.3684 104.623 15.0702 101.657C15.4302 101.262 15.8429 100.915 16.2909 100.489C16.1042 100.219 15.9527 99.9757 15.7788 99.7501C14.4708 98.0532 14.3842 96.5129 15.5286 94.6968C16.361 93.3752 17.5128 92.3704 18.7856 91.4914C19.1824 91.2176 19.5754 90.9381 20.2026 90.4977C19.8807 90.3192 19.6883 90.2468 19.5373 90.1235C17.8584 88.7527 17.8878 86.6604 19.5089 85.0865C20.7024 83.9283 22.1191 83.1194 23.6432 82.5204C26.559 81.3752 29.5644 80.6009 32.7268 80.5846C33.0165 80.5832 33.306 80.534 33.5962 80.5065C33.6494 80.3135 33.7279 80.1742 33.7181 80.0411C33.5998 78.4068 34.5472 77.4693 35.8592 76.7973C37.9748 75.7139 40.2337 75.6856 42.5244 75.9667C42.8128 76.0024 43.0968 76.0772 43.4598 76.1491C44.2535 74.1665 45.906 73.7484 47.7868 73.691C49.6873 73.633 51.529 73.9509 53.3556 74.4215C53.7214 74.5154 54.0923 74.5895 54.4785 74.6768C54.2913 71.6588 55.4409 69.9059 58.5537 71.7976C61.0742 69.3449 61.561 69.3098 63.966 71.4773C64.2233 71.3188 64.4855 71.0957 64.7885 70.9833C65.5634 70.6961 66.3448 70.2878 67.1447 70.2328C69.2426 70.0889 70.4745 71.6134 70.034 73.6567C69.9117 74.2231 69.7416 74.7789 69.5603 75.4646C70.5483 75.344 71.414 75.1679 72.2831 75.1497C73.4139 75.126 74.5581 75.1467 75.6775 75.2948C77.2901 75.5079 78.4937 76.4177 79.195 77.7079C81.0955 77.3454 82.8742 76.9742 84.6645 76.6738C86.411 76.3812 88.1063 76.7081 89.7716 77.245C91.8307 77.9088 93.1166 79.2753 93.593 81.3937C93.6576 81.6819 93.7307 81.969 93.8168 82.2518C93.844 82.3411 93.9266 82.4132 94.0594 82.5985Z" fill="white"/>
<path fill-rule="evenodd" clip-rule="evenodd" d="M121.499 165.583C121.464 165.786 121.269 165.92 121.064 165.898C120.093 165.796 120.009 165.16 119.939 164.636C119.933 164.591 119.927 164.547 119.921 164.503C119.839 163.95 119.828 163.328 120.005 162.809C120.187 162.275 120.825 162.385 121.112 162.953C121.365 163.454 121.659 164.64 121.499 165.583ZM118.812 164.83C118.821 165.021 118.655 165.176 118.465 165.151H118.463C117.911 165.081 117.454 165.023 117.136 164.671C116.752 164.245 116.572 163.388 116.656 162.817C116.694 162.561 116.89 162.218 117.102 162.131C117.293 162.054 117.679 162.2 117.852 162.373C118.51 163.028 118.763 163.844 118.812 164.83ZM113.958 160.941C114.064 160.661 114.413 160.553 114.652 160.734C115.549 161.411 115.562 162.319 115.576 163.247C115.579 163.471 115.582 163.696 115.598 163.919C114.848 164.188 114.293 163.95 113.925 163.373C113.412 162.567 113.632 161.802 113.958 160.941ZM71.5848 82.0896C71.8004 81.9271 72.1158 82.0539 72.1512 82.3212C72.2659 83.1959 71.9637 83.8872 71.6015 84.5338C70.9217 85.7481 70.194 86.9361 69.4663 88.1235C69.342 88.3265 69.2175 88.5295 69.0935 88.7328C68.9825 88.9144 68.8536 89.0864 68.725 89.2584C68.5244 89.5256 68.3249 89.7921 68.196 90.0903C68.1821 90.1227 68.1714 90.1565 68.1633 90.1913C68.0447 90.7122 68.6541 91.1185 69.1172 90.8496C69.1611 90.8243 69.2022 90.7958 69.2398 90.7631C69.538 90.5043 69.7506 90.135 69.955 89.7798C69.9738 89.7469 69.9926 89.7142 70.0114 89.6818C70.7852 88.3456 71.5467 87.0028 72.3085 85.6597C72.4251 85.4542 72.5415 85.249 72.6579 85.0435C72.687 84.9926 72.7157 84.9415 72.7445 84.8903C73.076 84.3014 73.4088 83.7103 73.9721 83.2658C74.2122 83.0756 74.5698 83.1717 74.6816 83.4563C74.9293 84.0856 74.6448 84.7017 74.3921 85.249C74.3809 85.273 74.37 85.2966 74.3591 85.3206C73.7162 86.72 72.9964 88.0846 72.2771 89.4486C72.1436 89.7017 72.0103 89.9545 71.8773 90.2076C71.7069 90.5315 71.4998 90.8368 71.2891 91.1476L71.2665 91.1809C71.0539 91.4946 71.2482 91.9527 71.6276 91.9666C71.9209 91.9774 72.1594 91.732 72.3453 91.4451C72.817 90.7187 73.2594 89.9733 73.7017 89.2276C73.9408 88.8251 74.1795 88.4223 74.4232 88.0225C74.6232 87.6943 74.8342 87.3726 75.0678 87.0166C75.1814 86.843 75.3005 86.6612 75.4264 86.4666C76.2902 87.3585 76.3763 88.2498 76.1345 89.1773C75.4234 91.904 73.7197 93.8049 71.0962 94.7978C69.9964 95.2141 68.8081 95.4414 67.6391 95.6216C66.6934 95.7674 65.7367 95.8434 64.7419 95.9223C64.2999 95.9574 63.8501 95.9933 63.3906 96.036C62.7918 93.9642 61.2328 92.9855 59.0565 92.6429C59.3165 91.6658 59.4577 90.6695 59.5984 89.6788C59.8753 87.7248 60.1495 85.7931 61.3252 84.0785C61.4201 83.9402 61.6182 83.9057 61.7499 84.0094C62.2767 84.4244 62.2882 84.9472 62.2993 85.4433L62.2999 85.4711C62.3067 85.7694 62.2898 86.069 62.2726 86.3684C62.2503 86.7619 62.2279 87.1549 62.2598 87.5441C62.301 88.0454 62.3756 88.7832 62.6973 88.9723C63.2732 89.3112 63.6245 88.8009 63.9232 88.3673C63.9695 88.2998 64.0148 88.2343 64.0592 88.1741C64.6752 87.3408 65.256 86.4772 65.7872 85.5881C66.1197 85.0313 66.4306 84.4617 66.7414 83.8923C67.0703 83.2895 67.3993 82.6867 67.7539 82.0994C67.9727 81.7374 68.2551 81.4144 68.5459 81.0813C68.5917 81.0293 68.6375 80.9768 68.6833 80.9237C68.8465 80.7354 69.1414 80.7514 69.2886 80.9523C69.6653 81.4658 69.5285 82.0096 69.3426 82.4532C68.7332 83.9046 68.042 85.3249 67.3132 86.7208C67.0594 87.2069 66.7408 87.6589 66.4219 88.111C66.2543 88.3486 66.087 88.5861 65.9286 88.8286C65.7032 89.1751 65.489 89.6244 65.9902 89.8234C66.2548 89.9284 66.7239 89.7393 66.9973 89.5409C67.2017 89.3923 67.3325 89.1359 67.4603 88.8861C67.4952 88.8175 67.5301 88.7494 67.5661 88.6841C67.8803 88.1148 68.1913 87.5433 68.5023 86.972C68.9948 86.0668 69.4876 85.1614 69.994 84.2641C70.0567 84.1533 70.1177 84.0409 70.1793 83.9283C70.5355 83.2751 70.9007 82.6061 71.5848 82.0896ZM120.864 154.264C120.594 153.772 119.836 154.037 119.921 154.592L119.922 154.6C120.134 155.917 120.387 157.228 120.669 158.532C120.762 158.958 120.922 159.4 121.166 159.757C122.088 161.105 123.882 160.995 124.483 159.481C124.808 158.661 124.912 157.744 125.014 156.845C125.029 156.711 125.044 156.579 125.06 156.447C125.119 155.948 125.104 155.441 125.089 154.945C125.082 154.727 125.076 154.51 125.076 154.298C125.533 154.178 125.832 154.271 126.124 154.421C126.743 154.741 127.14 155.371 127.192 156.064L127.193 156.074C127.42 159.033 127.379 161.861 126.891 164.82L126.89 164.823C126.857 165.032 126.695 165.199 126.486 165.236C125.504 165.412 124.354 165.162 123.343 164.941C123.136 164.896 122.935 164.853 122.742 164.814C122.689 164.788 122.643 164.581 122.592 164.356C122.556 164.198 122.518 164.03 122.474 163.909C122.436 163.636 122.387 163.457 122.333 163.265C122.303 163.154 122.271 163.038 122.239 162.898C121.894 161.371 120.979 160.953 119.508 161.642C119.42 161.683 119.335 161.73 119.231 161.788C119.176 161.818 119.116 161.852 119.046 161.889C118.341 161.197 117.553 160.603 116.505 161.042C114.571 158.666 113.28 159.456 112.593 161.597C110.193 161.105 109.554 160.549 109.31 158.195C109.166 156.794 109.152 155.378 109.138 153.965C109.136 153.798 109.135 153.631 109.133 153.463C109.128 153.039 109.157 152.591 109.226 152.078C109.254 151.871 109.444 151.723 109.652 151.747C110.158 151.808 110.654 151.869 111.07 151.94C111.998 152.096 112.924 152.257 113.851 152.418C115.071 152.63 116.292 152.842 117.514 153.044C117.591 153.057 117.674 153.076 117.759 153.096C118.18 153.192 118.664 153.303 118.776 152.743C118.895 152.154 118.399 152.102 117.981 152.057C117.887 152.047 117.797 152.038 117.719 152.023C116.504 151.789 115.285 151.579 114.066 151.368C113.332 151.241 112.599 151.114 111.867 150.983C111.738 150.96 111.612 150.943 111.483 150.926C111.233 150.893 110.971 150.859 110.654 150.772C110.739 150.325 110.817 149.87 110.896 149.415C110.975 148.958 111.053 148.501 111.138 148.053C112.88 147.716 113.781 146.377 114.615 145.135L114.665 145.061C115.244 144.951 115.79 144.847 116.341 144.742C116.812 144.652 117.287 144.562 117.789 144.466C117.96 144.678 118.199 144.976 118.44 145.273C118.773 145.683 119.1 146.099 119.427 146.515C120.172 147.463 120.917 148.41 121.736 149.288C123.205 150.861 123.932 152.696 123.974 154.789C123.998 156.015 123.867 157.255 123.675 158.468C123.612 158.862 123.182 159.423 122.833 159.497C122.208 159.63 121.905 159.04 121.781 158.48C121.675 157.998 121.583 157.513 121.491 157.028C121.399 156.542 121.308 156.057 121.201 155.575C121.175 155.458 121.156 155.338 121.137 155.216C121.088 154.905 121.037 154.58 120.864 154.264ZM16.3893 101.731C16.6886 101.425 17.0026 101.105 17.3179 100.751C17.2571 100.641 17.1942 100.506 17.1244 100.357C16.9461 99.9757 16.7248 99.5027 16.3907 99.1302C15.0914 97.6828 15.4915 96.3106 16.237 95.1959C17.2509 93.6798 18.6605 92.5985 20.244 91.7284C20.3514 91.6694 20.4634 91.6179 20.5751 91.5668C20.7414 91.4908 20.9074 91.4149 21.0573 91.3137C21.4958 91.0184 21.5283 90.4928 21.1312 90.1442C20.9436 89.9793 20.7379 89.8345 20.5324 89.6897C20.2936 89.5215 20.0551 89.3533 19.8455 89.1544C18.9447 88.3004 18.8156 87.3261 19.6117 86.382C20.1748 85.7141 20.8744 85.1021 21.6286 84.6625C25.1755 82.5961 29.0395 81.6697 33.1373 81.6811C33.2545 81.6814 33.3717 81.6936 33.4889 81.7061C33.6189 81.72 33.7491 81.7336 33.8786 81.7309C34.7077 81.7127 34.9132 81.4577 34.7903 80.6325C34.53 78.8913 34.7889 78.338 36.4008 77.6451C38.5256 76.7312 40.7253 76.6463 42.9485 77.2722L42.9777 77.2804C44.1606 77.6135 44.1878 77.6211 44.4792 76.3891C44.7157 75.3892 45.4857 75.1056 46.3241 74.911C47.8561 74.5552 49.3968 74.7046 50.8988 75.0398C51.8195 75.245 52.7235 75.5234 53.6281 75.8015C54.0958 75.9455 54.5638 76.0895 55.034 76.2234C55.0863 76.2381 55.1389 76.2506 55.1926 76.2617C55.6317 76.3526 56.025 75.9626 55.944 75.5226C55.8955 75.2599 55.8181 74.997 55.7407 74.7345C55.4967 73.9071 55.2542 73.0841 55.9298 72.2944C56.1103 72.0837 56.4199 72.0372 56.6565 72.1825L56.6802 72.1972C57.0241 72.4086 57.3773 72.6259 57.7265 72.8496C58.5927 73.4049 58.7725 73.3728 59.4144 72.5233C59.4869 72.4273 59.5569 72.3287 59.627 72.2301C59.787 72.0047 59.947 71.7793 60.1383 71.5842C60.8442 70.8643 61.4441 70.852 62.2157 71.514C62.3803 71.6551 62.5405 71.8301 62.7 72.0043C63.0396 72.3751 63.3764 72.7427 63.7452 72.7748C64.0769 72.8036 64.4255 72.5244 64.7858 72.2358C64.9976 72.0661 65.2137 71.8932 65.4328 71.7775C65.8607 71.551 66.3462 71.3657 66.8234 71.3101C68.3649 71.1308 69.1976 72.0769 68.7972 73.5794C68.629 74.2085 68.3579 74.8125 68.0883 75.4134C68.0332 75.5362 67.9782 75.6589 67.924 75.7817C67.8741 75.8946 67.8272 76.0059 67.7893 76.1142C67.6078 76.6324 68.0769 77.1432 68.6108 77.0093C68.8264 76.9552 69.0398 76.9005 69.2515 76.8463C70.179 76.6087 71.0735 76.3796 71.9822 76.2449C72.8983 76.1093 73.8601 76.176 74.7909 76.265C76.3665 76.4158 77.6349 77.0752 78.2795 78.6398C78.292 78.6714 78.3076 78.7018 78.325 78.7315C78.5575 79.1267 79.0759 79.2451 79.4902 79.0472C81.1045 78.2751 82.8112 77.92 84.5661 77.7196C86.3325 77.5177 88.018 77.791 89.668 78.4076C91.1897 78.9762 92.103 80.052 92.4355 81.631C92.4764 81.8245 92.5243 82.0164 92.5726 82.2083C92.9501 83.7176 93.0681 83.741 94.5938 83.6384L94.693 83.6316C95.8906 83.5511 97.1304 83.4675 98.2888 83.6972C101.009 84.2369 102.634 86.1863 103.689 88.5802C104.791 91.0834 104.855 93.6523 103.702 96.2059C102.944 97.8853 103.05 98.0309 104.891 98.7007C106.999 99.4679 108.645 100.734 109.205 103.026C109.355 103.639 109.418 104.308 109.348 104.931C109.226 105.994 109.528 106.675 110.527 107.202C112.908 108.459 114.215 110.539 114.856 113.12C115.239 114.664 114.829 116.054 114.328 117.46C114.296 117.549 114.264 117.638 114.232 117.727C114.21 117.788 114.187 117.85 114.165 117.913C113.951 118.503 114.434 119.116 115.059 119.041C115.177 119.027 115.291 119.012 115.405 118.993C117.767 118.61 119.897 119.615 121.046 121.668C121.964 123.308 121.848 124.463 120.624 125.864C119.728 126.891 120.075 128.101 121.383 128.49C124.323 129.365 125.983 132.704 124.986 135.763C124.332 137.766 123.054 139.197 121.04 139.906C120.389 140.136 119.714 140.32 119.035 140.451C118.206 140.611 117.779 141.01 117.6 141.886C117.27 143.505 116.828 143.826 115.138 143.771C114.372 143.746 113.963 144.071 113.578 144.654C112.763 145.887 112.377 146.094 111.633 146.493C111.526 146.55 111.412 146.611 111.288 146.68C111.322 146.389 111.387 146.139 111.448 145.907C111.508 145.677 111.564 145.465 111.579 145.249C111.595 145.033 111.484 144.814 111.289 144.72C111.001 144.582 110.713 144.759 110.432 144.97C110.179 145.16 109.93 145.356 109.681 145.551C109.229 145.908 108.776 146.264 108.3 146.584C106.888 147.533 105.355 147.97 103.645 147.533C101.503 146.986 100.159 145.36 100.084 143.165C100.065 142.608 100.097 142.05 100.129 141.493C100.131 141.457 100.133 141.421 100.135 141.385C100.176 140.652 99.8543 140.266 99.1113 140.239C95.5423 140.112 94.0337 137.794 93.2452 134.729C92.457 131.664 92.5633 128.661 93.8767 125.734C94.5355 124.265 94.4256 124.067 92.8893 123.435C92.7209 123.365 92.5513 123.299 92.3815 123.232C92.0902 123.118 91.7985 123.003 91.5135 122.874C89.5249 121.977 88.6435 120.524 88.9766 118.363C89.1701 117.105 89.5336 115.855 89.9727 114.656C89.9934 114.6 90.0139 114.545 90.0335 114.491C90.8302 112.321 90.8473 112.275 88.9654 110.816C87.4331 109.629 86.4432 108.11 86.2636 106.212C86.1903 105.437 86.3099 104.644 86.4293 103.851C86.4795 103.518 86.5296 103.185 86.5653 102.854C86.5877 102.647 86.616 102.44 86.6465 102.234C86.7318 101.655 85.8946 101.422 85.697 101.971C85.6561 102.086 85.6305 102.207 85.6092 102.321C85.5302 102.746 85.4424 103.171 85.3546 103.597C85.0824 104.919 84.809 106.246 84.7885 107.574C84.7531 109.905 85.1306 112.226 86.8272 114.059C85.5462 116.873 85.1279 119.604 87.1875 122.255C86.1437 122.912 85.2453 122.74 84.3898 122.102C83.7523 121.627 83.2473 121.763 82.6856 122.276C79.7739 124.938 76.0849 124.992 73.1032 122.369C72.4586 121.801 71.8838 121.154 71.2627 120.456C71.2125 120.4 71.1624 120.343 71.1117 120.286C70.6606 119.779 69.8983 119.692 69.3437 120.083C69.0992 120.256 68.8558 120.436 68.6252 120.631C66.0641 122.798 63.1298 124.105 59.8137 124.639C57.4921 125.013 55.3547 124.601 53.4344 123.3C52.5706 122.715 51.8699 122.686 50.9844 123.194C50.2627 123.607 49.457 123.916 48.6514 124.135C47.0812 124.561 45.6209 124.264 44.61 123.49C45.3066 122.822 46.0046 122.153 46.9223 121.274C48.8708 122.211 51.0166 121.33 52.9866 119.821C54.9824 118.292 55.6913 116.116 55.7865 113.756C55.8241 113.715 55.8554 113.675 55.8832 113.638C55.9345 113.571 55.9748 113.519 56.0241 113.508C58.7344 112.914 60.2647 110.564 59.9938 107.877C59.9914 107.853 59.9889 107.827 59.9862 107.802C59.9579 107.531 59.926 107.226 60.0347 107.008C60.9159 105.236 60.6253 103.445 60.1947 101.643C60.1336 101.387 60.0851 101.127 60.0355 100.862C60.0118 100.736 59.9878 100.608 59.9622 100.479C60.0377 100.419 60.1064 100.356 60.1721 100.296C60.307 100.172 60.4302 100.06 60.5752 100.005C61.6128 99.61 62.3032 98.8555 62.7768 97.8995C63.0257 97.3976 63.3664 97.1717 63.9186 97.116C65.4953 96.9567 67.0711 96.7842 68.6399 96.5635C72.0869 96.0785 74.8628 94.5261 76.4793 91.3349C76.8723 90.5595 77.1141 89.7145 77.2196 88.852C77.4327 87.1078 77.0691 86.4002 75.6922 85.1894C75.7012 85.0449 75.7129 84.8982 75.7246 84.7496C75.751 84.4181 75.778 84.0785 75.7769 83.7388C75.7723 82.1029 74.6249 81.8743 73.5535 82.052C73.4346 81.9187 73.3232 81.7682 73.212 81.6182C72.9585 81.2764 72.7069 80.937 72.3728 80.8053C72.0602 80.682 71.6633 80.7707 71.2395 80.8655C71.0457 80.9087 70.8462 80.9534 70.6467 80.9795C70.6658 80.9988 70.5775 80.9411 70.5347 80.8595C69.6519 79.1664 68.5939 79.3975 67.577 80.4981C66.9978 81.2546 66.5203 82.0888 66.0431 82.9229C65.831 83.2936 65.619 83.6643 65.398 84.0281L65.3966 84.0306C64.845 84.9385 64.2933 85.8464 63.4811 86.6661C63.4721 86.5809 63.4637 86.4955 63.4549 86.4103C63.4367 86.2269 63.4181 86.0434 63.3963 85.8603C63.3754 85.6872 63.3587 85.5133 63.3421 85.3394C63.302 84.9219 63.262 84.5041 63.1641 84.1005C63.0061 83.4493 62.6215 82.7923 61.9161 82.8075C61.4018 82.819 60.6905 83.1377 60.4299 83.5489C59.8578 84.45 59.4256 85.4686 59.1059 86.4919C58.8805 87.2129 58.7565 87.9654 58.6382 88.683C58.5877 88.9881 58.5387 89.2869 58.4831 89.5746C57.4101 89.8081 56.4003 90.0277 55.2384 90.2806L54.3548 90.4727C54.1806 90.384 54.0002 90.2798 53.8116 90.1709C52.9408 89.6682 51.8983 89.0662 50.5412 89.4442C49.3426 89.7784 48.7607 90.673 48.1542 91.6054C47.9605 91.9037 47.764 92.2058 47.5437 92.4948C47.3892 92.4714 47.2327 92.4477 47.0755 92.424C46.758 92.3761 46.4364 92.3277 46.1145 92.2779C43.6708 91.8993 41.2576 92.4752 40.048 95.1562C39.6185 96.1084 38.8685 96.1855 38.1001 96.2644C38.0129 96.2734 37.9252 96.2823 37.8379 96.2927C36.15 96.4914 34.9947 97.3699 34.3324 98.9021C34.201 99.2061 34.1116 99.5898 34.1803 99.8976C34.1907 99.945 34.2127 99.9899 34.2441 100.034C34.4845 100.374 35.0219 100.258 35.1449 99.8603C35.1757 99.7618 35.2046 99.6726 35.2359 99.5846C35.6475 98.4272 36.406 97.6535 37.6564 97.4336C37.685 97.4284 37.7139 97.4221 37.7428 97.4156C37.812 97.4004 37.8813 97.3848 37.95 97.387C39.6351 97.4355 40.6537 96.6193 41.3552 95.0993C41.972 93.7633 43.268 93.2732 44.6978 93.293C45.4843 93.3039 46.2742 93.4375 47.0523 93.5742C47.8394 93.7121 48.3922 93.5072 48.7552 92.7591C48.991 92.2727 49.2886 91.8054 49.623 91.3795C50.4785 90.2909 51.4736 90.1173 52.7257 90.7811C52.744 90.7909 52.7625 90.8036 52.7781 90.8178C53.8819 91.8109 54.9898 92.0792 56.3136 91.1057C56.708 90.8156 57.5103 90.6668 58.3861 90.5802C58.2828 90.8774 58.1819 91.1779 58.0882 91.4579C57.959 91.8422 57.8431 92.1881 57.751 92.4347C57.4468 93.2484 57.5545 93.4492 58.4305 93.6509C58.618 93.6942 58.8077 93.7306 58.9977 93.7671C59.3939 93.8433 59.79 93.9195 60.1636 94.0567C61.208 94.4391 62.1606 95.0242 62.1045 96.3297C62.0584 97.3933 61.3956 98.3368 60.4528 98.8362L60.4517 98.8368C58.6523 99.7898 58.6333 99.8002 59.0988 101.791L59.1026 101.807C59.2588 102.475 59.4158 103.147 59.5087 103.826C59.7564 105.638 59.2037 106.797 57.6131 107.635C56.9233 107.999 56.1577 108.254 55.3981 108.445C54.3103 108.719 54.2403 108.768 54.2117 109.914C54.2062 110.13 54.2016 110.346 54.1972 110.561C54.1768 111.528 54.1563 112.496 54.0525 113.454C53.5704 117.894 48.2717 119.615 45.3243 117.957C44.0494 117.24 43.694 117.466 43.0774 118.808C42.942 119.103 42.809 119.4 42.676 119.697C42.2026 120.754 41.7283 121.813 41.1363 122.8C40.0791 124.564 38.3721 125.463 36.3673 125.753C32.5605 126.303 29.381 123.805 28.9662 119.981C28.955 119.875 28.9523 119.768 28.9495 119.661C28.946 119.52 28.9427 119.378 28.9187 119.241C28.7688 118.372 28.3649 118.139 27.5696 118.482C27.3777 118.565 27.1965 118.673 27.0155 118.781C26.855 118.876 26.6942 118.972 26.5257 119.051C26.3707 119.123 26.2158 119.198 26.061 119.273C25.5459 119.522 25.0292 119.772 24.4868 119.933C21.8902 120.701 19.9903 119.731 19.0551 117.21C18.5992 115.98 18.4198 114.721 18.718 113.423C18.7799 113.152 18.8439 112.882 18.9082 112.612C19.0497 112.016 19.1911 111.419 19.3102 110.819C19.5057 109.835 19.3089 109.493 18.3754 109.097C18.1252 108.991 17.8704 108.895 17.6152 108.799C17.1743 108.632 16.7333 108.466 16.3187 108.249C14.2119 107.147 13.6734 105.651 14.838 103.595C15.2157 102.928 15.7712 102.361 16.3893 101.731ZM94.4003 82.552C94.2643 82.5672 94.1239 82.5827 93.9765 82.5985C93.9277 82.5308 93.8857 82.478 93.8508 82.4341C93.7901 82.3582 93.7505 82.3084 93.7331 82.2518C93.6473 81.969 93.5739 81.6819 93.5091 81.3937C93.0316 79.2753 91.7427 77.9085 89.6786 77.245C88.0095 76.7081 86.3102 76.3812 84.5596 76.6738C83.3179 76.8817 82.0816 77.1234 80.8069 77.3727C80.2391 77.4837 79.6641 77.5964 79.077 77.7079C78.3743 76.4177 77.1678 75.5079 75.5513 75.2945C74.4295 75.1467 73.2826 75.126 72.1493 75.1497C71.5535 75.162 70.9596 75.2482 70.327 75.3402C70.0343 75.3827 69.7331 75.4265 69.42 75.4646C69.4794 75.2403 69.5374 75.0302 69.5933 74.8288C69.7081 74.4143 69.8122 74.0378 69.8948 73.6567C70.336 71.6134 69.1014 70.0889 66.9986 70.2328C66.3941 70.2743 65.8005 70.5162 65.2121 70.7559C65.0197 70.8343 64.8281 70.9124 64.6365 70.9833C64.426 71.0612 64.235 71.1924 64.0518 71.3184C63.9709 71.3741 63.8913 71.4287 63.8123 71.4773C61.4018 69.3098 60.914 69.3449 58.3871 71.7976C55.2673 69.9059 54.1149 71.6588 54.3024 74.6768C54.1787 74.6489 54.0563 74.6223 53.935 74.5959C53.6777 74.54 53.4262 74.4853 53.1768 74.4212C51.3458 73.9506 49.5004 73.633 47.5952 73.691C45.7097 73.7484 44.0537 74.1665 43.2581 76.1491C43.1388 76.1254 43.0278 76.1014 42.9226 76.0788C42.7071 76.0323 42.5149 75.9907 42.3203 75.9667C40.0241 75.6856 37.7603 75.7136 35.6393 76.7973C34.3245 77.4693 33.3747 78.4068 33.4935 80.0408C33.5 80.1287 33.4679 80.2194 33.43 80.3263C33.4104 80.3813 33.3894 80.4409 33.3714 80.5065C33.279 80.5152 33.1869 80.5261 33.0947 80.537C32.8963 80.5604 32.6979 80.5838 32.4995 80.5846C29.3297 80.6009 26.3172 81.3752 23.395 82.5204C21.867 83.1192 20.4473 83.9283 19.2508 85.0865C17.6256 86.6604 17.5962 88.7527 19.2792 90.1233C19.3765 90.2025 19.4907 90.2607 19.6455 90.3396C19.7316 90.3834 19.8305 90.4338 19.9458 90.4977C19.7433 90.6395 19.5651 90.765 19.4035 90.8785C19.0633 91.1177 18.7954 91.306 18.5258 91.4914C17.25 92.3704 16.0952 93.3752 15.2607 94.6968C14.1141 96.5129 14.2007 98.0532 15.5117 99.7501C15.6289 99.9017 15.736 100.061 15.8505 100.232C15.9064 100.315 15.9639 100.401 16.0252 100.489C15.8786 100.628 15.7355 100.759 15.597 100.886C15.3114 101.147 15.0443 101.391 14.8014 101.657C12.0934 104.623 12.79 107.944 16.4509 109.544C16.6455 109.629 16.8458 109.7 17.0464 109.771C17.2198 109.833 17.3931 109.894 17.5626 109.964C17.709 110.025 17.8486 110.102 18.0156 110.195C18.1004 110.242 18.1925 110.293 18.2964 110.348C18.2443 110.564 18.1931 110.779 18.1421 110.991C18.0312 111.455 17.9221 111.91 17.8109 112.365C17.3653 114.19 17.3923 115.993 18.0846 117.758C19.2045 120.614 21.5315 121.813 24.5241 121.043C25.0455 120.909 25.5484 120.7 26.0499 120.492C26.1891 120.435 26.3281 120.377 26.4677 120.321C26.7405 120.211 27.006 120.083 27.2946 119.945C27.4325 119.879 27.5759 119.81 27.728 119.739C28.4469 123.317 30.1073 126.13 33.8751 126.794C37.4414 127.423 40.3626 126.028 42.3176 123.187C42.6542 123.401 42.9706 123.618 43.2772 123.828C43.9259 124.273 44.5312 124.688 45.1911 124.981C47.1003 125.826 49.0071 125.429 50.7762 124.508C51.7514 124 52.4932 123.923 53.4703 124.584C54.9816 125.606 56.7843 125.98 58.5842 125.855C62.3849 125.589 65.8286 124.3 68.807 121.874C69.0954 121.639 69.3914 121.413 69.6606 121.208C69.7762 121.12 69.8869 121.035 69.9899 120.955C70.2905 121.237 70.577 121.511 70.8561 121.778C71.4448 122.342 72.0008 122.874 72.5876 123.371C75.5663 125.891 80.7017 126.371 83.3686 123.216C83.4056 123.172 83.468 123.15 83.5449 123.121C83.5858 123.107 83.6308 123.09 83.6782 123.068C85.5272 124.144 87.3208 123.84 88.8975 122.694C89.7888 123.155 90.6364 123.594 91.4783 124.03L93.0724 124.856C91.505 128.12 91.3695 131.438 92.1654 134.792C92.4464 135.977 92.9452 137.143 93.5325 138.216C94.463 139.914 95.9421 140.935 97.9195 141.159C98.1427 141.184 98.3618 141.244 98.6082 141.311C98.7314 141.344 98.8611 141.38 99.0015 141.413C99.0015 141.617 99.0001 141.816 98.9985 142.012C98.9952 142.423 98.992 142.822 99.0037 143.219C99.0849 145.924 100.845 148.015 103.473 148.6C105.376 149.023 107.109 148.627 108.733 147.62C108.984 147.465 109.23 147.302 109.548 147.091C109.721 146.977 109.914 146.848 110.141 146.7C110.105 147.01 110.08 147.278 110.058 147.517C110.015 147.972 109.981 148.322 109.907 148.663C109.855 148.901 109.82 149.185 109.784 149.478C109.736 149.87 109.686 150.277 109.59 150.608C109.59 150.608 108.92 150.563 108.545 150.769C108.248 150.933 108.119 151.619 108.073 152.166C107.769 154.67 107.97 156.681 108.273 158.895C108.52 160.696 109.461 161.888 111.234 162.399C111.571 162.496 112.127 162.696 112.391 162.791C112.459 162.815 112.508 162.833 112.529 162.839C112.872 163.653 113.188 164.086 113.697 164.591C114.227 165.116 115.066 165.025 115.625 164.964C115.812 164.944 115.968 164.927 116.07 164.938C116.193 165.019 116.328 165.124 116.475 165.239C116.993 165.645 117.659 166.167 118.49 166.105C118.554 166.1 118.626 166.092 118.701 166.085C118.962 166.056 119.254 166.024 119.347 166.105C120.575 167.062 121.747 167.02 122.563 165.942C122.94 165.999 123.309 166.054 123.672 166.109C124.42 166.221 125.144 166.33 125.868 166.441C127.103 166.632 128.03 166.173 128.483 165.045C128.72 164.454 128.834 163.574 128.878 162.946C128.923 162.289 128.978 161.653 129.033 161.025C129.159 159.587 129.281 158.193 129.261 156.683C129.226 153.935 128.346 152.982 125.65 152.468C125.402 152.421 124.958 152.338 124.958 152.338C124.766 152.226 124.658 152.015 124.531 151.766C124.501 151.708 124.47 151.648 124.437 151.586C123.833 150.468 123.099 149.41 122.336 148.389C121.721 147.566 121.073 146.768 120.425 145.969C120.012 145.461 119.599 144.952 119.195 144.438C118.953 144.129 118.718 143.787 118.592 143.421C118.261 142.463 118.775 141.644 119.86 141.401C123.019 140.696 125.234 138.958 126.121 135.757C127.099 132.23 125.204 128.664 121.735 127.464C121.588 127.414 121.452 127.333 121.299 127.243C121.222 127.197 121.141 127.149 121.052 127.101C121.131 127.002 121.202 126.91 121.27 126.822C121.405 126.649 121.524 126.494 121.651 126.346C122.927 124.858 123.038 123.24 122.197 121.516C121.105 119.278 119.286 118.085 116.831 117.814C116.547 117.783 116.262 117.76 115.966 117.735C115.828 117.724 115.688 117.712 115.544 117.7C117.015 112.29 114.943 108.531 110.449 105.767C110.902 101.312 108.601 98.717 104.599 97.411C104.593 97.3416 104.583 97.2833 104.576 97.2332C104.562 97.1445 104.552 97.0814 104.569 97.027C104.642 96.7962 104.729 96.5697 104.817 96.3436C104.836 96.2932 104.855 96.2429 104.875 96.1925C105.955 93.3586 105.793 90.553 104.555 87.826C102.763 83.876 99.5319 82.0553 95.2128 82.4663C94.9484 82.4913 94.6843 82.5207 94.4003 82.552ZM123.568 162.968C123.498 163.729 124.221 164.517 125.018 164.55C125.682 164.578 126.237 164.129 126.261 163.545C126.293 162.752 125.6 162.004 124.799 161.966C124.111 161.934 123.626 162.328 123.568 162.968Z" fill="black"/>
<path fill-rule="evenodd" clip-rule="evenodd" d="M75.2643 52.0847C74.8763 51.673 74.3633 51.629 73.2318 51.5834C73.181 51.2659 73.1244 50.9005 73.0645 50.513L73.0643 50.5118C72.9975 50.0797 72.9264 49.6198 72.8541 49.1679C73.9819 48.8918 75.0443 48.6319 76.1282 48.3667L77.2091 48.1022C78.0187 49.6947 77.9488 51.152 77.3372 52.5993C77.0181 53.3542 76.1208 54.0221 75.1501 53.9323C75.4465 53.3685 75.609 52.4504 75.2643 52.0847ZM66.4195 54.9456C65.2135 53.8438 64.776 52.4056 64.6108 50.7058C66.318 50.1001 67.8738 49.5632 69.7363 49.4789C70.1952 51.3334 70.1518 53.0539 69.1906 54.6677C68.5395 55.7605 67.4196 55.859 66.4195 54.9456ZM72.6884 55.5298L72.201 56.3248C72.094 56.4992 72.2033 56.7304 72.4104 56.7556C73.0287 56.8307 73.2931 56.4551 73.5272 56.1225C73.5525 56.0866 73.5774 56.0512 73.6024 56.0169C73.8829 55.632 74.5434 55.0067 74.5434 55.0067C74.5434 55.0067 75.1139 54.9705 75.51 55.003C76.7301 55.1024 77.5702 54.3656 78.1116 53.3556C78.9779 51.7388 79.0544 50.0382 78.4983 48.3186C78.1594 47.2703 77.7512 47.0007 76.6116 47.2302C75.4133 47.4715 74.233 47.799 73.0539 48.1263C72.8278 48.189 72.6017 48.2517 72.3756 48.3138C72.3434 48.3228 72.312 48.3346 72.2813 48.3488C71.9461 48.505 71.7747 48.8759 71.8161 49.2354L71.933 50.2481L72.098 51.6766C72.098 51.6766 71.3949 51.7026 71.1121 51.7942C71.0849 51.5465 71.0671 51.3031 71.0497 51.064C71.0173 50.6206 70.9861 50.1917 70.8975 49.777C70.6636 48.6833 70.1167 48.2545 69.0004 48.4787C67.9062 48.6986 66.8286 48.9985 65.7512 49.2984C65.3225 49.4177 64.8938 49.5371 64.4641 49.6513C63.8916 49.8036 63.5274 50.1728 63.5849 50.7545C63.7903 52.8344 64.3625 54.7768 66.2208 56.0634C67.5856 57.0084 69.0931 56.684 70.0071 55.293C70.1772 55.0339 70.2968 54.7444 70.4167 54.4542C70.5117 54.2242 70.6069 53.9939 70.7274 53.778C70.8903 53.4864 70.9878 53.0656 70.9878 53.0656C71.6048 52.9309 72.4351 52.8416 73.3204 52.7464C73.5422 52.7225 73.7674 52.6983 73.9936 52.6729C74.1898 52.6508 74.327 52.8565 74.2258 53.0214C73.6688 53.9303 73.1787 54.7298 72.6884 55.5298ZM70.4259 57.9436C70.2726 58.0677 70.1094 58.1998 69.9222 58.392C69.7898 58.528 69.5667 58.5449 69.4059 58.4382C69.2043 58.3049 69.0099 58.2005 68.818 58.0974C68.6845 58.0257 68.5521 57.9546 68.4194 57.8749C68.1992 57.7423 67.9081 57.8667 67.8673 58.1073C67.7654 58.7028 67.9967 59.0585 68.631 59.4659C69.3812 59.9479 70.1183 59.9552 70.6797 59.4863C71.1321 59.1085 71.3076 58.6257 71.1632 58.0311C71.0998 57.7712 70.7628 57.6656 70.5488 57.8433C70.5084 57.8769 70.4675 57.9099 70.4259 57.9436ZM68.5636 52.4351C68.1164 52.6205 67.6306 52.2606 67.6693 51.7643C67.6997 51.3766 67.7401 51.0633 67.8658 50.7924C67.9143 50.6878 68.0609 50.6317 68.2431 50.5932C68.6333 50.5106 68.9969 50.8119 69.0202 51.2228C69.0382 51.5437 69.0385 51.8588 68.9538 52.1474C68.9196 52.2636 68.7776 52.3463 68.5636 52.4351ZM74.7103 51.3589C74.7613 51.398 74.8401 51.4179 75.1314 51.3586C75.6718 50.6972 75.7867 50.2941 75.0605 49.8041C74.9453 49.7264 74.5881 49.7658 74.5026 49.8658C74.0372 50.4065 74.1366 50.9214 74.7103 51.3589Z" fill="black"/>
</svg>
